Gidolinya-Regular.ufo
<glyph name="exclam" format="1">
  <advance width="260"/>
  <unicode hex="0021"/>
  <outline>
    <contour>
      <point x="130" y="96" type="curve" smooth="yes"/>
      <point x="160" y="96"/>
      <point x="181" y="75"/>
      <point x="181" y="45" type="curve" smooth="yes"/>
      <point x="181" y="15"/>
      <point x="160" y="-6"/>
      <point x="130" y="-6" type="curve" smooth="yes"/>
      <point x="100" y="-6"/>
      <point x="79" y="15"/>
      <point x="79" y="45" type="curve" smooth="yes"/>
      <point x="79" y="75"/>
      <point x="100" y="96"/>
    </contour>
    <contour>
      <point x="92" y="666" type="line"/>
      <point x="166" y="666" type="line"/>
      <point x="166" y="472" type="line" smooth="yes"/>
      <point x="166" y="292"/>
      <point x="156" y="169"/>
      <point x="156" y="169" type="curve"/>
      <point x="102" y="169" type="line"/>
      <point x="102" y="169"/>
      <point x="92" y="292"/>
      <point x="92" y="472" type="curve" smooth="yes"/>
    </contour>
  </outline>
</glyph>
<glyph name="quotedbl" format="1">
  <advance width="362"/>
  <unicode hex="0022"/>
  <outline>
    <contour>
      <point x="210" y="621" type="curve" smooth="yes"/>
      <point x="210" y="652"/>
      <point x="231" y="672"/>
      <point x="261" y="672" type="curve" smooth="yes"/>
      <point x="291" y="672"/>
      <point x="312" y="652"/>
      <point x="312" y="621" type="curve" smooth="yes"/>
      <point x="312" y="608"/>
      <point x="308" y="595"/>
      <point x="298" y="567" type="curve" smooth="yes"/>
      <point x="258" y="455" type="line"/>
      <point x="213" y="455" type="line"/>
      <point x="242" y="573" type="line" smooth="yes"/>
      <point x="223" y="579"/>
      <point x="210" y="598"/>
    </contour>
    <contour>
      <point x="50" y="621" type="curve" smooth="yes"/>
      <point x="50" y="652"/>
      <point x="71" y="672"/>
      <point x="101" y="672" type="curve" smooth="yes"/>
      <point x="131" y="672"/>
      <point x="152" y="652"/>
      <point x="152" y="621" type="curve" smooth="yes"/>
      <point x="152" y="608"/>
      <point x="148" y="595"/>
      <point x="138" y="567" type="curve" smooth="yes"/>
      <point x="98" y="455" type="line"/>
      <point x="53" y="455" type="line"/>
      <point x="82" y="573" type="line" smooth="yes"/>
      <point x="63" y="579"/>
      <point x="50" y="598"/>
    </contour>
  </outline>
</glyph>
<glyph name="numbersign" format="1">
  <advance width="610"/>
  <unicode hex="0023"/>
  <outline>
    <contour>
      <point x="236" y="666" type="line"/>
      <point x="300" y="666" type="line"/>
      <point x="260" y="478" type="line"/>
      <point x="410" y="478" type="line"/>
      <point x="450" y="666" type="line"/>
      <point x="514" y="666" type="line"/>
      <point x="474" y="478" type="line"/>
      <point x="555" y="478" type="line"/>
      <point x="555" y="421" type="line"/>
      <point x="462" y="421" type="line"/>
      <point x="426" y="247" type="line"/>
      <point x="520" y="247" type="line"/>
      <point x="520" y="190" type="line"/>
      <point x="414" y="190" type="line"/>
      <point x="374" y="0" type="line"/>
      <point x="310" y="0" type="line"/>
      <point x="350" y="190" type="line"/>
      <point x="200" y="190" type="line"/>
      <point x="160" y="0" type="line"/>
      <point x="96" y="0" type="line"/>
      <point x="136" y="190" type="line"/>
      <point x="55" y="190" type="line"/>
      <point x="55" y="247" type="line"/>
      <point x="148" y="247" type="line"/>
      <point x="184" y="421" type="line"/>
      <point x="90" y="421" type="line"/>
      <point x="90" y="478" type="line"/>
      <point x="196" y="478" type="line"/>
    </contour>
    <contour>
      <point x="398" y="421" type="line"/>
      <point x="248" y="421" type="line"/>
      <point x="212" y="247" type="line"/>
      <point x="362" y="247" type="line"/>
    </contour>
  </outline>
</glyph>
<glyph name="asterisk" format="1">
  <advance width="352"/>
  <unicode hex="002A"/>
  <outline>
    <contour>
      <point x="150" y="667" type="line"/>
      <point x="202" y="667" type="line"/>
      <point x="199" y="576" type="line"/>
      <point x="286" y="607" type="line"/>
      <point x="302" y="557" type="line"/>
      <point x="214" y="532" type="line"/>
      <point x="270" y="460" type="line"/>
      <point x="228" y="429" type="line"/>
      <point x="176" y="504" type="line"/>
      <point x="124" y="429" type="line"/>
      <point x="83" y="459" type="line"/>
      <point x="138" y="532" type="line"/>
      <point x="50" y="558" type="line"/>
      <point x="66" y="608" type="line"/>
      <point x="153" y="576" type="line"/>
    </contour>
  </outline>
</glyph>
<glyph name="hyphen" format="1">
  <advance width="370"/>
  <unicode hex="002D"/>
  <outline>
    <contour>
      <point x="80" y="279" type="line"/>
      <point x="290" y="279" type="line"/>
      <point x="290" y="221" type="line"/>
      <point x="80" y="221" type="line"/>
    </contour>
  </outline>
</glyph>
<glyph name="one" format="1">
  <advance width="361"/>
  <unicode hex="0031"/>
  <outline>
    <contour>
      <point x="261" y="512" type="curve" smooth="yes"/>
      <point x="261" y="0" type="line"/>
      <point x="187" y="0" type="line"/>
      <point x="187" y="512" type="line" smooth="yes"/>
      <point x="187" y="553"/>
      <point x="187" y="575"/>
      <point x="170" y="588" type="curve" smooth="yes"/>
      <point x="158" y="597"/>
      <point x="141" y="597"/>
      <point x="104" y="597" type="curve" smooth="yes"/>
      <point x="90" y="597" type="line"/>
      <point x="90" y="667" type="line"/>
      <point x="104" y="667" type="line" smooth="yes"/>
      <point x="148" y="667"/>
      <point x="188" y="667"/>
      <point x="221" y="639" type="curve" smooth="yes"/>
      <point x="261" y="604"/>
      <point x="261" y="560"/>
    </contour>
  </outline>
</glyph>
<glyph name="two" format="1">
  <advance width="515"/>
  <unicode hex="0032"/>
  <outline>
    <contour>
      <point x="236" y="672" type="curve" smooth="yes"/>
      <point x="293" y="672"/>
      <point x="335" y="657"/>
      <point x="369" y="631" type="curve" smooth="yes"/>
      <point x="408" y="601"/>
      <point x="436" y="548"/>
      <point x="436" y="490" type="curve" smooth="yes"/>
      <point x="436" y="415"/>
      <point x="399" y="372"/>
      <point x="343" y="316" type="curve" smooth="yes"/>
      <point x="191" y="163" type="line" smooth="yes"/>
      <point x="153" y="125"/>
      <point x="138" y="112"/>
      <point x="138" y="92" type="curve" smooth="yes"/>
      <point x="138" y="83"/>
      <point x="143" y="77"/>
      <point x="149" y="74" type="curve" smooth="yes"/>
      <point x="156" y="70"/>
      <point x="166" y="70"/>
      <point x="209" y="70" type="curve" smooth="yes"/>
      <point x="455" y="70" type="line"/>
      <point x="455" y="0" type="line"/>
      <point x="199" y="0" type="line" smooth="yes"/>
      <point x="160" y="0"/>
      <point x="138" y="0"/>
      <point x="114" y="12" type="curve" smooth="yes"/>
      <point x="86" y="26"/>
      <point x="64" y="54"/>
      <point x="64" y="92" type="curve" smooth="yes"/>
      <point x="64" y="137"/>
      <point x="93" y="167"/>
      <point x="137" y="211" type="curve" smooth="yes"/>
      <point x="289" y="364" type="line" smooth="yes"/>
      <point x="339" y="415"/>
      <point x="362" y="441"/>
      <point x="362" y="490" type="curve" smooth="yes"/>
      <point x="362" y="521"/>
      <point x="349" y="555"/>
      <point x="323" y="576" type="curve" smooth="yes"/>
      <point x="301" y="594"/>
      <point x="272" y="602"/>
      <point x="236" y="602" type="curve" smooth="yes"/>
      <point x="195" y="602"/>
      <point x="152" y="590"/>
      <point x="121" y="565" type="curve"/>
      <point x="77" y="621" type="line"/>
      <point x="126" y="659"/>
      <point x="187" y="672"/>
    </contour>
  </outline>
</glyph>
<glyph name="three" format="1">
  <advance width="486"/>
  <unicode hex="0033"/>
  <outline>
    <contour>
      <point x="75" y="666" type="line"/>
      <point x="277" y="666" type="line" smooth="yes"/>
      <point x="322" y="666"/>
      <point x="359" y="666"/>
      <point x="388" y="632" type="curve" smooth="yes"/>
      <point x="400" y="618"/>
      <point x="408" y="601"/>
      <point x="408" y="577" type="curve" smooth="yes"/>
      <point x="408" y="537"/>
      <point x="385" y="511"/>
      <point x="352" y="471" type="curve" smooth="yes"/>
      <point x="286" y="392" type="line"/>
      <point x="317" y="386"/>
      <point x="346" y="372"/>
      <point x="370" y="350" type="curve" smooth="yes"/>
      <point x="408" y="315"/>
      <point x="431" y="262"/>
      <point x="431" y="197" type="curve" smooth="yes"/>
      <point x="431" y="132"/>
      <point x="407" y="80"/>
      <point x="370" y="46" type="curve" smooth="yes"/>
      <point x="334" y="13"/>
      <point x="282" y="-6"/>
      <point x="219" y="-6" type="curve" smooth="yes"/>
      <point x="153" y="-6"/>
      <point x="93" y="14"/>
      <point x="50" y="50" type="curve"/>
      <point x="96" y="105" type="line"/>
      <point x="124" y="80"/>
      <point x="170" y="64"/>
      <point x="219" y="64" type="curve" smooth="yes"/>
      <point x="257" y="64"/>
      <point x="294" y="74"/>
      <point x="318" y="96" type="curve" smooth="yes"/>
      <point x="342" y="118"/>
      <point x="357" y="154"/>
      <point x="357" y="197" type="curve" smooth="yes"/>
      <point x="357" y="228"/>
      <point x="349" y="272"/>
      <point x="318" y="300" type="curve" smooth="yes"/>
      <point x="287" y="328"/>
      <point x="250" y="328"/>
      <point x="186" y="328" type="curve"/>
      <point x="186" y="385" type="line"/>
      <point x="296" y="517" type="line" smooth="yes"/>
      <point x="323" y="549"/>
      <point x="334" y="562"/>
      <point x="334" y="577" type="curve" smooth="yes"/>
      <point x="334" y="584"/>
      <point x="331" y="588"/>
      <point x="327" y="591" type="curve" smooth="yes"/>
      <point x="321" y="595"/>
      <point x="315" y="596"/>
      <point x="267" y="596" type="curve" smooth="yes"/>
      <point x="75" y="596" type="line"/>
    </contour>
  </outline>
</glyph>
<glyph name="four" format="1">
  <advance width="525"/>
  <unicode hex="0034"/>
  <outline>
    <contour>
      <point x="332" y="666" type="line"/>
      <point x="159" y="344" type="line" smooth="yes"/>
      <point x="132.847" y="295.322"/>
      <point x="125" y="282"/>
      <point x="125" y="264" type="curve" smooth="yes"/>
      <point x="125" y="258"/>
      <point x="126" y="253"/>
      <point x="130" y="247" type="curve" smooth="yes"/>
      <point x="138" y="235"/>
      <point x="152" y="235"/>
      <point x="190" y="235" type="curve" smooth="yes"/>
      <point x="343" y="235" type="line"/>
      <point x="343" y="403" type="line"/>
      <point x="413" y="403" type="line"/>
      <point x="413" y="235" type="line"/>
      <point x="470" y="235" type="line"/>
      <point x="470" y="165" type="line"/>
      <point x="413" y="165" type="line"/>
      <point x="413" y="0" type="line"/>
      <point x="343" y="0" type="line"/>
      <point x="343" y="165" type="line"/>
      <point x="200" y="165" type="line" smooth="yes"/>
      <point x="152" y="165"/>
      <point x="129" y="165"/>
      <point x="105" y="177" type="curve" smooth="yes"/>
      <point x="75" y="192"/>
      <point x="51" y="221"/>
      <point x="51" y="264" type="curve" smooth="yes"/>
      <point x="51" y="300"/>
      <point x="69.8549" y="333.462"/>
      <point x="89" y="369" type="curve" smooth="yes"/>
      <point x="249" y="666" type="line"/>
    </contour>
  </outline>
</glyph>
<glyph name="five" format="1">
  <advance width="492"/>
  <unicode hex="0035"/>
  <outline>
    <contour>
      <point x="77" y="483" type="curve" smooth="yes"/>
      <point x="77" y="511" type="line" smooth="yes"/>
      <point x="77" y="559"/>
      <point x="77" y="603"/>
      <point x="117" y="638" type="curve" smooth="yes"/>
      <point x="150" y="666"/>
      <point x="190" y="666"/>
      <point x="234" y="666" type="curve" smooth="yes"/>
      <point x="401" y="666" type="line"/>
      <point x="401" y="596" type="line"/>
      <point x="234" y="596" type="line" smooth="yes"/>
      <point x="197" y="596"/>
      <point x="180" y="596"/>
      <point x="168" y="587" type="curve" smooth="yes"/>
      <point x="151" y="574"/>
      <point x="151" y="552"/>
      <point x="151" y="511" type="curve" smooth="yes"/>
      <point x="151" y="483" type="line" smooth="yes"/>
      <point x="151" y="439"/>
      <point x="153" y="425"/>
      <point x="165" y="414" type="curve" smooth="yes"/>
      <point x="176" y="404"/>
      <point x="196" y="400"/>
      <point x="217" y="400" type="curve" smooth="yes"/>
      <point x="289" y="400"/>
      <point x="341" y="387"/>
      <point x="381" y="350" type="curve" smooth="yes"/>
      <point x="418" y="316"/>
      <point x="442" y="263"/>
      <point x="442" y="198" type="curve" smooth="yes"/>
      <point x="442" y="132"/>
      <point x="418" y="80"/>
      <point x="381" y="46" type="curve" smooth="yes"/>
      <point x="345" y="13"/>
      <point x="294" y="-6"/>
      <point x="230" y="-6" type="curve" smooth="yes"/>
      <point x="165" y="-6"/>
      <point x="103" y="13"/>
      <point x="60" y="49" type="curve"/>
      <point x="106" y="104" type="line"/>
      <point x="136" y="78"/>
      <point x="180" y="64"/>
      <point x="230" y="64" type="curve" smooth="yes"/>
      <point x="273" y="64"/>
      <point x="306" y="75"/>
      <point x="329" y="96" type="curve" smooth="yes"/>
      <point x="354" y="119"/>
      <point x="368" y="154"/>
      <point x="368" y="198" type="curve" smooth="yes"/>
      <point x="368" y="241"/>
      <point x="353" y="278"/>
      <point x="329" y="300" type="curve" smooth="yes"/>
      <point x="300" y="326"/>
      <point x="263" y="330"/>
      <point x="213" y="330" type="curve" smooth="yes"/>
      <point x="178" y="330"/>
      <point x="142" y="340"/>
      <point x="118" y="360" type="curve" smooth="yes"/>
      <point x="77" y="394"/>
      <point x="77" y="438"/>
    </contour>
  </outline>
</glyph>
<glyph name="seven" format="1">
  <advance width="500"/>
  <unicode hex="0037"/>
  <outline>
    <contour>
      <point x="103" y="0" type="line"/>
      <point x="338" y="484" type="line" smooth="yes"/>
      <point x="361" y="531"/>
      <point x="370" y="550"/>
      <point x="370" y="567" type="curve" smooth="yes"/>
      <point x="370" y="578"/>
      <point x="366" y="585"/>
      <point x="360" y="590" type="curve" smooth="yes"/>
      <point x="352" y="596"/>
      <point x="340" y="596"/>
      <point x="297" y="596" type="curve" smooth="yes"/>
      <point x="55" y="596" type="line"/>
      <point x="55" y="666" type="line"/>
      <point x="307" y="666" type="line" smooth="yes"/>
      <point x="347" y="666"/>
      <point x="386" y="666"/>
      <point x="415" y="637" type="curve" smooth="yes"/>
      <point x="432" y="620"/>
      <point x="444" y="598"/>
      <point x="444" y="567" type="curve" smooth="yes"/>
      <point x="444" y="533"/>
      <point x="427" y="499"/>
      <point x="405" y="454" type="curve" smooth="yes"/>
      <point x="184" y="0" type="line"/>
    </contour>
  </outline>
</glyph>
<glyph name="nine" format="1">
  <advance width="500"/>
  <unicode hex="0039"/>
  <outline>
    <contour>
      <point x="250" y="602" type="curve" smooth="yes"/>
      <point x="207" y="602"/>
      <point x="175" y="585"/>
      <point x="156" y="562" type="curve" smooth="yes"/>
      <point x="137" y="540"/>
      <point x="124" y="506"/>
      <point x="124" y="461" type="curve" smooth="yes"/>
      <point x="124" y="416"/>
      <point x="137" y="382"/>
      <point x="156" y="360" type="curve" smooth="yes"/>
      <point x="175" y="337"/>
      <point x="207" y="320"/>
      <point x="250" y="320" type="curve" smooth="yes"/>
      <point x="293" y="320"/>
      <point x="325" y="337"/>
      <point x="344" y="360" type="curve" smooth="yes"/>
      <point x="363" y="382"/>
      <point x="376" y="416"/>
      <point x="376" y="461" type="curve" smooth="yes"/>
      <point x="376" y="506"/>
      <point x="363" y="540"/>
      <point x="344" y="562" type="curve" smooth="yes"/>
      <point x="325" y="585"/>
      <point x="293" y="602"/>
    </contour>
    <contour>
      <point x="250" y="672" type="curve" smooth="yes"/>
      <point x="315" y="672"/>
      <point x="368" y="645"/>
      <point x="402" y="606" type="curve" smooth="yes"/>
      <point x="434" y="569"/>
      <point x="450" y="518"/>
      <point x="450" y="461" type="curve" smooth="yes"/>
      <point x="450" y="398"/>
      <point x="435" y="356"/>
      <point x="374" y="239" type="curve" smooth="yes"/>
      <point x="250" y="0" type="line"/>
      <point x="168" y="0" type="line"/>
      <point x="303" y="260" type="line"/>
      <point x="286" y="252"/>
      <point x="269" y="250"/>
      <point x="250" y="250" type="curve" smooth="yes"/>
      <point x="185" y="250"/>
      <point x="132" y="277"/>
      <point x="98" y="316" type="curve" smooth="yes"/>
      <point x="66" y="353"/>
      <point x="50" y="404"/>
      <point x="50" y="461" type="curve" smooth="yes"/>
      <point x="50" y="518"/>
      <point x="66" y="569"/>
      <point x="98" y="606" type="curve" smooth="yes"/>
      <point x="132" y="645"/>
      <point x="185" y="672"/>
    </contour>
  </outline>
</glyph>
<glyph name="question" format="1">
  <advance width="469"/>
  <unicode hex="003F"/>
  <outline>
    <contour>
      <point x="214" y="96" type="curve" smooth="yes"/>
      <point x="244" y="96"/>
      <point x="265" y="75"/>
      <point x="265" y="45" type="curve" smooth="yes"/>
      <point x="265" y="15"/>
      <point x="244" y="-6"/>
      <point x="214" y="-6" type="curve" smooth="yes"/>
      <point x="184" y="-6"/>
      <point x="163" y="15"/>
      <point x="163" y="45" type="curve" smooth="yes"/>
      <point x="163" y="75"/>
      <point x="184" y="96"/>
    </contour>
    <contour>
      <point x="209" y="672" type="curve" smooth="yes"/>
      <point x="266" y="672"/>
      <point x="308" y="657"/>
      <point x="342" y="631" type="curve" smooth="yes"/>
      <point x="381" y="601"/>
      <point x="409" y="549"/>
      <point x="409" y="490" type="curve" smooth="yes"/>
      <point x="409" y="427"/>
      <point x="379" y="381"/>
      <point x="343" y="351" type="curve" smooth="yes"/>
      <point x="307" y="321"/>
      <point x="265" y="306"/>
      <point x="250" y="262" type="curve" smooth="yes"/>
      <point x="247" y="253"/>
      <point x="244" y="240"/>
      <point x="243" y="216" type="curve" smooth="yes"/>
      <point x="241" y="169" type="line"/>
      <point x="241" y="169"/>
      <point x="187" y="169"/>
      <point x="187" y="169" type="curve"/>
      <point x="187" y="169"/>
      <point x="185" y="206"/>
      <point x="185" y="224" type="curve" smooth="yes"/>
      <point x="185" y="245"/>
      <point x="186" y="257"/>
      <point x="190" y="276" type="curve" smooth="yes"/>
      <point x="204" y="344"/>
      <point x="263" y="375"/>
      <point x="294" y="402" type="curve" smooth="yes"/>
      <point x="319" y="424"/>
      <point x="335" y="451"/>
      <point x="335" y="490" type="curve" smooth="yes"/>
      <point x="335" y="522"/>
      <point x="322" y="555"/>
      <point x="296" y="576" type="curve" smooth="yes"/>
      <point x="274" y="594"/>
      <point x="245" y="602"/>
      <point x="209" y="602" type="curve" smooth="yes"/>
      <point x="168" y="602"/>
      <point x="125" y="590"/>
      <point x="94" y="565" type="curve"/>
      <point x="50" y="621" type="line"/>
      <point x="99" y="659"/>
      <point x="160" y="672"/>
    </contour>
  </outline>
</glyph>
<glyph name="at" format="1">
  <advance width="850"/>
  <unicode hex="0040"/>
  <outline>
    <contour>
      <point x="594" y="266" type="curve" smooth="yes"/>
      <point x="594" y="200" type="line" smooth="yes"/>
      <point x="594" y="133"/>
      <point x="594" y="87"/>
      <point x="559" y="46" type="curve" smooth="yes"/>
      <point x="529" y="11"/>
      <point x="482" y="-6"/>
      <point x="422" y="-6" type="curve" smooth="yes"/>
      <point x="374" y="-6"/>
      <point x="333" y="4"/>
      <point x="301" y="27" type="curve" smooth="yes"/>
      <point x="268" y="50"/>
      <point x="241" y="90"/>
      <point x="241" y="142" type="curve" smooth="yes"/>
      <point x="241" y="195"/>
      <point x="268" y="234"/>
      <point x="300" y="257" type="curve" smooth="yes"/>
      <point x="347" y="291"/>
      <point x="403" y="291"/>
      <point x="442" y="291" type="curve" smooth="yes"/>
      <point x="524" y="291" type="line"/>
      <point x="524" y="318"/>
      <point x="524" y="365"/>
      <point x="485" y="396" type="curve" smooth="yes"/>
      <point x="456" y="419"/>
      <point x="418" y="419"/>
      <point x="349" y="419" type="curve" smooth="yes"/>
      <point x="271" y="419"/>
      <point x="218" y="419"/>
      <point x="177" y="371" type="curve" smooth="yes"/>
      <point x="141" y="329"/>
      <point x="141" y="275"/>
      <point x="141" y="200" type="curve" smooth="yes"/>
      <point x="141" y="98" type="line" smooth="yes"/>
      <point x="141" y="23"/>
      <point x="141" y="-31"/>
      <point x="177" y="-73" type="curve" smooth="yes"/>
      <point x="218" y="-121"/>
      <point x="280" y="-121"/>
      <point x="358" y="-121" type="curve" smooth="yes"/>
      <point x="492" y="-121" type="line" smooth="yes"/>
      <point x="570" y="-121"/>
      <point x="632" y="-121"/>
      <point x="673" y="-73" type="curve" smooth="yes"/>
      <point x="709" y="-31"/>
      <point x="709" y="23"/>
      <point x="709" y="98" type="curve" smooth="yes"/>
      <point x="709" y="235" type="line" smooth="yes"/>
      <point x="709" y="349"/>
      <point x="709" y="451"/>
      <point x="632" y="528" type="curve" smooth="yes"/>
      <point x="556" y="604"/>
      <point x="452" y="604"/>
      <point x="342" y="604" type="curve" smooth="yes"/>
      <point x="277" y="604" type="line"/>
      <point x="277" y="666" type="line"/>
      <point x="342" y="666" type="line" smooth="yes"/>
      <point x="463" y="666"/>
      <point x="584" y="666"/>
      <point x="680" y="570" type="curve" smooth="yes"/>
      <point x="775" y="475"/>
      <point x="775" y="351"/>
      <point x="775" y="235" type="curve" smooth="yes"/>
      <point x="775" y="98" type="line" smooth="yes"/>
      <point x="775" y="15"/>
      <point x="775" y="-57"/>
      <point x="720" y="-117" type="curve" smooth="yes"/>
      <point x="659" y="-183"/>
      <point x="574" y="-183"/>
      <point x="492" y="-183" type="curve" smooth="yes"/>
      <point x="358" y="-183" type="line" smooth="yes"/>
      <point x="276" y="-183"/>
      <point x="191" y="-183"/>
      <point x="130" y="-117" type="curve" smooth="yes"/>
      <point x="75" y="-57"/>
      <point x="75" y="15"/>
      <point x="75" y="98" type="curve" smooth="yes"/>
      <point x="75" y="200" type="line" smooth="yes"/>
      <point x="75" y="283"/>
      <point x="75" y="355"/>
      <point x="130" y="415" type="curve" smooth="yes"/>
      <point x="191" y="481"/>
      <point x="267" y="481"/>
      <point x="349" y="481" type="curve" smooth="yes"/>
      <point x="426" y="481"/>
      <point x="480" y="481"/>
      <point x="532" y="442" type="curve" smooth="yes"/>
      <point x="594" y="395"/>
      <point x="594" y="322"/>
    </contour>
    <contour>
      <point x="524" y="200" type="curve" smooth="yes"/>
      <point x="524" y="229" type="line"/>
      <point x="442" y="229" type="line" smooth="yes"/>
      <point x="408" y="229"/>
      <point x="372" y="229"/>
      <point x="344" y="209" type="curve" smooth="yes"/>
      <point x="326" y="196"/>
      <point x="311" y="173"/>
      <point x="311" y="142" type="curve" smooth="yes"/>
      <point x="311" y="114"/>
      <point x="325" y="92"/>
      <point x="343" y="79" type="curve" smooth="yes"/>
      <point x="362" y="66"/>
      <point x="390" y="60"/>
      <point x="422" y="60" type="curve" smooth="yes"/>
      <point x="459" y="60"/>
      <point x="488" y="68"/>
      <point x="505" y="88" type="curve" smooth="yes"/>
      <point x="524" y="110"/>
      <point x="524" y="141"/>
    </contour>
  </outline>
</glyph>
<glyph name="A" format="1">
  <advance width="594"/>
  <unicode hex="0041"/>
  <outline>
    <contour>
      <point x="-20" y="0" type="move" name="DoubleTop"/>
    </contour>
    <contour>
      <point x="-20" y="0" type="move" name="Apos"/>
    </contour>
    <contour>
      <point x="-20" y="0" type="move" name="Center"/>
    </contour>
    <contour>
      <point x="463" y="0" type="move" name="Bottom"/>
    </contour>
    <contour>
      <point x="285" y="667" type="move" name="Top"/>
    </contour>
    <contour>
      <point x="297" y="672" type="curve" smooth="yes"/>
      <point x="323" y="672"/>
      <point x="350" y="663"/>
      <point x="370" y="644" type="curve" smooth="yes"/>
      <point x="387" y="628"/>
      <point x="395" y="614"/>
      <point x="416" y="534" type="curve" smooth="yes"/>
      <point x="559" y="0" type="line"/>
      <point x="483" y="0" type="line"/>
      <point x="431" y="195" type="line"/>
      <point x="163" y="195" type="line"/>
      <point x="111" y="0" type="line"/>
      <point x="35" y="0" type="line"/>
      <point x="178" y="534" type="line" smooth="yes"/>
      <point x="199" y="614"/>
      <point x="207" y="628"/>
      <point x="224" y="644" type="curve" smooth="yes"/>
      <point x="244" y="663"/>
      <point x="271" y="672"/>
    </contour>
    <contour>
      <point x="182" y="265" type="line"/>
      <point x="412" y="265" type="line"/>
      <point x="344" y="518" type="line" smooth="yes"/>
      <point x="330" y="572"/>
      <point x="325" y="587"/>
      <point x="318" y="594" type="curve" smooth="yes"/>
      <point x="313" y="599"/>
      <point x="305" y="602"/>
      <point x="297" y="602" type="curve" smooth="yes"/>
      <point x="289" y="602"/>
      <point x="281" y="599"/>
      <point x="276" y="594" type="curve" smooth="yes"/>
      <point x="269" y="587"/>
      <point x="264" y="572"/>
      <point x="250" y="518" type="curve" smooth="yes"/>
    </contour>
  </outline>
</glyph>
<glyph name="B" format="1">
  <advance width="550"/>
  <unicode hex="0042"/>
  <outline>
    <contour>
      <point x="115" y="638" type="curve" smooth="yes"/>
      <point x="148" y="666"/>
      <point x="188" y="666"/>
      <point x="232" y="666" type="curve" smooth="yes"/>
      <point x="234" y="666" type="line" smooth="yes"/>
      <point x="305" y="666"/>
      <point x="361" y="666"/>
      <point x="411" y="627" type="curve" smooth="yes"/>
      <point x="452" y="595"/>
      <point x="475" y="544"/>
      <point x="475" y="487" type="curve" smooth="yes"/>
      <point x="475" y="426"/>
      <point x="449" y="377"/>
      <point x="402" y="348" type="curve"/>
      <point x="460" y="318"/>
      <point x="495" y="262"/>
      <point x="495" y="189" type="curve" smooth="yes"/>
      <point x="495" y="132"/>
      <point x="473" y="85"/>
      <point x="442" y="54" type="curve" smooth="yes"/>
      <point x="388" y="0"/>
      <point x="318" y="0"/>
      <point x="244" y="0" type="curve" smooth="yes"/>
      <point x="232" y="0" type="line" smooth="yes"/>
      <point x="188" y="0"/>
      <point x="148" y="0"/>
      <point x="115" y="28" type="curve" smooth="yes"/>
      <point x="75" y="63"/>
      <point x="75" y="107"/>
      <point x="75" y="155" type="curve" smooth="yes"/>
      <point x="75" y="511" type="line" smooth="yes"/>
      <point x="75" y="560"/>
      <point x="75" y="605"/>
    </contour>
    <contour>
      <point x="166" y="587" type="curve" smooth="yes"/>
      <point x="149" y="574"/>
      <point x="149" y="552"/>
      <point x="149" y="511" type="curve" smooth="yes"/>
      <point x="149" y="378" type="line"/>
      <point x="234" y="378" type="line" smooth="yes"/>
      <point x="302" y="378"/>
      <point x="348" y="378"/>
      <point x="377" y="414" type="curve" smooth="yes"/>
      <point x="394" y="435"/>
      <point x="401" y="461"/>
      <point x="401" y="487" type="curve" smooth="yes"/>
      <point x="401" y="513"/>
      <point x="394" y="539"/>
      <point x="377" y="560" type="curve" smooth="yes"/>
      <point x="348" y="596"/>
      <point x="302" y="596"/>
      <point x="234" y="596" type="curve" smooth="yes"/>
      <point x="232" y="596" type="line" smooth="yes"/>
      <point x="195" y="596"/>
      <point x="178" y="596"/>
    </contour>
    <contour>
      <point x="244" y="308" type="curve" smooth="yes"/>
      <point x="149" y="308" type="line"/>
      <point x="149" y="155" type="line" smooth="yes"/>
      <point x="149" y="114"/>
      <point x="149" y="92"/>
      <point x="166" y="79" type="curve" smooth="yes"/>
      <point x="178" y="70"/>
      <point x="195" y="70"/>
      <point x="232" y="70" type="curve" smooth="yes"/>
      <point x="244" y="70" type="line" smooth="yes"/>
      <point x="313" y="70"/>
      <point x="358" y="70"/>
      <point x="391" y="105" type="curve" smooth="yes"/>
      <point x="408" y="123"/>
      <point x="421" y="153"/>
      <point x="421" y="189" type="curve" smooth="yes"/>
      <point x="421" y="225"/>
      <point x="408" y="255"/>
      <point x="391" y="273" type="curve" smooth="yes"/>
      <point x="358" y="308"/>
      <point x="313" y="308"/>
    </contour>
  </outline>
</glyph>
<glyph name="C" format="1">
  <advance width="536"/>
  <unicode hex="0043"/>
  <outline>
    <contour>
      <point x="0" y="0" type="move" name="DoubleTop"/>
    </contour>
    <contour>
      <point x="0" y="0" type="move" name="Apos"/>
    </contour>
    <contour>
      <point x="0" y="0" type="move" name="Center"/>
    </contour>
    <contour>
      <point x="290" y="0" type="move" name="Bottom"/>
    </contour>
    <contour>
      <point x="290" y="666" type="move" name="Top"/>
    </contour>
    <contour>
      <point x="290" y="672" type="curve" smooth="yes"/>
      <point x="352" y="672"/>
      <point x="416" y="651"/>
      <point x="465" y="611" type="curve"/>
      <point x="422" y="555" type="line"/>
      <point x="386" y="585"/>
      <point x="338" y="602"/>
      <point x="290" y="602" type="curve" smooth="yes"/>
      <point x="238.557" y="602"/>
      <point x="198.372" y="582.874"/>
      <point x="174" y="552" type="curve" smooth="yes"/>
      <point x="139" y="506"/>
      <point x="139" y="458"/>
      <point x="139" y="333" type="curve" smooth="yes"/>
      <point x="139" y="208"/>
      <point x="139" y="160"/>
      <point x="174" y="114" type="curve" smooth="yes"/>
      <point x="198.372" y="83.1262"/>
      <point x="238.557" y="64"/>
      <point x="290" y="64" type="curve" smooth="yes"/>
      <point x="342" y="64"/>
      <point x="394" y="83"/>
      <point x="431" y="117" type="curve"/>
      <point x="476" y="62" type="line"/>
      <point x="426" y="18"/>
      <point x="359" y="-6"/>
      <point x="290" y="-6" type="curve" smooth="yes"/>
      <point x="206.528" y="-6"/>
      <point x="148.199" y="29"/>
      <point x="113" y="74" type="curve" smooth="yes"/>
      <point x="65" y="137"/>
      <point x="65" y="204"/>
      <point x="65" y="333" type="curve" smooth="yes"/>
      <point x="65" y="462"/>
      <point x="65" y="529"/>
      <point x="113" y="592" type="curve" smooth="yes"/>
      <point x="148.199" y="637"/>
      <point x="206.528" y="672"/>
    </contour>
  </outline>
</glyph>
<glyph name="D" format="1">
  <advance width="570"/>
  <unicode hex="0044"/>
  <outline>
    <contour>
      <point x="0" y="0" type="move" name="DoubleTop"/>
    </contour>
    <contour>
      <point x="0" y="0" type="move" name="Apos"/>
    </contour>
    <contour>
      <point x="-5" y="0" type="move" name="Center"/>
    </contour>
    <contour>
      <point x="277" y="0" type="move" name="Bottom"/>
    </contour>
    <contour>
      <point x="280" y="666" type="move" name="Top"/>
    </contour>
    <contour>
      <point x="212" y="666" type="curve"/>
      <point x="277" y="666"/>
      <point x="378" y="666"/>
      <point x="447" y="597" type="curve" smooth="yes"/>
      <point x="515" y="529"/>
      <point x="515" y="435"/>
      <point x="515" y="333" type="curve" smooth="yes"/>
      <point x="515" y="231"/>
      <point x="515" y="137"/>
      <point x="447" y="69" type="curve" smooth="yes"/>
      <point x="378" y="0"/>
      <point x="277" y="0"/>
      <point x="212" y="0" type="curve"/>
      <point x="188" y="0"/>
      <point x="148" y="0"/>
      <point x="115" y="28" type="curve"/>
      <point x="75" y="63"/>
      <point x="75" y="107"/>
      <point x="75" y="155" type="curve"/>
      <point x="75" y="511" type="line"/>
      <point x="75" y="559"/>
      <point x="75" y="603"/>
      <point x="115" y="638" type="curve"/>
      <point x="148" y="666"/>
      <point x="188" y="666"/>
    </contour>
    <contour>
      <point x="212" y="596" type="curve" smooth="yes"/>
      <point x="195" y="596"/>
      <point x="178" y="596"/>
      <point x="166" y="587" type="curve" smooth="yes"/>
      <point x="149" y="574"/>
      <point x="149" y="552"/>
      <point x="149" y="511" type="curve" smooth="yes"/>
      <point x="149" y="155" type="line" smooth="yes"/>
      <point x="149" y="114"/>
      <point x="149" y="92"/>
      <point x="166" y="79" type="curve" smooth="yes"/>
      <point x="178" y="70"/>
      <point x="195" y="70"/>
      <point x="212" y="70" type="curve" smooth="yes"/>
      <point x="268" y="70"/>
      <point x="346" y="70"/>
      <point x="393" y="117" type="curve" smooth="yes"/>
      <point x="441" y="165"/>
      <point x="441" y="237"/>
      <point x="441" y="333" type="curve" smooth="yes"/>
      <point x="441" y="429"/>
      <point x="441" y="501"/>
      <point x="393" y="549" type="curve" smooth="yes"/>
      <point x="346" y="596"/>
      <point x="268" y="596"/>
    </contour>
  </outline>
</glyph>
<glyph name="E" format="1">
  <advance width="510"/>
  <unicode hex="0045"/>
  <outline>
    <contour>
      <point x="0" y="0" type="move" name="DoubleTop"/>
    </contour>
    <contour>
      <point x="0" y="0" type="move" name="Apos"/>
    </contour>
    <contour>
      <point x="0" y="0" type="move" name="Center"/>
    </contour>
    <contour>
      <point x="255" y="0" type="move" name="Bottom"/>
    </contour>
    <contour>
      <point x="255" y="667" type="move" name="Top"/>
    </contour>
    <contour>
      <point x="149" y="378" type="line"/>
      <point x="385" y="379" type="line"/>
      <point x="385" y="309" type="line"/>
      <point x="149" y="308" type="line"/>
      <point x="149" y="155" type="line" smooth="yes"/>
      <point x="149" y="114"/>
      <point x="149" y="92"/>
      <point x="166" y="79" type="curve" smooth="yes"/>
      <point x="178" y="70"/>
      <point x="195" y="70"/>
      <point x="232" y="70" type="curve" smooth="yes"/>
      <point x="445" y="70" type="line"/>
      <point x="445" y="0" type="line"/>
      <point x="232" y="0" type="line" smooth="yes"/>
      <point x="188" y="0"/>
      <point x="148" y="0"/>
      <point x="115" y="28" type="curve" smooth="yes"/>
      <point x="75" y="63"/>
      <point x="75" y="107"/>
      <point x="75" y="155" type="curve" smooth="yes"/>
      <point x="75" y="511" type="line" smooth="yes"/>
      <point x="75" y="559"/>
      <point x="75" y="603"/>
      <point x="115" y="638" type="curve" smooth="yes"/>
      <point x="148" y="666"/>
      <point x="188" y="666"/>
      <point x="232" y="666" type="curve" smooth="yes"/>
      <point x="445" y="666" type="line"/>
      <point x="445" y="596" type="line"/>
      <point x="232" y="596" type="line" smooth="yes"/>
      <point x="195" y="596"/>
      <point x="178" y="596"/>
      <point x="166" y="587" type="curve" smooth="yes"/>
      <point x="149" y="574"/>
      <point x="149" y="552"/>
      <point x="149" y="511" type="curve" smooth="yes"/>
    </contour>
  </outline>
</glyph>
<glyph name="F" format="1">
  <advance width="495"/>
  <unicode hex="0046"/>
  <outline>
    <contour>
      <point x="232" y="666" type="curve" smooth="yes"/>
      <point x="435" y="666" type="line"/>
      <point x="435" y="596" type="line"/>
      <point x="232" y="596" type="line" smooth="yes"/>
      <point x="195" y="596"/>
      <point x="178" y="596"/>
      <point x="166" y="587" type="curve" smooth="yes"/>
      <point x="149" y="574"/>
      <point x="149" y="552"/>
      <point x="149" y="511" type="curve" smooth="yes"/>
      <point x="149" y="379" type="line"/>
      <point x="385" y="379" type="line"/>
      <point x="385" y="309" type="line"/>
      <point x="149" y="309" type="line"/>
      <point x="149" y="0" type="line"/>
      <point x="75" y="0" type="line"/>
      <point x="75" y="511" type="line" smooth="yes"/>
      <point x="75" y="559"/>
      <point x="75" y="603"/>
      <point x="115" y="638" type="curve" smooth="yes"/>
      <point x="148" y="666"/>
      <point x="188" y="666"/>
    </contour>
  </outline>
</glyph>
<glyph name="G" format="1">
  <advance width="580"/>
  <unicode hex="0047"/>
  <outline>
    <contour>
      <point x="0" y="0" type="move" name="DoubleTop"/>
    </contour>
    <contour>
      <point x="0" y="0" type="move" name="Apos"/>
    </contour>
    <contour>
      <point x="0" y="0" type="move" name="Center"/>
    </contour>
    <contour>
      <point x="290" y="0" type="move" name="Bottom"/>
    </contour>
    <contour>
      <point x="290" y="666" type="move" name="Top"/>
    </contour>
    <contour>
      <point x="290" y="672" type="curve" smooth="yes"/>
      <point x="352" y="672"/>
      <point x="416" y="651"/>
      <point x="465" y="611" type="curve"/>
      <point x="422" y="555" type="line"/>
      <point x="386" y="585"/>
      <point x="338" y="602"/>
      <point x="290" y="602" type="curve" smooth="yes"/>
      <point x="238.557" y="602"/>
      <point x="198.372" y="582.874"/>
      <point x="174" y="552" type="curve" smooth="yes"/>
      <point x="139" y="506"/>
      <point x="139" y="458"/>
      <point x="139" y="333" type="curve" smooth="yes"/>
      <point x="139" y="208"/>
      <point x="139" y="160"/>
      <point x="174" y="114" type="curve" smooth="yes"/>
      <point x="198.372" y="83.1262"/>
      <point x="238.557" y="64"/>
      <point x="290" y="64" type="curve" smooth="yes"/>
      <point x="341.443" y="64"/>
      <point x="381.628" y="83.126"/>
      <point x="406" y="114" type="curve" smooth="yes"/>
      <point x="436.341" y="153.877"/>
      <point x="440.38" y="195.257"/>
      <point x="440.917" y="287" type="curve"/>
      <point x="303" y="287" type="line"/>
      <point x="303" y="357" type="line"/>
      <point x="515" y="357" type="line"/>
      <point x="515" y="333" type="line" smooth="yes"/>
      <point x="515" y="204"/>
      <point x="515" y="137"/>
      <point x="467" y="74" type="curve" smooth="yes"/>
      <point x="431.801" y="29"/>
      <point x="373.472" y="-6"/>
      <point x="290" y="-6" type="curve" smooth="yes"/>
      <point x="206.528" y="-6"/>
      <point x="148.199" y="29"/>
      <point x="113" y="74" type="curve" smooth="yes"/>
      <point x="65" y="137"/>
      <point x="65" y="204"/>
      <point x="65" y="333" type="curve" smooth="yes"/>
      <point x="65" y="462"/>
      <point x="65" y="529"/>
      <point x="113" y="592" type="curve" smooth="yes"/>
      <point x="148.199" y="637"/>
      <point x="206.528" y="672"/>
    </contour>
  </outline>
</glyph>
<glyph name="K" format="1">
  <advance width="561"/>
  <unicode hex="004B"/>
  <outline>
    <contour>
      <point x="0" y="0" type="move" name="DoubleTop"/>
    </contour>
    <contour>
      <point x="0" y="0" type="move" name="Apos"/>
    </contour>
    <contour>
      <point x="-5" y="0" type="move" name="Top"/>
    </contour>
    <contour>
      <point x="-5" y="0" type="move" name="Center"/>
    </contour>
    <contour>
      <point x="285" y="0" type="move" name="Bottom"/>
    </contour>
    <contour>
      <point x="75" y="666" type="line"/>
      <point x="149" y="666" type="line"/>
      <point x="149" y="358" type="line"/>
      <point x="161" y="358"/>
      <point x="173" y="358"/>
      <point x="185" y="364" type="curve" smooth="yes"/>
      <point x="199" y="371"/>
      <point x="210" y="386"/>
      <point x="231" y="415" type="curve" smooth="yes"/>
      <point x="416" y="666" type="line"/>
      <point x="506" y="666" type="line"/>
      <point x="301" y="388" type="line" smooth="yes"/>
      <point x="292" y="375"/>
      <point x="279" y="356"/>
      <point x="268" y="343" type="curve"/>
      <point x="521" y="0" type="line"/>
      <point x="431" y="0" type="line"/>
      <point x="211" y="298" type="line"/>
      <point x="186" y="288"/>
      <point x="162" y="288"/>
      <point x="149" y="288" type="curve"/>
      <point x="149" y="0" type="line"/>
      <point x="75" y="0" type="line"/>
    </contour>
  </outline>
</glyph>
<glyph name="M" format="1">
  <advance width="806"/>
  <unicode hex="004D"/>
  <outline>
    <contour>
      <point x="260" y="672" type="curve" smooth="yes"/>
      <point x="324" y="672"/>
      <point x="378" y="645"/>
      <point x="406" y="592" type="curve"/>
      <point x="438" y="644"/>
      <point x="488" y="672"/>
      <point x="556" y="672" type="curve" smooth="yes"/>
      <point x="612" y="672"/>
      <point x="657" y="651"/>
      <point x="688" y="617" type="curve" smooth="yes"/>
      <point x="736" y="564"/>
      <point x="736" y="497"/>
      <point x="736" y="416" type="curve" smooth="yes"/>
      <point x="736" y="0" type="line"/>
      <point x="662" y="0" type="line"/>
      <point x="662" y="416" type="line" smooth="yes"/>
      <point x="662" y="492"/>
      <point x="662" y="534"/>
      <point x="634" y="568" type="curve" smooth="yes"/>
      <point x="616" y="590"/>
      <point x="586" y="602"/>
      <point x="551" y="602" type="curve" smooth="yes"/>
      <point x="516" y="602"/>
      <point x="486" y="590"/>
      <point x="468" y="568" type="curve" smooth="yes"/>
      <point x="440" y="534"/>
      <point x="440" y="492"/>
      <point x="440" y="416" type="curve" smooth="yes"/>
      <point x="440" y="0" type="line"/>
      <point x="366" y="0" type="line"/>
      <point x="366" y="416" type="line" smooth="yes"/>
      <point x="366" y="492"/>
      <point x="366" y="534"/>
      <point x="338" y="568" type="curve" smooth="yes"/>
      <point x="320" y="590"/>
      <point x="290" y="602"/>
      <point x="255" y="602" type="curve" smooth="yes"/>
      <point x="220" y="602"/>
      <point x="190" y="590"/>
      <point x="172" y="568" type="curve" smooth="yes"/>
      <point x="144" y="534"/>
      <point x="144" y="492"/>
      <point x="144" y="416" type="curve" smooth="yes"/>
      <point x="144" y="0" type="line"/>
      <point x="70" y="0" type="line"/>
      <point x="70" y="416" type="line" smooth="yes"/>
      <point x="70" y="497"/>
      <point x="70" y="566"/>
      <point x="120" y="617" type="curve" smooth="yes"/>
      <point x="153" y="651"/>
      <point x="200" y="672"/>
    </contour>
  </outline>
</glyph>
<glyph name="N" format="1">
  <advance width="554"/>
  <unicode hex="004E"/>
  <outline>
    <contour>
      <point x="-26" y="0" type="move" name="DoubleTop"/>
    </contour>
    <contour>
      <point x="-26" y="0" type="move" name="Apos"/>
    </contour>
    <contour>
      <point x="-29" y="0" type="move" name="Center"/>
    </contour>
    <contour>
      <point x="272" y="0" type="move" name="Bottom"/>
    </contour>
    <contour>
      <point x="272" y="667" type="move" name="Top"/>
    </contour>
    <contour>
      <point x="277" y="672" type="curve" smooth="yes"/>
      <point x="339" y="672"/>
      <point x="396" y="649"/>
      <point x="432" y="608" type="curve" smooth="yes"/>
      <point x="484" y="549"/>
      <point x="484" y="477"/>
      <point x="484" y="387" type="curve" smooth="yes"/>
      <point x="484" y="0" type="line"/>
      <point x="410" y="0" type="line"/>
      <point x="410" y="387" type="line" smooth="yes"/>
      <point x="410" y="468"/>
      <point x="410" y="524"/>
      <point x="376" y="562" type="curve" smooth="yes"/>
      <point x="352" y="589"/>
      <point x="316" y="602"/>
      <point x="277" y="602" type="curve" smooth="yes"/>
      <point x="238" y="602"/>
      <point x="202" y="589"/>
      <point x="178" y="562" type="curve" smooth="yes"/>
      <point x="144" y="524"/>
      <point x="144" y="468"/>
      <point x="144" y="387" type="curve" smooth="yes"/>
      <point x="144" y="0" type="line"/>
      <point x="70" y="0" type="line"/>
      <point x="70" y="387" type="line" smooth="yes"/>
      <point x="70" y="477"/>
      <point x="70" y="549"/>
      <point x="122" y="608" type="curve" smooth="yes"/>
      <point x="158" y="649"/>
      <point x="215" y="672"/>
    </contour>
  </outline>
</glyph>
<glyph name="P" format="1">
  <advance width="535"/>
  <unicode hex="0050"/>
  <outline>
    <contour>
      <point x="219" y="666" type="curve"/>
      <point x="288" y="666"/>
      <point x="357" y="666"/>
      <point x="418" y="611" type="curve" smooth="yes"/>
      <point x="467" y="567"/>
      <point x="485" y="504"/>
      <point x="485" y="451" type="curve" smooth="yes"/>
      <point x="485" y="398"/>
      <point x="467" y="335"/>
      <point x="418" y="291" type="curve" smooth="yes"/>
      <point x="357" y="236"/>
      <point x="283" y="236"/>
      <point x="204" y="236" type="curve" smooth="yes"/>
      <point x="149" y="236" type="line"/>
      <point x="149" y="0" type="line"/>
      <point x="75" y="0" type="line"/>
      <point x="75" y="511" type="line" smooth="yes"/>
      <point x="75" y="559"/>
      <point x="75" y="603"/>
      <point x="115" y="638" type="curve" smooth="yes"/>
      <point x="148" y="666"/>
      <point x="185" y="666"/>
    </contour>
    <contour>
      <point x="219" y="596" type="curve"/>
      <point x="192" y="596"/>
      <point x="178" y="596"/>
      <point x="166" y="587" type="curve" smooth="yes"/>
      <point x="149" y="574"/>
      <point x="149" y="552"/>
      <point x="149" y="511" type="curve" smooth="yes"/>
      <point x="149" y="306" type="line"/>
      <point x="204" y="306" type="line" smooth="yes"/>
      <point x="278" y="306"/>
      <point x="327" y="306"/>
      <point x="366" y="341" type="curve" smooth="yes"/>
      <point x="393" y="365"/>
      <point x="411" y="403"/>
      <point x="411" y="451" type="curve" smooth="yes"/>
      <point x="411" y="499"/>
      <point x="393" y="537"/>
      <point x="366" y="561" type="curve" smooth="yes"/>
      <point x="327" y="596"/>
      <point x="283" y="596"/>
    </contour>
  </outline>
</glyph>
<glyph name="Q" format="1">
  <advance width="584"/>
  <unicode hex="0051"/>
  <outline>
    <contour>
      <point x="65" y="333" type="curve" smooth="yes"/>
      <point x="65" y="451"/>
      <point x="65" y="514"/>
      <point x="101" y="573" type="curve" smooth="yes"/>
      <point x="138" y="634"/>
      <point x="208" y="672"/>
      <point x="292" y="672" type="curve" smooth="yes"/>
      <point x="376" y="672"/>
      <point x="446" y="634"/>
      <point x="483" y="573" type="curve" smooth="yes"/>
      <point x="519" y="514"/>
      <point x="519" y="451"/>
      <point x="519" y="333" type="curve" smooth="yes"/>
      <point x="519" y="215"/>
      <point x="519" y="152"/>
      <point x="483" y="93" type="curve" smooth="yes"/>
      <point x="469" y="70"/>
      <point x="450" y="50"/>
      <point x="427" y="34" type="curve"/>
      <point x="532" y="-36" type="line"/>
      <point x="495" y="-95" type="line"/>
      <point x="353" y="1" type="line"/>
      <point x="334" y="-4"/>
      <point x="313" y="-6"/>
      <point x="292" y="-6" type="curve" smooth="yes"/>
      <point x="208" y="-6"/>
      <point x="138" y="32"/>
      <point x="101" y="93" type="curve" smooth="yes"/>
      <point x="65" y="152"/>
      <point x="65" y="215"/>
    </contour>
    <contour>
      <point x="139" y="333" type="curve" smooth="yes"/>
      <point x="139" y="231"/>
      <point x="139" y="171"/>
      <point x="165" y="128" type="curve" smooth="yes"/>
      <point x="189" y="88"/>
      <point x="236" y="64"/>
      <point x="292" y="64" type="curve" smooth="yes"/>
      <point x="348" y="64"/>
      <point x="395" y="88"/>
      <point x="419" y="128" type="curve" smooth="yes"/>
      <point x="445" y="171"/>
      <point x="445" y="231"/>
      <point x="445" y="333" type="curve" smooth="yes"/>
      <point x="445" y="435"/>
      <point x="445" y="495"/>
      <point x="419" y="538" type="curve" smooth="yes"/>
      <point x="395" y="578"/>
      <point x="348" y="602"/>
      <point x="292" y="602" type="curve" smooth="yes"/>
      <point x="236" y="602"/>
      <point x="189" y="578"/>
      <point x="165" y="538" type="curve" smooth="yes"/>
      <point x="139" y="495"/>
      <point x="139" y="435"/>
    </contour>
  </outline>
</glyph>
<glyph name="R" format="1">
  <advance width="550"/>
  <unicode hex="0052"/>
  <outline>
    <contour>
      <point x="0" y="0" type="move" name="DoubleTop"/>
    </contour>
    <contour>
      <point x="0" y="0" type="move" name="Apos"/>
    </contour>
    <contour>
      <point x="-5" y="0" type="move" name="Center"/>
    </contour>
    <contour>
      <point x="277" y="0" type="move" name="Bottom"/>
    </contour>
    <contour>
      <point x="255" y="667" type="move" name="Top"/>
    </contour>
    <contour>
      <point x="227" y="596" type="curve"/>
      <point x="195" y="596"/>
      <point x="178" y="596"/>
      <point x="166" y="587" type="curve" smooth="yes"/>
      <point x="149" y="574"/>
      <point x="149" y="552"/>
      <point x="149" y="511" type="curve" smooth="yes"/>
      <point x="149" y="326" type="line"/>
      <point x="218" y="326" type="line" smooth="yes"/>
      <point x="293" y="326"/>
      <point x="339" y="326"/>
      <point x="377" y="361" type="curve" smooth="yes"/>
      <point x="403" y="385"/>
      <point x="416" y="423"/>
      <point x="416" y="461" type="curve" smooth="yes"/>
      <point x="416" y="499"/>
      <point x="403" y="537"/>
      <point x="377" y="561" type="curve" smooth="yes"/>
      <point x="339" y="596"/>
      <point x="292" y="596"/>
    </contour>
    <contour>
      <point x="227" y="666" type="curve"/>
      <point x="296" y="666"/>
      <point x="370" y="666"/>
      <point x="429" y="611" type="curve" smooth="yes"/>
      <point x="466" y="576"/>
      <point x="490" y="524"/>
      <point x="490" y="461" type="curve" smooth="yes"/>
      <point x="490" y="374"/>
      <point x="444" y="308"/>
      <point x="382" y="279" type="curve"/>
      <point x="500" y="0" type="line"/>
      <point x="420" y="0" type="line"/>
      <point x="312" y="259" type="line"/>
      <point x="290" y="256"/>
      <point x="268" y="256"/>
      <point x="218" y="256" type="curve" smooth="yes"/>
      <point x="149" y="256" type="line"/>
      <point x="149" y="0" type="line"/>
      <point x="75" y="0" type="line"/>
      <point x="75" y="511" type="line" smooth="yes"/>
      <point x="75" y="559"/>
      <point x="75" y="603"/>
      <point x="115" y="638" type="curve" smooth="yes"/>
      <point x="148" y="666"/>
      <point x="188" y="666"/>
    </contour>
  </outline>
</glyph>
<glyph name="T" format="1">
  <advance width="530"/>
  <unicode hex="0054"/>
  <outline>
    <contour>
      <point x="-15" y="0" type="move" name="DoubleTop"/>
    </contour>
    <contour>
      <point x="-15" y="0" type="move" name="Apos"/>
    </contour>
    <contour>
      <point x="20" y="0" type="move" name="Center"/>
    </contour>
    <contour>
      <point x="265" y="0" type="move" name="Bottom"/>
    </contour>
    <contour>
      <point x="265" y="666" type="move" name="Top"/>
    </contour>
    <contour>
      <point x="40" y="666" type="line"/>
      <point x="490" y="666" type="line"/>
      <point x="490" y="596" type="line"/>
      <point x="302" y="596" type="line"/>
      <point x="302" y="0" type="line"/>
      <point x="228" y="0" type="line"/>
      <point x="228" y="596" type="line"/>
      <point x="40" y="596" type="line"/>
    </contour>
  </outline>
</glyph>
<glyph name="U" format="1">
  <advance width="554"/>
  <unicode hex="0055"/>
  <outline>
    <contour>
      <point x="70" y="666" type="line"/>
      <point x="144" y="666" type="line"/>
      <point x="144" y="279" type="line" smooth="yes"/>
      <point x="144" y="198"/>
      <point x="144" y="142"/>
      <point x="178" y="104" type="curve" smooth="yes"/>
      <point x="202" y="77"/>
      <point x="238" y="64"/>
      <point x="277" y="64" type="curve" smooth="yes"/>
      <point x="316" y="64"/>
      <point x="352" y="77"/>
      <point x="376" y="104" type="curve" smooth="yes"/>
      <point x="410" y="142"/>
      <point x="410" y="198"/>
      <point x="410" y="279" type="curve" smooth="yes"/>
      <point x="410" y="666" type="line"/>
      <point x="484" y="666" type="line"/>
      <point x="484" y="279" type="line" smooth="yes"/>
      <point x="484" y="189"/>
      <point x="484" y="117"/>
      <point x="432" y="58" type="curve" smooth="yes"/>
      <point x="396" y="17"/>
      <point x="339" y="-6"/>
      <point x="277" y="-6" type="curve" smooth="yes"/>
      <point x="215" y="-6"/>
      <point x="158" y="17"/>
      <point x="122" y="58" type="curve" smooth="yes"/>
      <point x="70" y="117"/>
      <point x="70" y="189"/>
      <point x="70" y="279" type="curve" smooth="yes"/>
    </contour>
  </outline>
</glyph>
<glyph name="V" format="1">
  <advance width="556"/>
  <unicode hex="0056"/>
  <outline>
    <contour>
      <point x="111" y="666" type="line"/>
      <point x="238" y="130" type="line" smooth="yes"/>
      <point x="247" y="93"/>
      <point x="250" y="78"/>
      <point x="257" y="72" type="curve" smooth="yes"/>
      <point x="264" y="66"/>
      <point x="270" y="64"/>
      <point x="278" y="64" type="curve" smooth="yes"/>
      <point x="286" y="64"/>
      <point x="292" y="66"/>
      <point x="299" y="72" type="curve" smooth="yes"/>
      <point x="306" y="78"/>
      <point x="309" y="93"/>
      <point x="318" y="130" type="curve" smooth="yes"/>
      <point x="445" y="666" type="line"/>
      <point x="521" y="666" type="line"/>
      <point x="390" y="114" type="line" smooth="yes"/>
      <point x="375" y="52"/>
      <point x="371" y="41"/>
      <point x="351" y="22" type="curve" smooth="yes"/>
      <point x="331" y="3"/>
      <point x="304" y="-6"/>
      <point x="278" y="-6" type="curve" smooth="yes"/>
      <point x="252" y="-6"/>
      <point x="225" y="3"/>
      <point x="205" y="22" type="curve" smooth="yes"/>
      <point x="185" y="41"/>
      <point x="181" y="52"/>
      <point x="166" y="114" type="curve" smooth="yes"/>
      <point x="35" y="666" type="line"/>
    </contour>
  </outline>
</glyph>
<glyph name="W" format="1">
  <advance width="806"/>
  <unicode hex="0057"/>
  <outline>
    <contour>
      <point x="23" y="0" type="move" name="DoubleTop"/>
    </contour>
    <contour>
      <point x="23" y="0" type="move" name="Apos"/>
    </contour>
    <contour>
      <point x="33" y="0" type="move" name="Bottom"/>
    </contour>
    <contour>
      <point x="33" y="0" type="move" name="Center"/>
    </contour>
    <contour>
      <point x="423" y="667" type="move" name="Top"/>
    </contour>
    <contour>
      <point x="70" y="666" type="line"/>
      <point x="144" y="666" type="line"/>
      <point x="144" y="250" type="line" smooth="yes"/>
      <point x="144" y="174"/>
      <point x="144" y="132"/>
      <point x="172" y="98" type="curve" smooth="yes"/>
      <point x="190" y="76"/>
      <point x="220" y="64"/>
      <point x="255" y="64" type="curve" smooth="yes"/>
      <point x="290" y="64"/>
      <point x="320" y="76"/>
      <point x="338" y="98" type="curve" smooth="yes"/>
      <point x="366" y="132"/>
      <point x="366" y="174"/>
      <point x="366" y="250" type="curve" smooth="yes"/>
      <point x="366" y="666" type="line"/>
      <point x="440" y="666" type="line"/>
      <point x="440" y="250" type="line" smooth="yes"/>
      <point x="440" y="174"/>
      <point x="440" y="132"/>
      <point x="468" y="98" type="curve" smooth="yes"/>
      <point x="486" y="76"/>
      <point x="516" y="64"/>
      <point x="551" y="64" type="curve" smooth="yes"/>
      <point x="586" y="64"/>
      <point x="616" y="76"/>
      <point x="634" y="98" type="curve" smooth="yes"/>
      <point x="662" y="132"/>
      <point x="662" y="174"/>
      <point x="662" y="250" type="curve" smooth="yes"/>
      <point x="662" y="666" type="line"/>
      <point x="736" y="666" type="line"/>
      <point x="736" y="250" type="line" smooth="yes"/>
      <point x="736" y="169"/>
      <point x="736" y="102"/>
      <point x="687" y="49" type="curve" smooth="yes"/>
      <point x="655" y="15"/>
      <point x="609" y="-6"/>
      <point x="551" y="-6" type="curve" smooth="yes"/>
      <point x="485.27" y="-6"/>
      <point x="433.774" y="20.5117"/>
      <point x="403" y="73.5479" type="curve"/>
      <point x="372.209" y="21.4893"/>
      <point x="320.744" y="-6"/>
      <point x="255" y="-6" type="curve" smooth="yes"/>
      <point x="197" y="-6"/>
      <point x="151" y="15"/>
      <point x="119" y="49" type="curve" smooth="yes"/>
      <point x="70" y="102"/>
      <point x="70" y="169"/>
      <point x="70" y="250" type="curve" smooth="yes"/>
    </contour>
  </outline>
</glyph>
<glyph name="X" format="1">
  <advance width="540"/>
  <unicode hex="0058"/>
  <outline>
    <contour>
      <point x="45" y="666" type="line"/>
      <point x="128" y="666" type="line"/>
      <point x="270" y="398" type="line"/>
      <point x="412" y="666" type="line"/>
      <point x="495" y="666" type="line"/>
      <point x="316" y="338" type="line"/>
      <point x="500" y="0" type="line"/>
      <point x="417" y="0" type="line"/>
      <point x="270" y="278" type="line"/>
      <point x="123" y="0" type="line"/>
      <point x="40" y="0" type="line"/>
      <point x="224" y="338" type="line"/>
    </contour>
  </outline>
</glyph>
<glyph name="Y" format="1">
  <advance width="510"/>
  <unicode hex="0059"/>
  <outline>
    <contour>
      <point x="8.28027" y="0" type="move" name="DoubleTop"/>
    </contour>
    <contour>
      <point x="8.28027" y="0" type="move" name="Apos"/>
    </contour>
    <contour>
      <point x="18.2803" y="0" type="move" name="Bottom"/>
    </contour>
    <contour>
      <point x="18.2803" y="0" type="move" name="Center"/>
    </contour>
    <contour>
      <point x="278.28" y="667" type="move" name="Top"/>
    </contour>
    <contour>
      <point x="255" y="374" type="curve" smooth="yes"/>
      <point x="260" y="374"/>
      <point x="265" y="375"/>
      <point x="271" y="381" type="curve" smooth="yes"/>
      <point x="278" y="388"/>
      <point x="285" y="399"/>
      <point x="311" y="452" type="curve" smooth="yes"/>
      <point x="409" y="666" type="line"/>
      <point x="490" y="666" type="line"/>
      <point x="375" y="423" type="line" smooth="yes"/>
      <point x="339" y="351"/>
      <point x="328" y="326"/>
      <point x="292" y="309" type="curve"/>
      <point x="292" y="0" type="line"/>
      <point x="218" y="0" type="line"/>
      <point x="218" y="309" type="line"/>
      <point x="182" y="326"/>
      <point x="171" y="351"/>
      <point x="135" y="423" type="curve" smooth="yes"/>
      <point x="20" y="666" type="line"/>
      <point x="101" y="666" type="line"/>
      <point x="199" y="452" type="line" smooth="yes"/>
      <point x="225" y="399"/>
      <point x="232" y="388"/>
      <point x="239" y="381" type="curve" smooth="yes"/>
      <point x="245" y="375"/>
      <point x="250" y="374"/>
    </contour>
  </outline>
</glyph>
<glyph name="Z" format="1">
  <advance width="530"/>
  <unicode hex="005A"/>
  <outline>
    <contour>
      <point x="0" y="0" type="move" name="DoubleTop"/>
    </contour>
    <contour>
      <point x="0" y="0" type="move" name="Apos"/>
    </contour>
    <contour>
      <point x="5" y="0" type="move" name="Center"/>
    </contour>
    <contour>
      <point x="270" y="0" type="move" name="Bottom"/>
    </contour>
    <contour>
      <point x="270" y="667" type="move" name="Top"/>
    </contour>
    <contour>
      <point x="70" y="596" type="line"/>
      <point x="70" y="666" type="line"/>
      <point x="311" y="666" type="line" smooth="yes"/>
      <point x="363" y="666"/>
      <point x="404" y="666"/>
      <point x="435" y="638" type="curve" smooth="yes"/>
      <point x="454" y="621"/>
      <point x="468" y="598"/>
      <point x="468" y="566" type="curve" smooth="yes"/>
      <point x="468" y="521"/>
      <point x="446" y="496"/>
      <point x="398" y="440" type="curve" smooth="yes"/>
      <point x="180" y="182" type="line" smooth="yes"/>
      <point x="135" y="129"/>
      <point x="126" y="119"/>
      <point x="126" y="100" type="curve" smooth="yes"/>
      <point x="126" y="89"/>
      <point x="131" y="82"/>
      <point x="137" y="78" type="curve" smooth="yes"/>
      <point x="149" y="70"/>
      <point x="163" y="70"/>
      <point x="210" y="70" type="curve" smooth="yes"/>
      <point x="470" y="70" type="line"/>
      <point x="470" y="0" type="line"/>
      <point x="209" y="0" type="line" smooth="yes"/>
      <point x="159" y="0"/>
      <point x="116" y="0"/>
      <point x="86" y="27" type="curve" smooth="yes"/>
      <point x="65" y="46"/>
      <point x="52" y="68"/>
      <point x="52" y="100" type="curve" smooth="yes"/>
      <point x="52" y="141"/>
      <point x="70" y="164"/>
      <point x="118" y="221" type="curve" smooth="yes"/>
      <point x="353" y="499" type="line" smooth="yes"/>
      <point x="385" y="537"/>
      <point x="394" y="547"/>
      <point x="394" y="566" type="curve" smooth="yes"/>
      <point x="394" y="577"/>
      <point x="389" y="584"/>
      <point x="382" y="589" type="curve" smooth="yes"/>
      <point x="371" y="596"/>
      <point x="352" y="596"/>
      <point x="310" y="596" type="curve" smooth="yes"/>
    </contour>
  </outline>
</glyph>
<glyph name="bracketleft" format="1">
  <advance width="289"/>
  <unicode hex="005B"/>
  <outline>
    <contour>
      <point x="85" y="780" type="line"/>
      <point x="239" y="780" type="line"/>
      <point x="239" y="724" type="line"/>
      <point x="145" y="724" type="line"/>
      <point x="145" y="-129" type="line"/>
      <point x="239" y="-129" type="line"/>
      <point x="239" y="-185" type="line"/>
      <point x="85" y="-185" type="line"/>
    </contour>
  </outline>
</glyph>
<glyph name="bracketright" format="1">
  <advance width="289"/>
  <unicode hex="005D"/>
  <outline>
    <contour>
      <point x="50" y="780" type="line"/>
      <point x="204" y="780" type="line"/>
      <point x="204" y="-185" type="line"/>
      <point x="50" y="-185" type="line"/>
      <point x="50" y="-129" type="line"/>
      <point x="144" y="-129" type="line"/>
      <point x="144" y="724" type="line"/>
      <point x="50" y="724" type="line"/>
    </contour>
  </outline>
</glyph>
<glyph name="asciicircum" format="1">
  <advance width="368"/>
  <unicode hex="005E"/>
  <outline>
    <contour>
      <point x="184" y="477" type="move" name="_Top"/>
    </contour>
    <contour>
      <point x="145" y="666" type="line"/>
      <point x="223" y="666" type="line"/>
      <point x="318" y="546" type="line"/>
      <point x="252" y="546" type="line"/>
      <point x="184" y="622" type="line"/>
      <point x="116" y="546" type="line"/>
      <point x="50" y="546" type="line"/>
    </contour>
  </outline>
</glyph>
<glyph name="grave" format="1">
  <advance width="253"/>
  <unicode hex="0060"/>
  <outline>
    <contour>
      <point x="157" y="477" type="move" name="_Top"/>
    </contour>
    <contour>
      <point x="50" y="666" type="line"/>
      <point x="128" y="666" type="line"/>
      <point x="203" y="546" type="line"/>
      <point x="137" y="546" type="line"/>
    </contour>
  </outline>
</glyph>
<glyph name="a" format="1">
  <advance width="438"/>
  <unicode hex="0061"/>
  <outline>
    <contour>
      <point x="-5" y="0" type="move" name="DoubleTop"/>
    </contour>
    <contour>
      <point x="-5" y="0" type="move" name="Apos"/>
    </contour>
    <contour>
      <point x="-5" y="0" type="move" name="Center"/>
    </contour>
    <contour>
      <point x="213" y="0" type="move" name="Bottom"/>
    </contour>
    <contour>
      <point x="218" y="477" type="move" name="Top"/>
    </contour>
    <contour>
      <point x="388" y="200" type="line" smooth="yes"/>
      <point x="388" y="133"/>
      <point x="388" y="87"/>
      <point x="353" y="46" type="curve" smooth="yes"/>
      <point x="323" y="11"/>
      <point x="276" y="-6"/>
      <point x="216" y="-6" type="curve" smooth="yes"/>
      <point x="168" y="-6"/>
      <point x="127" y="4"/>
      <point x="95" y="27" type="curve" smooth="yes"/>
      <point x="62" y="50"/>
      <point x="35" y="90"/>
      <point x="35" y="142" type="curve" smooth="yes"/>
      <point x="35" y="195"/>
      <point x="62" y="234"/>
      <point x="94" y="257" type="curve" smooth="yes"/>
      <point x="141" y="291"/>
      <point x="197" y="291"/>
      <point x="236" y="291" type="curve" smooth="yes"/>
      <point x="318" y="291" type="line"/>
      <point x="318" y="322"/>
      <point x="318" y="362"/>
      <point x="294" y="389" type="curve" smooth="yes"/>
      <point x="277" y="408"/>
      <point x="251" y="418"/>
      <point x="213" y="418" type="curve" smooth="yes"/>
      <point x="169" y="418"/>
      <point x="125" y="408"/>
      <point x="83" y="392" type="curve"/>
      <point x="61" y="455" type="line"/>
      <point x="108" y="472"/>
      <point x="159" y="484"/>
      <point x="213" y="484" type="curve" smooth="yes"/>
      <point x="273" y="484"/>
      <point x="318" y="465"/>
      <point x="348" y="431" type="curve" smooth="yes"/>
      <point x="388" y="386"/>
      <point x="388" y="327"/>
      <point x="388" y="274" type="curve" smooth="yes"/>
    </contour>
    <contour>
      <point x="318" y="200" type="curve" smooth="yes"/>
      <point x="318" y="229" type="line"/>
      <point x="236" y="229" type="line" smooth="yes"/>
      <point x="202" y="229"/>
      <point x="166" y="229"/>
      <point x="138" y="209" type="curve" smooth="yes"/>
      <point x="120" y="196"/>
      <point x="105" y="173"/>
      <point x="105" y="142" type="curve" smooth="yes"/>
      <point x="105" y="114"/>
      <point x="119" y="92"/>
      <point x="137" y="79" type="curve" smooth="yes"/>
      <point x="156" y="66"/>
      <point x="184" y="60"/>
      <point x="216" y="60" type="curve" smooth="yes"/>
      <point x="253" y="60"/>
      <point x="282" y="68"/>
      <point x="299" y="88" type="curve" smooth="yes"/>
      <point x="318" y="110"/>
      <point x="318" y="141"/>
    </contour>
  </outline>
</glyph>
<glyph name="b" format="1">
  <advance width="470"/>
  <unicode hex="0062"/>
  <outline>
    <contour>
      <point x="240" y="418" type="curve" smooth="yes"/>
      <point x="202" y="418"/>
      <point x="173" y="404"/>
      <point x="155" y="383" type="curve" smooth="yes"/>
      <point x="125" y="348"/>
      <point x="125" y="293"/>
      <point x="125" y="219" type="curve" smooth="yes"/>
      <point x="125" y="166"/>
      <point x="125" y="123"/>
      <point x="149" y="94" type="curve" smooth="yes"/>
      <point x="169" y="70"/>
      <point x="199" y="60"/>
      <point x="230" y="60" type="curve" smooth="yes"/>
      <point x="264" y="60"/>
      <point x="298" y="72"/>
      <point x="320" y="96" type="curve" smooth="yes"/>
      <point x="355" y="134"/>
      <point x="355" y="186"/>
      <point x="355" y="237" type="curve" smooth="yes"/>
      <point x="355" y="293"/>
      <point x="355" y="348"/>
      <point x="325" y="383" type="curve" smooth="yes"/>
      <point x="307" y="404"/>
      <point x="278" y="418"/>
    </contour>
    <contour>
      <point x="245" y="484" type="curve" smooth="yes"/>
      <point x="304" y="484"/>
      <point x="351" y="460"/>
      <point x="380" y="425" type="curve" smooth="yes"/>
      <point x="425" y="371"/>
      <point x="425" y="305"/>
      <point x="425" y="237" type="curve" smooth="yes"/>
      <point x="425" y="176"/>
      <point x="425" y="106"/>
      <point x="369" y="49" type="curve" smooth="yes"/>
      <point x="338" y="18"/>
      <point x="290" y="-6"/>
      <point x="230" y="-6" type="curve" smooth="yes"/>
      <point x="167" y="-6"/>
      <point x="117" y="21"/>
      <point x="89" y="60" type="curve" smooth="yes"/>
      <point x="55" y="107"/>
      <point x="55" y="157"/>
      <point x="55" y="232" type="curve" smooth="yes"/>
      <point x="55" y="666" type="line"/>
      <point x="125" y="666" type="line"/>
      <point x="125" y="423" type="line"/>
      <point x="152" y="461"/>
      <point x="196" y="484"/>
    </contour>
  </outline>
</glyph>
<glyph name="c" format="1">
  <advance width="419"/>
  <unicode hex="0063"/>
  <outline>
    <contour>
      <point x="-10" y="0" type="move" name="DoubleTop"/>
    </contour>
    <contour>
      <point x="-10" y="0" type="move" name="Apos"/>
    </contour>
    <contour>
      <point x="-5" y="0" type="move" name="Center"/>
    </contour>
    <contour>
      <point x="235" y="0" type="move" name="Bottom"/>
    </contour>
    <contour>
      <point x="235" y="478" type="move" name="Top"/>
    </contour>
    <contour>
      <point x="343" y="93" type="curve"/>
      <point x="379" y="37" type="line"/>
      <point x="337" y="9"/>
      <point x="286" y="-6"/>
      <point x="235" y="-6" type="curve" smooth="yes"/>
      <point x="171" y="-6"/>
      <point x="124.062" y="18.0547"/>
      <point x="93" y="53" type="curve" smooth="yes"/>
      <point x="45" y="107"/>
      <point x="45" y="184"/>
      <point x="45" y="243" type="curve" smooth="yes"/>
      <point x="45" y="295"/>
      <point x="45" y="370"/>
      <point x="92" y="424" type="curve" smooth="yes"/>
      <point x="123" y="460"/>
      <point x="171" y="484"/>
      <point x="235" y="484" type="curve" smooth="yes"/>
      <point x="283" y="484"/>
      <point x="331" y="471"/>
      <point x="372" y="445" type="curve"/>
      <point x="338" y="388" type="line"/>
      <point x="308" y="407"/>
      <point x="271" y="418"/>
      <point x="235" y="418" type="curve" smooth="yes"/>
      <point x="204" y="418"/>
      <point x="170" y="410"/>
      <point x="146" y="382" type="curve" smooth="yes"/>
      <point x="115" y="346"/>
      <point x="115" y="287"/>
      <point x="115" y="243" type="curve" smooth="yes"/>
      <point x="115" y="192"/>
      <point x="115" y="132"/>
      <point x="147" y="95" type="curve" smooth="yes"/>
      <point x="166.016" y="73.0137"/>
      <point x="196" y="60"/>
      <point x="235" y="60" type="curve" smooth="yes"/>
      <point x="273" y="60"/>
      <point x="311" y="71"/>
    </contour>
  </outline>
</glyph>
<glyph name="d" format="1">
  <advance width="470"/>
  <unicode hex="0064"/>
  <outline>
    <contour>
      <point x="-10" y="0" type="move" name="DoubleTop"/>
    </contour>
    <contour>
      <point x="-10" y="0" type="move" name="Center"/>
    </contour>
    <contour>
      <point x="-10" y="0" type="move" name="Top"/>
    </contour>
    <contour>
      <point x="478" y="667" type="move" name="Apos"/>
    </contour>
    <contour>
      <point x="230" y="0" type="move" name="Bottom"/>
    </contour>
    <contour>
      <point x="225" y="484" type="curve" smooth="yes"/>
      <point x="274" y="484"/>
      <point x="318" y="461"/>
      <point x="345" y="423" type="curve"/>
      <point x="345" y="666" type="line"/>
      <point x="415" y="666" type="line"/>
      <point x="415" y="521.333"/>
      <point x="415" y="376.667"/>
      <point x="415" y="232" type="curve" smooth="yes"/>
      <point x="415" y="157"/>
      <point x="415" y="107"/>
      <point x="381" y="60" type="curve" smooth="yes"/>
      <point x="353" y="21"/>
      <point x="303" y="-6"/>
      <point x="240" y="-6" type="curve" smooth="yes"/>
      <point x="180" y="-6"/>
      <point x="132" y="18"/>
      <point x="101" y="49" type="curve" smooth="yes"/>
      <point x="45" y="106"/>
      <point x="45" y="176"/>
      <point x="45" y="237" type="curve" smooth="yes"/>
      <point x="45" y="305"/>
      <point x="45" y="371"/>
      <point x="90" y="425" type="curve" smooth="yes"/>
      <point x="119" y="460"/>
      <point x="166" y="484"/>
    </contour>
    <contour>
      <point x="345" y="219" type="curve" smooth="yes"/>
      <point x="345" y="293"/>
      <point x="345" y="348"/>
      <point x="315" y="383" type="curve" smooth="yes"/>
      <point x="297" y="404"/>
      <point x="268" y="418"/>
      <point x="230" y="418" type="curve" smooth="yes"/>
      <point x="192" y="418"/>
      <point x="163" y="404"/>
      <point x="145" y="383" type="curve" smooth="yes"/>
      <point x="115" y="348"/>
      <point x="115" y="293"/>
      <point x="115" y="237" type="curve" smooth="yes"/>
      <point x="115" y="186"/>
      <point x="115" y="134"/>
      <point x="150" y="96" type="curve" smooth="yes"/>
      <point x="172" y="72"/>
      <point x="206" y="60"/>
      <point x="240" y="60" type="curve" smooth="yes"/>
      <point x="271" y="60"/>
      <point x="301" y="70"/>
      <point x="321" y="94" type="curve" smooth="yes"/>
      <point x="345" y="123"/>
      <point x="345" y="166"/>
    </contour>
  </outline>
</glyph>
<glyph name="f" format="1">
  <advance width="313"/>
  <unicode hex="0066"/>
  <outline>
    <contour>
      <point x="208" y="672" type="curve" smooth="yes"/>
      <point x="236" y="672"/>
      <point x="261" y="666"/>
      <point x="285" y="660" type="curve"/>
      <point x="269" y="596" type="line"/>
      <point x="245" y="602"/>
      <point x="225" y="606"/>
      <point x="208" y="606" type="curve" smooth="yes"/>
      <point x="182" y="606"/>
      <point x="163" y="597"/>
      <point x="150" y="579" type="curve" smooth="yes"/>
      <point x="135" y="558"/>
      <point x="135" y="529"/>
      <point x="135" y="478" type="curve"/>
      <point x="255" y="478" type="line"/>
      <point x="255" y="416" type="line"/>
      <point x="135" y="416" type="line"/>
      <point x="135" y="0" type="line"/>
      <point x="65" y="0" type="line"/>
      <point x="65" y="476" type="line" smooth="yes"/>
      <point x="65" y="536"/>
      <point x="65" y="579"/>
      <point x="93" y="617" type="curve" smooth="yes"/>
      <point x="116" y="648"/>
      <point x="152" y="672"/>
    </contour>
  </outline>
</glyph>
<glyph name="g" format="1">
  <advance width="470"/>
  <unicode hex="0067"/>
  <outline>
    <contour>
      <point x="-10" y="0" type="move" name="DoubleTop"/>
    </contour>
    <contour>
      <point x="-10" y="0" type="move" name="Apos"/>
    </contour>
    <contour>
      <point x="-10" y="0" type="move" name="Center"/>
    </contour>
    <contour>
      <point x="230" y="-185" type="move" name="Bottom"/>
    </contour>
    <contour>
      <point x="230" y="477" type="move" name="Top"/>
    </contour>
    <contour>
      <point x="232" y="418" type="curve" smooth="yes"/>
      <point x="195" y="418"/>
      <point x="165" y="405"/>
      <point x="147" y="385" type="curve" smooth="yes"/>
      <point x="115" y="349"/>
      <point x="115" y="298"/>
      <point x="115" y="241" type="curve" smooth="yes"/>
      <point x="115" y="185"/>
      <point x="115" y="130"/>
      <point x="145" y="95" type="curve" smooth="yes"/>
      <point x="163" y="74"/>
      <point x="192" y="60"/>
      <point x="230" y="60" type="curve" smooth="yes"/>
      <point x="268" y="60"/>
      <point x="297" y="74"/>
      <point x="315" y="95" type="curve" smooth="yes"/>
      <point x="345" y="130"/>
      <point x="345" y="185"/>
      <point x="345" y="259" type="curve" smooth="yes"/>
      <point x="345" y="312"/>
      <point x="345" y="354"/>
      <point x="321" y="382" type="curve" smooth="yes"/>
      <point x="302" y="405"/>
      <point x="268" y="418"/>
    </contour>
    <contour>
      <point x="232" y="484" type="curve" smooth="yes"/>
      <point x="278" y="484"/>
      <point x="336" y="470"/>
      <point x="375" y="424" type="curve" smooth="yes"/>
      <point x="415" y="377"/>
      <point x="415" y="330"/>
      <point x="415" y="249" type="curve" smooth="yes"/>
      <point x="415" y="45" type="line" smooth="yes"/>
      <point x="415" y="-26"/>
      <point x="415" y="-81"/>
      <point x="369" y="-131" type="curve" smooth="yes"/>
      <point x="337" y="-166"/>
      <point x="286" y="-189"/>
      <point x="220" y="-189" type="curve" smooth="yes"/>
      <point x="171" y="-189"/>
      <point x="118" y="-177"/>
      <point x="74" y="-153" type="curve"/>
      <point x="103" y="-93" type="line"/>
      <point x="136" y="-111"/>
      <point x="178" y="-123"/>
      <point x="220" y="-123" type="curve" smooth="yes"/>
      <point x="269" y="-123"/>
      <point x="302" y="-106"/>
      <point x="321" y="-82" type="curve" smooth="yes"/>
      <point x="345" y="-52"/>
      <point x="345" y="-16"/>
      <point x="345" y="45" type="curve" smooth="yes"/>
      <point x="345" y="55" type="line"/>
      <point x="318" y="17"/>
      <point x="274" y="-6"/>
      <point x="225" y="-6" type="curve" smooth="yes"/>
      <point x="166" y="-6"/>
      <point x="119" y="18"/>
      <point x="90" y="53" type="curve" smooth="yes"/>
      <point x="45" y="107"/>
      <point x="45" y="173"/>
      <point x="45" y="241" type="curve" smooth="yes"/>
      <point x="45" y="303"/>
      <point x="45" y="373"/>
      <point x="93" y="427" type="curve" smooth="yes"/>
      <point x="124" y="461"/>
      <point x="172" y="484"/>
    </contour>
  </outline>
</glyph>
<glyph name="i" format="1">
  <advance width="200"/>
  <unicode hex="0069"/>
  <outline>
    <contour>
      <point x="13" y="23" type="move" name="Top"/>
    </contour>
    <contour>
      <point x="97" y="0" type="move" name="Bottom"/>
    </contour>
    <contour>
      <point x="-6" y="0" type="move" name="Center"/>
    </contour>
    <contour>
      <point x="-6" y="0" type="move" name="Apos"/>
    </contour>
    <contour>
      <point x="-6" y="0" type="move" name="DoubleTop"/>
    </contour>
    <contour>
      <point x="100" y="649" type="curve" smooth="yes"/>
      <point x="127" y="649"/>
      <point x="147" y="630"/>
      <point x="147" y="602" type="curve" smooth="yes"/>
      <point x="147" y="574"/>
      <point x="127" y="555"/>
      <point x="100" y="555" type="curve" smooth="yes"/>
      <point x="73" y="555"/>
      <point x="53" y="574"/>
      <point x="53" y="602" type="curve" smooth="yes"/>
      <point x="53" y="630"/>
      <point x="73" y="649"/>
    </contour>
    <contour>
      <point x="65" y="0" type="line"/>
      <point x="65" y="478" type="line"/>
      <point x="135" y="478" type="line"/>
      <point x="135" y="0" type="line"/>
    </contour>
  </outline>
</glyph>
<glyph name="j" format="1">
  <advance width="200"/>
  <unicode hex="006A"/>
  <outline>
    <contour>
      <point x="135" y="-24" type="line" smooth="yes"/>
      <point x="135" y="-78"/>
      <point x="135" y="-113"/>
      <point x="109" y="-146" type="curve" smooth="yes"/>
      <point x="89" y="-171"/>
      <point x="57" y="-189"/>
      <point x="14" y="-189" type="curve" smooth="yes"/>
      <point x="-12" y="-189"/>
      <point x="-36" y="-182"/>
      <point x="-56" y="-173" type="curve"/>
      <point x="-29" y="-112" type="line"/>
      <point x="-15" y="-119"/>
      <point x="1" y="-123"/>
      <point x="14" y="-123" type="curve" smooth="yes"/>
      <point x="30" y="-123"/>
      <point x="45" y="-118"/>
      <point x="55" y="-104" type="curve" smooth="yes"/>
      <point x="65" y="-90"/>
      <point x="65" y="-72"/>
      <point x="65" y="-14" type="curve" smooth="yes"/>
      <point x="65" y="478" type="line"/>
      <point x="135" y="478" type="line"/>
    </contour>
    <contour>
      <point x="100" y="649" type="curve" smooth="yes"/>
      <point x="127" y="649"/>
      <point x="147" y="630"/>
      <point x="147" y="602" type="curve" smooth="yes"/>
      <point x="147" y="574"/>
      <point x="127" y="555"/>
      <point x="100" y="555" type="curve" smooth="yes"/>
      <point x="73" y="555"/>
      <point x="53" y="574"/>
      <point x="53" y="602" type="curve" smooth="yes"/>
      <point x="53" y="630"/>
      <point x="73" y="649"/>
    </contour>
  </outline>
</glyph>
<glyph name="m" format="1">
  <advance width="700"/>
  <unicode hex="006D"/>
  <outline>
    <contour>
      <point x="220" y="484" type="curve" smooth="yes"/>
      <point x="277" y="484"/>
      <point x="323" y="459"/>
      <point x="350" y="414" type="curve"/>
      <point x="377" y="459"/>
      <point x="423" y="484"/>
      <point x="480" y="484" type="curve" smooth="yes"/>
      <point x="527" y="484"/>
      <point x="568" y="467"/>
      <point x="595" y="441" type="curve" smooth="yes"/>
      <point x="645" y="393"/>
      <point x="645" y="331"/>
      <point x="645" y="256" type="curve" smooth="yes"/>
      <point x="645" y="0" type="line"/>
      <point x="575" y="0" type="line"/>
      <point x="575" y="256" type="line" smooth="yes"/>
      <point x="575" y="322"/>
      <point x="575" y="367"/>
      <point x="545" y="395" type="curve" smooth="yes"/>
      <point x="530" y="409"/>
      <point x="507" y="418"/>
      <point x="480" y="418" type="curve" smooth="yes"/>
      <point x="453" y="418"/>
      <point x="430" y="409"/>
      <point x="415" y="395" type="curve" smooth="yes"/>
      <point x="385" y="367"/>
      <point x="385" y="322"/>
      <point x="385" y="256" type="curve" smooth="yes"/>
      <point x="385" y="0" type="line"/>
      <point x="315" y="0" type="line"/>
      <point x="315" y="256" type="line" smooth="yes"/>
      <point x="315" y="322"/>
      <point x="315" y="367"/>
      <point x="285" y="395" type="curve" smooth="yes"/>
      <point x="270" y="409"/>
      <point x="247" y="418"/>
      <point x="220" y="418" type="curve" smooth="yes"/>
      <point x="193" y="418"/>
      <point x="170" y="409"/>
      <point x="155" y="395" type="curve" smooth="yes"/>
      <point x="125" y="367"/>
      <point x="125" y="322"/>
      <point x="125" y="256" type="curve" smooth="yes"/>
      <point x="125" y="0" type="line"/>
      <point x="55" y="0" type="line"/>
      <point x="55" y="256" type="line" smooth="yes"/>
      <point x="55" y="331"/>
      <point x="55" y="393"/>
      <point x="105" y="441" type="curve" smooth="yes"/>
      <point x="132" y="467"/>
      <point x="173" y="484"/>
    </contour>
  </outline>
</glyph>
<glyph name="n" format="1">
  <advance width="460"/>
  <unicode hex="006E"/>
  <outline>
    <contour>
      <point x="-5" y="0" type="move" name="DoubleTop"/>
    </contour>
    <contour>
      <point x="-5" y="0" type="move" name="Center"/>
    </contour>
    <contour>
      <point x="100" y="667" type="move" name="Apos"/>
    </contour>
    <contour>
      <point x="237" y="0" type="move" name="Bottom"/>
    </contour>
    <contour>
      <point x="237" y="477" type="move" name="Top"/>
    </contour>
    <contour>
      <point x="230" y="484" type="curve" smooth="yes"/>
      <point x="291" y="484"/>
      <point x="334" y="458"/>
      <point x="358" y="433" type="curve" smooth="yes"/>
      <point x="405" y="384"/>
      <point x="405" y="326"/>
      <point x="405" y="256" type="curve" smooth="yes"/>
      <point x="405" y="0" type="line"/>
      <point x="335" y="0" type="line"/>
      <point x="335" y="256" type="line" smooth="yes"/>
      <point x="335" y="318"/>
      <point x="335" y="360"/>
      <point x="306" y="389" type="curve" smooth="yes"/>
      <point x="289" y="406"/>
      <point x="263" y="418"/>
      <point x="230" y="418" type="curve" smooth="yes"/>
      <point x="197" y="418"/>
      <point x="171" y="406"/>
      <point x="154" y="389" type="curve" smooth="yes"/>
      <point x="125" y="360"/>
      <point x="125" y="318"/>
      <point x="125" y="256" type="curve" smooth="yes"/>
      <point x="125" y="0" type="line"/>
      <point x="55" y="0" type="line"/>
      <point x="55" y="256" type="line" smooth="yes"/>
      <point x="55" y="326"/>
      <point x="55" y="384"/>
      <point x="102" y="433" type="curve" smooth="yes"/>
      <point x="126" y="458"/>
      <point x="169" y="484"/>
    </contour>
  </outline>
</glyph>
<glyph name="p" format="1">
  <advance width="470"/>
  <unicode hex="0070"/>
  <outline>
    <contour>
      <point x="-5" y="0" type="move" name="DoubleTop"/>
    </contour>
    <contour>
      <point x="-5" y="0" type="move" name="Center"/>
    </contour>
    <contour>
      <point x="-5" y="0" type="move" name="Top"/>
    </contour>
    <contour>
      <point x="483" y="667" type="move" name="Apos"/>
    </contour>
    <contour>
      <point x="235" y="0" type="move" name="Bottom"/>
    </contour>
    <contour>
      <point x="238" y="418" type="curve" smooth="yes"/>
      <point x="202" y="418"/>
      <point x="168" y="405"/>
      <point x="149" y="382" type="curve" smooth="yes"/>
      <point x="125" y="354"/>
      <point x="125" y="312"/>
      <point x="125" y="259" type="curve" smooth="yes"/>
      <point x="125" y="185"/>
      <point x="125" y="130"/>
      <point x="155" y="95" type="curve" smooth="yes"/>
      <point x="173" y="74"/>
      <point x="202" y="60"/>
      <point x="240" y="60" type="curve" smooth="yes"/>
      <point x="278" y="60"/>
      <point x="307" y="74"/>
      <point x="325" y="95" type="curve" smooth="yes"/>
      <point x="355" y="130"/>
      <point x="355" y="185"/>
      <point x="355" y="241" type="curve" smooth="yes"/>
      <point x="355" y="298"/>
      <point x="355" y="349"/>
      <point x="323" y="385" type="curve" smooth="yes"/>
      <point x="305" y="405"/>
      <point x="275" y="418"/>
    </contour>
    <contour>
      <point x="238" y="484" type="curve" smooth="yes"/>
      <point x="298" y="484"/>
      <point x="346" y="461"/>
      <point x="377" y="427" type="curve" smooth="yes"/>
      <point x="425" y="373"/>
      <point x="425" y="303"/>
      <point x="425" y="241" type="curve" smooth="yes"/>
      <point x="425" y="173"/>
      <point x="425" y="107"/>
      <point x="380" y="53" type="curve" smooth="yes"/>
      <point x="351" y="18"/>
      <point x="304" y="-6"/>
      <point x="245" y="-6" type="curve" smooth="yes"/>
      <point x="196" y="-6"/>
      <point x="152" y="17"/>
      <point x="125" y="55" type="curve"/>
      <point x="125" y="-183" type="line"/>
      <point x="55" y="-183" type="line"/>
      <point x="55" y="249" type="line" smooth="yes"/>
      <point x="55" y="330"/>
      <point x="55" y="377"/>
      <point x="95" y="424" type="curve" smooth="yes"/>
      <point x="134" y="470"/>
      <point x="192" y="484"/>
    </contour>
  </outline>
</glyph>
<glyph name="r" format="1">
  <advance width="338"/>
  <unicode hex="0072"/>
  <outline>
    <contour>
      <point x="238" y="484" type="curve" smooth="yes"/>
      <point x="263" y="484"/>
      <point x="286" y="480"/>
      <point x="306" y="473" type="curve"/>
      <point x="285" y="410" type="line"/>
      <point x="271" y="415"/>
      <point x="255" y="418"/>
      <point x="238" y="418" type="curve" smooth="yes"/>
      <point x="202" y="418"/>
      <point x="168" y="405"/>
      <point x="149" y="382" type="curve" smooth="yes"/>
      <point x="125" y="354"/>
      <point x="125" y="312"/>
      <point x="125" y="249" type="curve" smooth="yes"/>
      <point x="125" y="0" type="line"/>
      <point x="55" y="0" type="line"/>
      <point x="55" y="249" type="line" smooth="yes"/>
      <point x="55" y="330"/>
      <point x="55" y="377"/>
      <point x="95" y="424" type="curve" smooth="yes"/>
      <point x="134" y="470"/>
      <point x="192" y="484"/>
    </contour>
  </outline>
</glyph>
<glyph name="s" format="1">
  <advance width="408"/>
  <unicode hex="0073"/>
  <outline>
    <contour>
      <point x="-3" y="0" type="move" name="DoubleTop"/>
    </contour>
    <contour>
      <point x="-3" y="0" type="move" name="Apos"/>
    </contour>
    <contour>
      <point x="-11" y="0" type="move" name="Center"/>
    </contour>
    <contour>
      <point x="199" y="0" type="move" name="Bottom"/>
    </contour>
    <contour>
      <point x="199" y="478" type="move" name="Top"/>
    </contour>
    <contour>
      <point x="345" y="451" type="curve"/>
      <point x="319" y="390" type="line"/>
      <point x="281" y="408"/>
      <point x="239" y="418"/>
      <point x="199" y="418" type="curve" smooth="yes"/>
      <point x="174" y="418"/>
      <point x="156" y="414"/>
      <point x="139" y="404" type="curve" smooth="yes"/>
      <point x="122" y="394"/>
      <point x="110" y="376"/>
      <point x="110" y="354" type="curve" smooth="yes"/>
      <point x="110" y="333"/>
      <point x="121" y="316"/>
      <point x="135" y="305" type="curve" smooth="yes"/>
      <point x="155" y="289"/>
      <point x="176" y="284"/>
      <point x="212" y="276" type="curve" smooth="yes"/>
      <point x="248" y="268"/>
      <point x="281" y="259"/>
      <point x="309" y="239" type="curve" smooth="yes"/>
      <point x="340" y="217"/>
      <point x="368" y="180"/>
      <point x="368" y="130" type="curve" smooth="yes"/>
      <point x="368" y="85"/>
      <point x="345" y="48"/>
      <point x="314" y="26" type="curve" smooth="yes"/>
      <point x="283" y="4"/>
      <point x="245" y="-6"/>
      <point x="199" y="-6" type="curve" smooth="yes"/>
      <point x="145" y="-6"/>
      <point x="89" y="5"/>
      <point x="38" y="29" type="curve"/>
      <point x="66" y="89" type="line"/>
      <point x="107" y="70"/>
      <point x="153" y="60"/>
      <point x="199" y="60" type="curve" smooth="yes"/>
      <point x="228" y="60"/>
      <point x="253" y="65"/>
      <point x="272" y="79" type="curve" smooth="yes"/>
      <point x="291" y="93"/>
      <point x="298" y="113"/>
      <point x="298" y="130" type="curve" smooth="yes"/>
      <point x="298" y="153"/>
      <point x="286" y="172"/>
      <point x="270" y="184" type="curve" smooth="yes"/>
      <point x="248" y="200"/>
      <point x="223" y="206"/>
      <point x="191" y="213" type="curve" smooth="yes"/>
      <point x="159" y="220"/>
      <point x="123" y="229"/>
      <point x="93" y="252" type="curve" smooth="yes"/>
      <point x="63" y="275"/>
      <point x="40" y="311"/>
      <point x="40" y="354" type="curve" smooth="yes"/>
      <point x="40" y="400"/>
      <point x="65" y="435"/>
      <point x="94" y="455" type="curve" smooth="yes"/>
      <point x="123" y="475"/>
      <point x="158" y="484"/>
      <point x="199" y="484" type="curve" smooth="yes"/>
      <point x="250" y="484"/>
      <point x="300" y="472"/>
    </contour>
  </outline>
</glyph>
<glyph name="t" format="1">
  <advance width="314"/>
  <unicode hex="0074"/>
  <outline>
    <contour>
      <point x="-65" y="0" type="move" name="DoubleTop"/>
    </contour>
    <contour>
      <point x="261" y="667" type="move" name="Apos"/>
    </contour>
    <contour>
      <point x="-50" y="0" type="move" name="Top"/>
    </contour>
    <contour>
      <point x="-50" y="0" type="move" name="Center"/>
    </contour>
    <contour>
      <point x="176" y="0" type="move" name="Bottom"/>
    </contour>
    <contour>
      <point x="130" y="170" type="line" smooth="yes"/>
      <point x="130" y="116"/>
      <point x="130" y="98"/>
      <point x="144" y="80" type="curve" smooth="yes"/>
      <point x="154" y="68"/>
      <point x="169" y="60"/>
      <point x="191" y="60" type="curve" smooth="yes"/>
      <point x="210" y="60"/>
      <point x="233" y="67"/>
      <point x="256" y="79" type="curve"/>
      <point x="286" y="20" type="line"/>
      <point x="259" y="6"/>
      <point x="227" y="-6"/>
      <point x="191" y="-6" type="curve" smooth="yes"/>
      <point x="147" y="-6"/>
      <point x="110" y="12"/>
      <point x="88" y="40" type="curve" smooth="yes"/>
      <point x="60" y="75"/>
      <point x="60" y="113"/>
      <point x="60" y="170" type="curve" smooth="yes"/>
      <point x="60" y="591" type="line"/>
      <point x="130" y="591" type="line"/>
      <point x="130" y="478" type="line"/>
      <point x="250" y="478" type="line"/>
      <point x="250" y="416" type="line"/>
      <point x="130" y="416" type="line"/>
    </contour>
  </outline>
</glyph>
<glyph name="v" format="1">
  <advance width="422"/>
  <unicode hex="0076"/>
  <outline>
    <contour>
      <point x="-5.74805" y="0" type="move" name="DoubleTop"/>
    </contour>
    <contour>
      <point x="-5.74805" y="0" type="move" name="Apos"/>
    </contour>
    <contour>
      <point x="-15.748" y="0" type="move" name="Bottom"/>
    </contour>
    <contour>
      <point x="-15.748" y="0" type="move" name="Center"/>
    </contour>
    <contour>
      <point x="234" y="476" type="move" name="Top"/>
    </contour>
    <contour>
      <point x="15" y="478" type="move"/>
    </contour>
    <contour>
      <point x="87" y="478" type="line"/>
      <point x="174" y="118" type="line" smooth="yes"/>
      <point x="180" y="92"/>
      <point x="184" y="77"/>
      <point x="190" y="70" type="curve" smooth="yes"/>
      <point x="195" y="64"/>
      <point x="203" y="60"/>
      <point x="211" y="60" type="curve" smooth="yes"/>
      <point x="219" y="60"/>
      <point x="227" y="64"/>
      <point x="232" y="70" type="curve" smooth="yes"/>
      <point x="238" y="77"/>
      <point x="242" y="92"/>
      <point x="248" y="118" type="curve" smooth="yes"/>
      <point x="335" y="478" type="line"/>
      <point x="407" y="478" type="line"/>
      <point x="318" y="111" type="line" smooth="yes"/>
      <point x="307" y="65"/>
      <point x="302" y="39"/>
      <point x="274" y="16" type="curve" smooth="yes"/>
      <point x="258" y="3"/>
      <point x="236" y="-6"/>
      <point x="211" y="-6" type="curve" smooth="yes"/>
      <point x="186" y="-6"/>
      <point x="164" y="3"/>
      <point x="148" y="16" type="curve" smooth="yes"/>
      <point x="120" y="39"/>
      <point x="115" y="65"/>
      <point x="104" y="111" type="curve" smooth="yes"/>
      <point x="15" y="478" type="line"/>
    </contour>
    <contour>
      <point x="407" y="478" type="move"/>
    </contour>
  </outline>
</glyph>
<glyph name="w" format="1">
  <advance width="700"/>
  <unicode hex="0077"/>
  <outline>
    <contour>
      <point x="0" y="0" type="move" name="DoubleTop"/>
    </contour>
    <contour>
      <point x="0" y="0" type="move" name="Apos"/>
    </contour>
    <contour>
      <point x="0" y="0" type="move" name="Bottom"/>
    </contour>
    <contour>
      <point x="0" y="0" type="move" name="Center"/>
    </contour>
    <contour>
      <point x="365" y="478" type="move" name="Top"/>
    </contour>
    <contour>
      <point x="220" y="-6" type="curve" smooth="yes"/>
      <point x="173" y="-6"/>
      <point x="132" y="11"/>
      <point x="105" y="37" type="curve" smooth="yes"/>
      <point x="55" y="85"/>
      <point x="55" y="147"/>
      <point x="55" y="222" type="curve" smooth="yes"/>
      <point x="55" y="478" type="line"/>
      <point x="125" y="478" type="line"/>
      <point x="125" y="222" type="line" smooth="yes"/>
      <point x="125" y="156"/>
      <point x="125" y="111"/>
      <point x="155" y="83" type="curve" smooth="yes"/>
      <point x="170" y="69"/>
      <point x="193" y="60"/>
      <point x="220" y="60" type="curve" smooth="yes"/>
      <point x="247" y="60"/>
      <point x="270" y="69"/>
      <point x="285" y="83" type="curve" smooth="yes"/>
      <point x="315" y="111"/>
      <point x="315" y="156"/>
      <point x="315" y="222" type="curve" smooth="yes"/>
      <point x="315" y="478" type="line"/>
      <point x="385" y="478" type="line"/>
      <point x="385" y="222" type="line" smooth="yes"/>
      <point x="385" y="156"/>
      <point x="385" y="111"/>
      <point x="415" y="83" type="curve" smooth="yes"/>
      <point x="430" y="69"/>
      <point x="453" y="60"/>
      <point x="480" y="60" type="curve" smooth="yes"/>
      <point x="507" y="60"/>
      <point x="530" y="69"/>
      <point x="545" y="83" type="curve" smooth="yes"/>
      <point x="575" y="111"/>
      <point x="575" y="156"/>
      <point x="575" y="222" type="curve" smooth="yes"/>
      <point x="575" y="478" type="line"/>
      <point x="645" y="478" type="line"/>
      <point x="645" y="222" type="line" smooth="yes"/>
      <point x="645" y="147"/>
      <point x="645" y="85"/>
      <point x="595" y="37" type="curve" smooth="yes"/>
      <point x="568" y="11"/>
      <point x="527" y="-6"/>
      <point x="480" y="-6" type="curve" smooth="yes"/>
      <point x="423" y="-6"/>
      <point x="377" y="19"/>
      <point x="350" y="64" type="curve"/>
      <point x="323" y="19"/>
      <point x="277" y="-6"/>
    </contour>
  </outline>
</glyph>
<glyph name="x" format="1">
  <advance width="452"/>
  <unicode hex="0078"/>
  <outline>
    <contour>
      <point x="43" y="478" type="line"/>
      <point x="122" y="478" type="line"/>
      <point x="226" y="296" type="line"/>
      <point x="332" y="478" type="line"/>
      <point x="409" y="478" type="line"/>
      <point x="265" y="241" type="line"/>
      <point x="412" y="0" type="line"/>
      <point x="333" y="0" type="line"/>
      <point x="226" y="187" type="line"/>
      <point x="117" y="0" type="line"/>
      <point x="40" y="0" type="line"/>
      <point x="187" y="241" type="line"/>
    </contour>
  </outline>
</glyph>
<glyph name="y" format="1">
  <advance width="418"/>
  <unicode hex="0079"/>
  <outline>
    <contour>
      <point x="222" y="-4" type="line"/>
      <point x="194" y="0"/>
      <point x="171" y="13"/>
      <point x="157" y="31" type="curve" smooth="yes"/>
      <point x="142" y="51"/>
      <point x="138" y="69"/>
      <point x="116" y="141" type="curve" smooth="yes"/>
      <point x="15" y="478" type="line"/>
      <point x="88" y="478" type="line"/>
      <point x="182" y="156" type="line" smooth="yes"/>
      <point x="197" y="104"/>
      <point x="204" y="82"/>
      <point x="210" y="73" type="curve" smooth="yes"/>
      <point x="216" y="64"/>
      <point x="227" y="62"/>
      <point x="237" y="61" type="curve"/>
      <point x="327" y="478" type="line"/>
      <point x="398" y="478" type="line"/>
      <point x="252" y="-183" type="line"/>
      <point x="181" y="-183" type="line"/>
    </contour>
  </outline>
</glyph>
<glyph name="z" format="1">
  <advance width="414"/>
  <unicode hex="007A"/>
  <outline>
    <contour>
      <point x="-9" y="0" type="move" name="DoubleTop"/>
    </contour>
    <contour>
      <point x="-9" y="0" type="move" name="Apos"/>
    </contour>
    <contour>
      <point x="6" y="0" type="move" name="Center"/>
    </contour>
    <contour>
      <point x="211" y="0" type="move" name="Bottom"/>
    </contour>
    <contour>
      <point x="211" y="476" type="move" name="Top"/>
    </contour>
    <contour>
      <point x="57" y="412" type="line"/>
      <point x="57" y="478" type="line"/>
      <point x="249" y="478" type="line" smooth="yes"/>
      <point x="275" y="478"/>
      <point x="305" y="478"/>
      <point x="335" y="454" type="curve" smooth="yes"/>
      <point x="358" y="436"/>
      <point x="369" y="410"/>
      <point x="369" y="384" type="curve" smooth="yes"/>
      <point x="369" y="335"/>
      <point x="335" y="305"/>
      <point x="285" y="264" type="curve" smooth="yes"/>
      <point x="173" y="171" type="line" smooth="yes"/>
      <point x="127" y="133"/>
      <point x="105" y="115"/>
      <point x="105" y="94" type="curve" smooth="yes"/>
      <point x="105" y="85"/>
      <point x="109" y="78"/>
      <point x="114" y="74" type="curve" smooth="yes"/>
      <point x="124" y="66"/>
      <point x="142" y="66"/>
      <point x="185" y="66" type="curve" smooth="yes"/>
      <point x="367" y="66" type="line"/>
      <point x="367" y="0" type="line"/>
      <point x="185" y="0" type="line" smooth="yes"/>
      <point x="132" y="0"/>
      <point x="86" y="0"/>
      <point x="55" y="37" type="curve" smooth="yes"/>
      <point x="42" y="53"/>
      <point x="35" y="73"/>
      <point x="35" y="94" type="curve" smooth="yes"/>
      <point x="35" y="144"/>
      <point x="69" y="171"/>
      <point x="128" y="221" type="curve" smooth="yes"/>
      <point x="239" y="314" type="line" smooth="yes"/>
      <point x="279" y="347"/>
      <point x="299" y="363"/>
      <point x="299" y="384" type="curve" smooth="yes"/>
      <point x="299" y="396"/>
      <point x="293" y="402"/>
      <point x="287" y="406" type="curve" smooth="yes"/>
      <point x="278" y="412"/>
      <point x="259" y="412"/>
      <point x="249" y="412" type="curve" smooth="yes"/>
    </contour>
  </outline>
</glyph>
<glyph name="asciitilde" format="1">
  <advance width="520"/>
  <unicode hex="007E"/>
  <outline>
    <contour>
      <point x="114" y="211" type="curve"/>
      <point x="54" y="223" type="line"/>
      <point x="65" y="273"/>
      <point x="111" y="312"/>
      <point x="169" y="312" type="curve" smooth="yes"/>
      <point x="216" y="312"/>
      <point x="252" y="289"/>
      <point x="276" y="276" type="curve" smooth="yes"/>
      <point x="302" y="261"/>
      <point x="325" y="248"/>
      <point x="351" y="248" type="curve" smooth="yes"/>
      <point x="379" y="248"/>
      <point x="401" y="267"/>
      <point x="406" y="289" type="curve"/>
      <point x="466" y="277" type="line"/>
      <point x="455" y="227"/>
      <point x="409" y="188"/>
      <point x="351" y="188" type="curve" smooth="yes"/>
      <point x="304" y="188"/>
      <point x="268" y="211"/>
      <point x="244" y="224" type="curve" smooth="yes"/>
      <point x="218" y="239"/>
      <point x="195" y="252"/>
      <point x="169" y="252" type="curve" smooth="yes"/>
      <point x="141" y="252"/>
      <point x="119" y="233"/>
    </contour>
  </outline>
</glyph>
<glyph name="exclamdown" format="1">
  <advance width="260"/>
  <unicode hex="00A1"/>
  <outline>
    <contour>
      <point x="130" y="387" type="curve" smooth="yes"/>
      <point x="100" y="387"/>
      <point x="79" y="408"/>
      <point x="79" y="438" type="curve" smooth="yes"/>
      <point x="79" y="468"/>
      <point x="100" y="489"/>
      <point x="130" y="489" type="curve" smooth="yes"/>
      <point x="160" y="489"/>
      <point x="181" y="468"/>
      <point x="181" y="438" type="curve" smooth="yes"/>
      <point x="181" y="408"/>
      <point x="160" y="387"/>
    </contour>
    <contour>
      <point x="92" y="-183" type="line"/>
      <point x="92" y="11" type="line" smooth="yes"/>
      <point x="92" y="191"/>
      <point x="102" y="314"/>
      <point x="102" y="314" type="curve"/>
      <point x="156" y="314" type="line"/>
      <point x="156" y="314"/>
      <point x="166" y="191"/>
      <point x="166" y="11" type="curve" smooth="yes"/>
      <point x="166" y="-183" type="line"/>
    </contour>
  </outline>
</glyph>
<glyph name="cent" format="1">
  <advance width="450"/>
  <unicode hex="00A2"/>
  <outline>
    <contour>
      <point x="230" y="563" type="line"/>
      <point x="280" y="563" type="line"/>
      <point x="280" y="482" type="line"/>
      <point x="322" y="479"/>
      <point x="362" y="467"/>
      <point x="399" y="448" type="curve"/>
      <point x="370" y="388" type="line"/>
      <point x="341" y="403"/>
      <point x="311" y="412"/>
      <point x="280" y="416" type="curve"/>
      <point x="280" y="61" type="line"/>
      <point x="312" y="65"/>
      <point x="343" y="74"/>
      <point x="372" y="90" type="curve"/>
      <point x="405" y="32" type="line"/>
      <point x="366" y="11"/>
      <point x="324" y="-1"/>
      <point x="280" y="-5" type="curve"/>
      <point x="280" y="-86" type="line"/>
      <point x="230" y="-86" type="line"/>
      <point x="230" y="-5" type="line" smooth="yes"/>
      <point x="180" y="-1"/>
      <point x="134" y="19"/>
      <point x="103" y="52" type="curve" smooth="yes"/>
      <point x="55" y="103"/>
      <point x="55" y="164"/>
      <point x="55" y="202" type="curve" smooth="yes"/>
      <point x="55" y="275" type="line" smooth="yes"/>
      <point x="55" y="316"/>
      <point x="55" y="374"/>
      <point x="103" y="425" type="curve" smooth="yes"/>
      <point x="134" y="458"/>
      <point x="180" y="478"/>
      <point x="230" y="482" type="curve" smooth="yes"/>
    </contour>
    <contour>
      <point x="151" y="376" type="curve" smooth="yes"/>
      <point x="125" y="344"/>
      <point x="125" y="308"/>
      <point x="125" y="275" type="curve" smooth="yes"/>
      <point x="125" y="202" type="line" smooth="yes"/>
      <point x="125" y="173"/>
      <point x="125" y="127"/>
      <point x="155" y="96" type="curve" smooth="yes"/>
      <point x="173" y="77"/>
      <point x="200" y="65"/>
      <point x="230" y="61" type="curve"/>
      <point x="230" y="416" type="line"/>
      <point x="195" y="413"/>
      <point x="168" y="396"/>
    </contour>
  </outline>
</glyph>
<glyph name="currency" format="1">
  <advance width="626"/>
  <unicode hex="00A4"/>
  <outline>
    <contour>
      <point x="155" y="289" type="curve" smooth="yes"/>
      <point x="155" y="187"/>
      <point x="216" y="129"/>
      <point x="313" y="129" type="curve" smooth="yes"/>
      <point x="410" y="129"/>
      <point x="471" y="187"/>
      <point x="471" y="289" type="curve" smooth="yes"/>
      <point x="471" y="391"/>
      <point x="410" y="449"/>
      <point x="313" y="449" type="curve" smooth="yes"/>
      <point x="216" y="449"/>
      <point x="155" y="391"/>
    </contour>
    <contour>
      <point x="60" y="491" type="line"/>
      <point x="111" y="542" type="line"/>
      <point x="174" y="477" type="line"/>
      <point x="212" y="502"/>
      <point x="259" y="519"/>
      <point x="313" y="519" type="curve" smooth="yes"/>
      <point x="367" y="519"/>
      <point x="414" y="502"/>
      <point x="452" y="477" type="curve"/>
      <point x="515" y="542" type="line"/>
      <point x="566" y="491" type="line"/>
      <point x="503" y="428" type="line"/>
      <point x="530" y="390"/>
      <point x="545" y="343"/>
      <point x="545" y="289" type="curve" smooth="yes"/>
      <point x="545" y="235"/>
      <point x="530" y="188"/>
      <point x="503" y="150" type="curve"/>
      <point x="566" y="87" type="line"/>
      <point x="515" y="36" type="line"/>
      <point x="452" y="99" type="line"/>
      <point x="414" y="74"/>
      <point x="367" y="59"/>
      <point x="313" y="59" type="curve" smooth="yes"/>
      <point x="259" y="59"/>
      <point x="212" y="74"/>
      <point x="174" y="99" type="curve"/>
      <point x="111" y="36" type="line"/>
      <point x="60" y="87" type="line"/>
      <point x="123" y="150" type="line"/>
      <point x="96" y="188"/>
      <point x="81" y="235"/>
      <point x="81" y="289" type="curve" smooth="yes"/>
      <point x="81" y="343"/>
      <point x="96" y="390"/>
      <point x="123" y="428" type="curve"/>
    </contour>
  </outline>
</glyph>
<glyph name="yen" format="1">
  <advance width="571"/>
  <unicode hex="00A5"/>
  <outline>
    <contour>
      <point x="50" y="666" type="line"/>
      <point x="129" y="666" type="line"/>
      <point x="285" y="346" type="line"/>
      <point x="444" y="666" type="line"/>
      <point x="521" y="666" type="line"/>
      <point x="397" y="424" type="line"/>
      <point x="475" y="424" type="line"/>
      <point x="475" y="368" type="line"/>
      <point x="367" y="368" type="line"/>
      <point x="332" y="299" type="line"/>
      <point x="465" y="299" type="line"/>
      <point x="465" y="243" type="line"/>
      <point x="322" y="243" type="line"/>
      <point x="322" y="0" type="line"/>
      <point x="248" y="0" type="line"/>
      <point x="248" y="243" type="line"/>
      <point x="105" y="243" type="line"/>
      <point x="105" y="299" type="line"/>
      <point x="238" y="299" type="line"/>
      <point x="203" y="368" type="line"/>
      <point x="95" y="368" type="line"/>
      <point x="95" y="424" type="line"/>
      <point x="173" y="424" type="line"/>
    </contour>
  </outline>
</glyph>
<glyph name="copyright" format="1">
  <advance width="820"/>
  <unicode hex="00A9"/>
  <outline>
    <contour>
      <point x="462" y="-123" type="line" smooth="yes"/>
      <point x="540" y="-123"/>
      <point x="602" y="-123"/>
      <point x="643" y="-75" type="curve" smooth="yes"/>
      <point x="679" y="-33"/>
      <point x="679" y="21"/>
      <point x="679" y="96" type="curve" smooth="yes"/>
      <point x="679" y="386" type="line" smooth="yes"/>
      <point x="679" y="461"/>
      <point x="679" y="515"/>
      <point x="643" y="557" type="curve" smooth="yes"/>
      <point x="602" y="605"/>
      <point x="540" y="605"/>
      <point x="462" y="605" type="curve" smooth="yes"/>
      <point x="358" y="605" type="line" smooth="yes"/>
      <point x="280" y="605"/>
      <point x="218" y="605"/>
      <point x="177" y="557" type="curve" smooth="yes"/>
      <point x="141" y="515"/>
      <point x="141" y="461"/>
      <point x="141" y="386" type="curve" smooth="yes"/>
      <point x="141" y="96" type="line" smooth="yes"/>
      <point x="141" y="21"/>
      <point x="141" y="-33"/>
      <point x="177" y="-75" type="curve" smooth="yes"/>
      <point x="218" y="-123"/>
      <point x="280" y="-123"/>
      <point x="358" y="-123" type="curve" smooth="yes"/>
    </contour>
    <contour>
      <point x="462" y="667" type="line" smooth="yes"/>
      <point x="544" y="667"/>
      <point x="629" y="667"/>
      <point x="690" y="601" type="curve" smooth="yes"/>
      <point x="745" y="541"/>
      <point x="745" y="469"/>
      <point x="745" y="386" type="curve" smooth="yes"/>
      <point x="745" y="96" type="line" smooth="yes"/>
      <point x="745" y="13"/>
      <point x="745" y="-59"/>
      <point x="690" y="-119" type="curve" smooth="yes"/>
      <point x="629" y="-185"/>
      <point x="544" y="-185"/>
      <point x="462" y="-185" type="curve" smooth="yes"/>
      <point x="358" y="-185" type="line" smooth="yes"/>
      <point x="276" y="-185"/>
      <point x="191" y="-185"/>
      <point x="130" y="-119" type="curve" smooth="yes"/>
      <point x="75" y="-59"/>
      <point x="75" y="13"/>
      <point x="75" y="96" type="curve" smooth="yes"/>
      <point x="75" y="386" type="line" smooth="yes"/>
      <point x="75" y="469"/>
      <point x="75" y="541"/>
      <point x="130" y="601" type="curve" smooth="yes"/>
      <point x="191" y="667"/>
      <point x="276" y="667"/>
      <point x="358" y="667" type="curve" smooth="yes"/>
    </contour>
    <contour>
      <point x="292" y="42" type="curve" smooth="yes"/>
      <point x="252" y="84"/>
      <point x="252" y="131"/>
      <point x="252" y="196" type="curve" smooth="yes"/>
      <point x="252" y="281" type="line" smooth="yes"/>
      <point x="252" y="342"/>
      <point x="252" y="391"/>
      <point x="292" y="434" type="curve" smooth="yes"/>
      <point x="320" y="464"/>
      <point x="364" y="483"/>
      <point x="417" y="483" type="curve" smooth="yes"/>
      <point x="462" y="483"/>
      <point x="507" y="470"/>
      <point x="542" y="443" type="curve"/>
      <point x="503" y="388" type="line"/>
      <point x="480" y="407"/>
      <point x="449" y="417"/>
      <point x="417" y="417" type="curve" smooth="yes"/>
      <point x="386" y="417"/>
      <point x="360" y="407"/>
      <point x="344" y="390" type="curve" smooth="yes"/>
      <point x="322" y="366"/>
      <point x="322" y="338"/>
      <point x="322" y="281" type="curve" smooth="yes"/>
      <point x="322" y="196" type="line" smooth="yes"/>
      <point x="322" y="138"/>
      <point x="322" y="112"/>
      <point x="343" y="88" type="curve" smooth="yes"/>
      <point x="358" y="70"/>
      <point x="385" y="60"/>
      <point x="417" y="60" type="curve" smooth="yes"/>
      <point x="455" y="60"/>
      <point x="488" y="73"/>
      <point x="509" y="92" type="curve"/>
      <point x="552" y="41" type="line"/>
      <point x="518" y="10"/>
      <point x="470" y="-6"/>
      <point x="417" y="-6" type="curve" smooth="yes"/>
      <point x="364" y="-6"/>
      <point x="320" y="13"/>
    </contour>
  </outline>
</glyph>
<glyph name="ordfeminine" format="1">
  <advance width="458"/>
  <unicode hex="00AA"/>
  <outline>
    <contour>
      <point x="218" y="744" type="curve" smooth="yes"/>
      <point x="280" y="744"/>
      <point x="333" y="722"/>
      <point x="368" y="675" type="curve" smooth="yes"/>
      <point x="403" y="628"/>
      <point x="403" y="571"/>
      <point x="403" y="500" type="curve" smooth="yes"/>
      <point x="403" y="465" type="line" smooth="yes"/>
      <point x="403" y="397"/>
      <point x="403" y="358"/>
      <point x="376" y="318" type="curve" smooth="yes"/>
      <point x="346" y="274"/>
      <point x="293" y="254"/>
      <point x="227" y="254" type="curve" smooth="yes"/>
      <point x="180" y="254"/>
      <point x="136" y="263"/>
      <point x="101" y="287" type="curve" smooth="yes"/>
      <point x="67" y="310"/>
      <point x="40" y="352"/>
      <point x="40" y="402" type="curve" smooth="yes"/>
      <point x="40" y="448"/>
      <point x="62" y="488"/>
      <point x="98" y="515" type="curve" smooth="yes"/>
      <point x="146" y="551"/>
      <point x="206" y="551"/>
      <point x="268" y="551" type="curve" smooth="yes"/>
      <point x="333" y="551" type="line"/>
      <point x="333" y="570"/>
      <point x="332" y="608"/>
      <point x="311" y="637" type="curve" smooth="yes"/>
      <point x="291" y="664"/>
      <point x="260" y="678"/>
      <point x="218" y="678" type="curve" smooth="yes"/>
      <point x="176" y="678"/>
      <point x="133" y="665"/>
      <point x="89" y="647" type="curve"/>
      <point x="64" y="708" type="line"/>
      <point x="111" y="728"/>
      <point x="161" y="744"/>
    </contour>
    <contour>
      <point x="268" y="489" type="line" smooth="yes"/>
      <point x="209" y="489"/>
      <point x="171" y="489"/>
      <point x="141" y="466" type="curve" smooth="yes"/>
      <point x="124" y="453"/>
      <point x="110" y="431"/>
      <point x="110" y="402" type="curve" smooth="yes"/>
      <point x="110" y="377"/>
      <point x="122" y="356"/>
      <point x="139" y="343" type="curve" smooth="yes"/>
      <point x="163" y="325"/>
      <point x="194" y="320"/>
      <point x="227" y="320" type="curve" smooth="yes"/>
      <point x="270" y="320"/>
      <point x="300" y="330"/>
      <point x="318" y="355" type="curve" smooth="yes"/>
      <point x="333" y="376"/>
      <point x="333" y="408"/>
      <point x="333" y="465" type="curve" smooth="yes"/>
      <point x="333" y="489" type="line"/>
    </contour>
  </outline>
</glyph>
<glyph name="logicalnot" format="1">
  <advance width="520"/>
  <unicode hex="00AC"/>
  <outline>
    <contour>
      <point x="80" y="279" type="line"/>
      <point x="440" y="280" type="line"/>
      <point x="440" y="70" type="line"/>
      <point x="380" y="70" type="line"/>
      <point x="380" y="221" type="line"/>
      <point x="80" y="221" type="line"/>
    </contour>
  </outline>
</glyph>
<glyph name="macron" format="1">
  <advance width="370"/>
  <unicode hex="00AF"/>
  <outline>
    <contour>
      <point x="186" y="477" type="move" name="_Top"/>
    </contour>
    <contour>
      <point x="50" y="612" type="line"/>
      <point x="320" y="612" type="line"/>
      <point x="320" y="556" type="line"/>
      <point x="50" y="556" type="line"/>
    </contour>
  </outline>
</glyph>
<glyph name="uni00B2" format="1">
  <advance width="377"/>
  <unicode hex="00B2"/>
  <outline>
    <contour>
      <point x="102" y="655" type="curve"/>
      <point x="61" y="708" type="line"/>
      <point x="97" y="735"/>
      <point x="142" y="744"/>
      <point x="174" y="744" type="curve" smooth="yes"/>
      <point x="216" y="744"/>
      <point x="247" y="733"/>
      <point x="273" y="713" type="curve" smooth="yes"/>
      <point x="302" y="690"/>
      <point x="322" y="654"/>
      <point x="322" y="609" type="curve" smooth="yes"/>
      <point x="322" y="566"/>
      <point x="310" y="542"/>
      <point x="269" y="488" type="curve" smooth="yes"/>
      <point x="144" y="326" type="line"/>
      <point x="327" y="326" type="line"/>
      <point x="327" y="260" type="line"/>
      <point x="50" y="260" type="line"/>
      <point x="50" y="315" type="line"/>
      <point x="211" y="525" type="line" smooth="yes"/>
      <point x="244" y="568"/>
      <point x="252" y="579"/>
      <point x="252" y="608" type="curve" smooth="yes"/>
      <point x="252" y="632"/>
      <point x="242" y="651"/>
      <point x="229" y="662" type="curve" smooth="yes"/>
      <point x="216" y="673"/>
      <point x="197" y="678"/>
      <point x="174" y="678" type="curve" smooth="yes"/>
      <point x="147" y="678"/>
      <point x="121" y="670"/>
    </contour>
  </outline>
</glyph>
<glyph name="acute" format="1">
  <advance width="336"/>
  <unicode hex="00B4"/>
  <outline>
    <contour>
      <point x="204" y="666" type="line"/>
      <point x="286" y="666" type="line"/>
      <point x="121" y="456" type="line"/>
      <point x="50" y="456" type="line"/>
    </contour>
  </outline>
</glyph>
<glyph name="periodcentered" format="1">
  <advance width="262"/>
  <unicode hex="00B7"/>
  <outline>
    <contour>
      <point x="17" y="250" type="move" name="_Center"/>
    </contour>
    <contour>
      <point x="131" y="301" type="curve" smooth="yes"/>
      <point x="161" y="301"/>
      <point x="182" y="280"/>
      <point x="182" y="250" type="curve" smooth="yes"/>
      <point x="182" y="220"/>
      <point x="161" y="199"/>
      <point x="131" y="199" type="curve" smooth="yes"/>
      <point x="101" y="199"/>
      <point x="80" y="220"/>
      <point x="80" y="250" type="curve" smooth="yes"/>
      <point x="80" y="280"/>
      <point x="101" y="301"/>
    </contour>
  </outline>
</glyph>
<glyph name="uni00B9" format="1">
  <advance width="321"/>
  <unicode hex="00B9"/>
  <outline>
    <contour>
      <point x="174" y="738" type="line"/>
      <point x="231" y="738" type="line"/>
      <point x="231" y="260" type="line"/>
      <point x="161" y="260" type="line"/>
      <point x="161" y="656" type="line"/>
      <point x="100" y="625" type="line"/>
      <point x="70" y="685" type="line"/>
    </contour>
  </outline>
</glyph>
<glyph name="onequarter" format="1">
  <advance width="830"/>
  <unicode hex="00BC"/>
  <outline>
    <contour>
      <point x="174" y="666" type="line"/>
      <point x="231" y="666" type="line"/>
      <point x="231" y="188" type="line"/>
      <point x="161" y="188" type="line"/>
      <point x="161" y="584" type="line"/>
      <point x="100" y="553" type="line"/>
      <point x="70" y="613" type="line"/>
    </contour>
    <contour>
      <point x="621" y="478" type="line"/>
      <point x="694" y="478" type="line"/>
      <point x="546" y="176" type="line"/>
      <point x="674" y="176" type="line"/>
      <point x="674" y="289" type="line"/>
      <point x="744" y="289" type="line"/>
      <point x="744" y="176" type="line"/>
      <point x="785" y="176" type="line"/>
      <point x="785" y="110" type="line"/>
      <point x="744" y="110" type="line"/>
      <point x="744" y="0" type="line"/>
      <point x="674" y="0" type="line"/>
      <point x="674" y="110" type="line"/>
      <point x="467" y="110" type="line"/>
      <point x="467" y="163" type="line"/>
    </contour>
    <contour>
      <point x="560" y="667" type="line"/>
      <point x="624" y="667" type="line"/>
      <point x="264" y="0" type="line"/>
      <point x="200" y="0" type="line"/>
    </contour>
  </outline>
</glyph>
<glyph name="threequarters" format="1">
  <advance width="880"/>
  <unicode hex="00BE"/>
  <outline>
    <contour>
      <point x="89" y="583" type="curve"/>
      <point x="48" y="636" type="line"/>
      <point x="82" y="661"/>
      <point x="123" y="672"/>
      <point x="162" y="672" type="curve" smooth="yes"/>
      <point x="196" y="672"/>
      <point x="233" y="664"/>
      <point x="263" y="640" type="curve" smooth="yes"/>
      <point x="290" y="618"/>
      <point x="311" y="583"/>
      <point x="311" y="538" type="curve" smooth="yes"/>
      <point x="311" y="500"/>
      <point x="296" y="464"/>
      <point x="260" y="436" type="curve"/>
      <point x="300" y="408"/>
      <point x="319" y="366"/>
      <point x="319" y="323" type="curve" smooth="yes"/>
      <point x="319" y="276"/>
      <point x="297" y="239"/>
      <point x="269" y="217" type="curve" smooth="yes"/>
      <point x="238" y="191"/>
      <point x="198" y="182"/>
      <point x="162" y="182" type="curve" smooth="yes"/>
      <point x="114" y="182"/>
      <point x="72" y="196"/>
      <point x="40" y="223" type="curve"/>
      <point x="83" y="274" type="line"/>
      <point x="101" y="258"/>
      <point x="129" y="248"/>
      <point x="162" y="248" type="curve" smooth="yes"/>
      <point x="186" y="248"/>
      <point x="209" y="254"/>
      <point x="224" y="266" type="curve" smooth="yes"/>
      <point x="238" y="278"/>
      <point x="249" y="298"/>
      <point x="249" y="323" type="curve" smooth="yes"/>
      <point x="249" y="347"/>
      <point x="239" y="369"/>
      <point x="223" y="383" type="curve" smooth="yes"/>
      <point x="206" y="398"/>
      <point x="188" y="401"/>
      <point x="135" y="401" type="curve" smooth="yes"/>
      <point x="126" y="401" type="line"/>
      <point x="126" y="467" type="line"/>
      <point x="135" y="467" type="line" smooth="yes"/>
      <point x="185" y="467"/>
      <point x="201" y="470"/>
      <point x="217" y="483" type="curve" smooth="yes"/>
      <point x="231" y="495"/>
      <point x="241" y="516"/>
      <point x="241" y="538" type="curve" smooth="yes"/>
      <point x="241" y="561"/>
      <point x="231" y="579"/>
      <point x="217" y="590" type="curve" smooth="yes"/>
      <point x="204" y="600"/>
      <point x="184" y="606"/>
      <point x="162" y="606" type="curve" smooth="yes"/>
      <point x="135" y="606"/>
      <point x="108" y="598"/>
    </contour>
    <contour>
      <point x="671" y="478" type="line"/>
      <point x="744" y="478" type="line"/>
      <point x="596" y="176" type="line"/>
      <point x="724" y="176" type="line"/>
      <point x="724" y="289" type="line"/>
      <point x="794" y="289" type="line"/>
      <point x="794" y="176" type="line"/>
      <point x="835" y="176" type="line"/>
      <point x="835" y="110" type="line"/>
      <point x="794" y="110" type="line"/>
      <point x="794" y="0" type="line"/>
      <point x="724" y="0" type="line"/>
      <point x="724" y="110" type="line"/>
      <point x="517" y="110" type="line"/>
      <point x="517" y="163" type="line"/>
    </contour>
    <contour>
      <point x="610" y="667" type="line"/>
      <point x="674" y="667" type="line"/>
      <point x="314" y="0" type="line"/>
      <point x="250" y="0" type="line"/>
    </contour>
  </outline>
</glyph>
<glyph name="AE" format="1">
  <advance width="740"/>
  <unicode hex="00C6"/>
  <outline>
    <contour>
      <point x="365" y="265" type="line"/>
      <point x="365" y="596" type="line"/>
      <point x="314" y="596" type="line" smooth="yes"/>
      <point x="286" y="596"/>
      <point x="278" y="593"/>
      <point x="273" y="588" type="curve" smooth="yes"/>
      <point x="266" y="581"/>
      <point x="261" y="566"/>
      <point x="247" y="512" type="curve" smooth="yes"/>
      <point x="182" y="265" type="line"/>
    </contour>
    <contour>
      <point x="439" y="596" type="line"/>
      <point x="439" y="378" type="line"/>
      <point x="635" y="379" type="line"/>
      <point x="635" y="309" type="line"/>
      <point x="439" y="308" type="line"/>
      <point x="439" y="155" type="line" smooth="yes"/>
      <point x="439" y="114"/>
      <point x="439" y="92"/>
      <point x="456" y="79" type="curve" smooth="yes"/>
      <point x="468" y="70"/>
      <point x="485" y="70"/>
      <point x="522" y="70" type="curve" smooth="yes"/>
      <point x="675" y="70" type="line"/>
      <point x="675" y="0" type="line"/>
      <point x="522" y="0" type="line" smooth="yes"/>
      <point x="478" y="0"/>
      <point x="438" y="-0"/>
      <point x="405" y="28" type="curve" smooth="yes"/>
      <point x="365" y="63"/>
      <point x="365" y="107"/>
      <point x="365" y="155" type="curve" smooth="yes"/>
      <point x="365" y="195" type="line"/>
      <point x="163" y="195" type="line"/>
      <point x="111" y="0" type="line"/>
      <point x="35" y="0" type="line"/>
      <point x="175" y="528" type="line" smooth="yes"/>
      <point x="196" y="608"/>
      <point x="204" y="622"/>
      <point x="221" y="638" type="curve" smooth="yes"/>
      <point x="241" y="657"/>
      <point x="268" y="666"/>
      <point x="314" y="666" type="curve" smooth="yes"/>
      <point x="675" y="666" type="line"/>
      <point x="675" y="596" type="line"/>
    </contour>
  </outline>
</glyph>
<glyph name="Ccedilla" format="1">
  <advance width="537"/>
  <unicode hex="00C7"/>
  <outline>
    <contour>
      <point x="227" y="-128" type="line"/>
      <point x="241" y="-134"/>
      <point x="256" y="-137"/>
      <point x="268" y="-137" type="curve" smooth="yes"/>
      <point x="277" y="-137"/>
      <point x="290" y="-137"/>
      <point x="304" y="-130" type="curve" smooth="yes"/>
      <point x="316" y="-123"/>
      <point x="324" y="-113"/>
      <point x="324" y="-100" type="curve" smooth="yes"/>
      <point x="324" y="-90"/>
      <point x="319" y="-80"/>
      <point x="308" y="-74" type="curve" smooth="yes"/>
      <point x="300" y="-70"/>
      <point x="292" y="-70"/>
      <point x="283" y="-70" type="curve" smooth="yes"/>
      <point x="246" y="-70" type="line"/>
      <point x="266" y="-5" type="line"/>
      <point x="219" y="-1"/>
      <point x="173" y="14"/>
      <point x="137" y="45" type="curve" smooth="yes"/>
      <point x="65" y="107"/>
      <point x="65" y="191"/>
      <point x="65" y="279" type="curve" smooth="yes"/>
      <point x="65" y="387" type="line" smooth="yes"/>
      <point x="65" y="474"/>
      <point x="65" y="558"/>
      <point x="136" y="620" type="curve" smooth="yes"/>
      <point x="175" y="654"/>
      <point x="230" y="672"/>
      <point x="290" y="672" type="curve" smooth="yes"/>
      <point x="351" y="672"/>
      <point x="417" y="654"/>
      <point x="467" y="614" type="curve"/>
      <point x="423" y="558" type="line"/>
      <point x="387" y="587"/>
      <point x="339" y="602"/>
      <point x="290" y="602" type="curve" smooth="yes"/>
      <point x="256" y="602"/>
      <point x="216" y="594"/>
      <point x="188" y="570" type="curve" smooth="yes"/>
      <point x="139" y="528"/>
      <point x="139" y="468"/>
      <point x="139" y="387" type="curve" smooth="yes"/>
      <point x="139" y="279" type="line" smooth="yes"/>
      <point x="139" y="196"/>
      <point x="139" y="139"/>
      <point x="187" y="97" type="curve" smooth="yes"/>
      <point x="211" y="76"/>
      <point x="246" y="64"/>
      <point x="290" y="64" type="curve" smooth="yes"/>
      <point x="348" y="64"/>
      <point x="399" y="85"/>
      <point x="431" y="114" type="curve"/>
      <point x="477" y="59" type="line"/>
      <point x="435" y="24"/>
      <point x="377" y="-1"/>
      <point x="310" y="-5" type="curve"/>
      <point x="301" y="-37" type="line"/>
      <point x="322" y="-37"/>
      <point x="338" y="-37"/>
      <point x="357" y="-50" type="curve" smooth="yes"/>
      <point x="372" y="-61"/>
      <point x="380" y="-79"/>
      <point x="380" y="-99" type="curve" smooth="yes"/>
      <point x="380" y="-127"/>
      <point x="365" y="-149"/>
      <point x="349" y="-163" type="curve" smooth="yes"/>
      <point x="331" y="-178"/>
      <point x="302" y="-189"/>
      <point x="268" y="-189" type="curve" smooth="yes"/>
      <point x="250" y="-189"/>
      <point x="230" y="-186"/>
      <point x="211" y="-178" type="curve"/>
    </contour>
  </outline>
</glyph>
<glyph name="germandbls" format="1">
  <advance width="505"/>
  <unicode hex="00DF"/>
  <outline>
    <contour>
      <point x="230" y="673" type="curve" smooth="yes"/>
      <point x="259" y="673"/>
      <point x="296" y="667"/>
      <point x="332" y="642" type="curve" smooth="yes"/>
      <point x="368" y="617"/>
      <point x="397" y="571"/>
      <point x="397" y="514" type="curve" smooth="yes"/>
      <point x="397" y="465"/>
      <point x="376" y="420"/>
      <point x="347" y="391" type="curve"/>
      <point x="377" y="379"/>
      <point x="406" y="361"/>
      <point x="427" y="328" type="curve" smooth="yes"/>
      <point x="455" y="284"/>
      <point x="455" y="240"/>
      <point x="455" y="200" type="curve"/>
      <point x="455" y="158"/>
      <point x="455" y="103"/>
      <point x="414" y="55" type="curve" smooth="yes"/>
      <point x="383" y="19"/>
      <point x="333" y="-6"/>
      <point x="269" y="-6" type="curve" smooth="yes"/>
      <point x="243" y="-6"/>
      <point x="220" y="-2"/>
      <point x="198" y="4" type="curve"/>
      <point x="216" y="68" type="line"/>
      <point x="233" y="63"/>
      <point x="251" y="60"/>
      <point x="269" y="60" type="curve" smooth="yes"/>
      <point x="307" y="60"/>
      <point x="339" y="73"/>
      <point x="358" y="95" type="curve" smooth="yes"/>
      <point x="385" y="126"/>
      <point x="385" y="160"/>
      <point x="385" y="200" type="curve"/>
      <point x="385" y="240"/>
      <point x="385" y="272"/>
      <point x="361" y="302" type="curve" smooth="yes"/>
      <point x="332" y="339"/>
      <point x="281" y="339"/>
      <point x="224" y="339" type="curve"/>
      <point x="224" y="405" type="line"/>
      <point x="282" y="405"/>
      <point x="327" y="455"/>
      <point x="327" y="514" type="curve" smooth="yes"/>
      <point x="327" y="547"/>
      <point x="312" y="573"/>
      <point x="292" y="588" type="curve" smooth="yes"/>
      <point x="275" y="600"/>
      <point x="253" y="607"/>
      <point x="230" y="607" type="curve" smooth="yes"/>
      <point x="209" y="607"/>
      <point x="177" y="601"/>
      <point x="156" y="576" type="curve" smooth="yes"/>
      <point x="135" y="551"/>
      <point x="135" y="521"/>
      <point x="135" y="465" type="curve" smooth="yes"/>
      <point x="135" y="0" type="line"/>
      <point x="65" y="0" type="line"/>
      <point x="65" y="465" type="line" smooth="yes"/>
      <point x="65" y="522"/>
      <point x="65" y="577"/>
      <point x="104" y="620" type="curve" smooth="yes"/>
      <point x="132.064" y="650.942"/>
      <point x="176" y="673"/>
    </contour>
  </outline>
</glyph>
<glyph name="ae" format="1">
  <advance width="668"/>
  <unicode hex="00E6"/>
  <outline>
    <contour>
      <point x="553" y="355" type="curve" smooth="yes"/>
      <point x="553" y="367"/>
      <point x="549" y="388"/>
      <point x="530" y="402" type="curve" smooth="yes"/>
      <point x="510" y="417"/>
      <point x="484" y="417"/>
      <point x="477" y="417" type="curve" smooth="yes"/>
      <point x="447" y="417"/>
      <point x="416" y="408"/>
      <point x="394" y="389" type="curve" smooth="yes"/>
      <point x="363" y="362"/>
      <point x="363" y="327"/>
      <point x="363" y="297" type="curve" smooth="yes"/>
      <point x="363" y="286" type="line"/>
      <point x="457" y="286" type="line" smooth="yes"/>
      <point x="482" y="286"/>
      <point x="504" y="286"/>
      <point x="525" y="300" type="curve" smooth="yes"/>
      <point x="540" y="310"/>
      <point x="553" y="330"/>
    </contour>
    <contour>
      <point x="222" y="224" type="line" smooth="yes"/>
      <point x="191" y="224"/>
      <point x="162" y="224"/>
      <point x="139" y="209" type="curve" smooth="yes"/>
      <point x="120" y="196"/>
      <point x="110" y="173"/>
      <point x="110" y="144" type="curve" smooth="yes"/>
      <point x="110" y="120"/>
      <point x="117" y="99"/>
      <point x="129" y="86" type="curve" smooth="yes"/>
      <point x="143" y="70"/>
      <point x="164" y="60"/>
      <point x="193" y="60" type="curve" smooth="yes"/>
      <point x="223" y="60"/>
      <point x="253" y="72"/>
      <point x="270" y="92" type="curve" smooth="yes"/>
      <point x="293" y="119"/>
      <point x="293" y="150"/>
      <point x="293" y="178" type="curve" smooth="yes"/>
      <point x="293" y="224" type="line"/>
    </contour>
    <contour>
      <point x="198" y="483" type="curve" smooth="yes"/>
      <point x="257" y="483"/>
      <point x="304" y="461"/>
      <point x="331" y="419" type="curve" smooth="yes"/>
      <point x="362" y="458"/>
      <point x="412" y="483"/>
      <point x="477" y="483" type="curve" smooth="yes"/>
      <point x="506" y="483"/>
      <point x="542" y="477"/>
      <point x="572" y="455" type="curve" smooth="yes"/>
      <point x="600" y="435"/>
      <point x="623" y="398"/>
      <point x="623" y="355" type="curve" smooth="yes"/>
      <point x="623" y="308"/>
      <point x="598" y="272"/>
      <point x="568" y="251" type="curve" smooth="yes"/>
      <point x="529" y="224"/>
      <point x="485" y="224"/>
      <point x="457" y="224" type="curve" smooth="yes"/>
      <point x="363" y="224" type="line"/>
      <point x="363" y="183" type="line" smooth="yes"/>
      <point x="363" y="150"/>
      <point x="363" y="109"/>
      <point x="398" y="81" type="curve" smooth="yes"/>
      <point x="419" y="64"/>
      <point x="446" y="60"/>
      <point x="467" y="60" type="curve" smooth="yes"/>
      <point x="501" y="60"/>
      <point x="539" y="72"/>
      <point x="570" y="90" type="curve"/>
      <point x="603" y="32" type="line"/>
      <point x="561" y="9"/>
      <point x="515" y="-6"/>
      <point x="467" y="-6" type="curve" smooth="yes"/>
      <point x="400" y="-6"/>
      <point x="358" y="19"/>
      <point x="329" y="60" type="curve"/>
      <point x="300" y="18"/>
      <point x="252" y="-6"/>
      <point x="193" y="-6" type="curve" smooth="yes"/>
      <point x="149" y="-6"/>
      <point x="113" y="9"/>
      <point x="88" y="31" type="curve" smooth="yes"/>
      <point x="60" y="55"/>
      <point x="40" y="94"/>
      <point x="40" y="144" type="curve" smooth="yes"/>
      <point x="40" y="195"/>
      <point x="62" y="233"/>
      <point x="92" y="255" type="curve" smooth="yes"/>
      <point x="134" y="286"/>
      <point x="183" y="286"/>
      <point x="222" y="286" type="curve" smooth="yes"/>
      <point x="293" y="286" type="line"/>
      <point x="293" y="307" type="line" smooth="yes"/>
      <point x="293" y="333"/>
      <point x="293" y="362"/>
      <point x="274" y="386" type="curve" smooth="yes"/>
      <point x="258" y="406"/>
      <point x="232" y="417"/>
      <point x="198" y="417" type="curve" smooth="yes"/>
      <point x="163" y="417"/>
      <point x="127" y="407"/>
      <point x="91" y="390" type="curve"/>
      <point x="62" y="450" type="line"/>
      <point x="105" y="470"/>
      <point x="151" y="483"/>
    </contour>
  </outline>
</glyph>
<glyph name="ccedilla" format="1">
  <advance width="419"/>
  <unicode hex="00E7"/>
  <outline>
    <contour>
      <point x="172" y="-128" type="line"/>
      <point x="186" y="-134"/>
      <point x="201" y="-137"/>
      <point x="213" y="-137" type="curve" smooth="yes"/>
      <point x="222" y="-137"/>
      <point x="235" y="-137"/>
      <point x="249" y="-130" type="curve" smooth="yes"/>
      <point x="261" y="-123"/>
      <point x="269" y="-113"/>
      <point x="269" y="-100" type="curve" smooth="yes"/>
      <point x="269" y="-90"/>
      <point x="264" y="-80"/>
      <point x="253" y="-74" type="curve" smooth="yes"/>
      <point x="245" y="-70"/>
      <point x="237" y="-70"/>
      <point x="228" y="-70" type="curve" smooth="yes"/>
      <point x="191" y="-70" type="line"/>
      <point x="211.471" y="-4.86614" type="line"/>
      <point x="159.35" y="0.276604"/>
      <point x="120.123" y="22.4866"/>
      <point x="93" y="53" type="curve" smooth="yes"/>
      <point x="45" y="107"/>
      <point x="45" y="184"/>
      <point x="45" y="243" type="curve" smooth="yes"/>
      <point x="45" y="295"/>
      <point x="45" y="370"/>
      <point x="92" y="424" type="curve" smooth="yes"/>
      <point x="123" y="460"/>
      <point x="171" y="484"/>
      <point x="235" y="484" type="curve" smooth="yes"/>
      <point x="283" y="484"/>
      <point x="331" y="471"/>
      <point x="372" y="445" type="curve"/>
      <point x="338" y="388" type="line"/>
      <point x="308" y="407"/>
      <point x="271" y="418"/>
      <point x="235" y="418" type="curve" smooth="yes"/>
      <point x="204" y="418"/>
      <point x="170" y="410"/>
      <point x="146" y="382" type="curve" smooth="yes"/>
      <point x="115" y="346"/>
      <point x="115" y="287"/>
      <point x="115" y="243" type="curve" smooth="yes"/>
      <point x="115" y="192"/>
      <point x="115" y="132"/>
      <point x="147" y="95" type="curve" smooth="yes"/>
      <point x="166.016" y="73.0137"/>
      <point x="196" y="60"/>
      <point x="235" y="60" type="curve" smooth="yes"/>
      <point x="273" y="60"/>
      <point x="311" y="71"/>
      <point x="343" y="93" type="curve"/>
      <point x="379" y="37" type="line"/>
      <point x="342.621" y="12.7472"/>
      <point x="299.489" y="-1.75227"/>
      <point x="255.454" y="-5.19882" type="curve"/>
      <point x="246" y="-37" type="line"/>
      <point x="267" y="-37"/>
      <point x="283" y="-37"/>
      <point x="302" y="-50" type="curve" smooth="yes"/>
      <point x="317" y="-61"/>
      <point x="325" y="-79"/>
      <point x="325" y="-99" type="curve" smooth="yes"/>
      <point x="325" y="-127"/>
      <point x="310" y="-149"/>
      <point x="294" y="-163" type="curve" smooth="yes"/>
      <point x="276" y="-178"/>
      <point x="247" y="-189"/>
      <point x="213" y="-189" type="curve" smooth="yes"/>
      <point x="195" y="-189"/>
      <point x="175" y="-186"/>
      <point x="156" y="-178" type="curve"/>
    </contour>
  </outline>
</glyph>
<glyph name="eth" format="1">
  <advance width="485"/>
  <unicode hex="00F0"/>
  <outline>
    <contour>
      <point x="0" y="0" type="move" name="DoubleTop"/>
    </contour>
    <contour>
      <point x="0" y="0" type="move" name="Center"/>
    </contour>
    <contour>
      <point x="0" y="0" type="move" name="Top"/>
    </contour>
    <contour>
      <point x="488" y="667" type="move" name="Apos"/>
    </contour>
    <contour>
      <point x="230" y="0" type="move" name="Bottom"/>
    </contour>
    <contour>
      <point x="240" y="418" type="curve" smooth="yes"/>
      <point x="217" y="418"/>
      <point x="181" y="412"/>
      <point x="157" y="385" type="curve" smooth="yes"/>
      <point x="125" y="349"/>
      <point x="125" y="295"/>
      <point x="125" y="239" type="curve" smooth="yes"/>
      <point x="125" y="183"/>
      <point x="125" y="129"/>
      <point x="157" y="93" type="curve" smooth="yes"/>
      <point x="181" y="66"/>
      <point x="217" y="60"/>
      <point x="240" y="60" type="curve" smooth="yes"/>
      <point x="263" y="60"/>
      <point x="299" y="66"/>
      <point x="323" y="93" type="curve" smooth="yes"/>
      <point x="355" y="129"/>
      <point x="355" y="183"/>
      <point x="355" y="239" type="curve" smooth="yes"/>
      <point x="355" y="295"/>
      <point x="355" y="349"/>
      <point x="323" y="385" type="curve" smooth="yes"/>
      <point x="299" y="412"/>
      <point x="263" y="418"/>
    </contour>
    <contour>
      <point x="235" y="484" type="curve" smooth="yes"/>
      <point x="277" y="484"/>
      <point x="314" y="469"/>
      <point x="344" y="439" type="curve"/>
      <point x="332" y="498"/>
      <point x="307" y="549"/>
      <point x="276" y="589" type="curve"/>
      <point x="189" y="541" type="line"/>
      <point x="163" y="587" type="line"/>
      <point x="238" y="628" type="line"/>
      <point x="214" y="648"/>
      <point x="187" y="664"/>
      <point x="159" y="674" type="curve"/>
      <point x="177" y="723" type="line"/>
      <point x="220" y="709"/>
      <point x="259" y="687"/>
      <point x="292" y="658" type="curve"/>
      <point x="381" y="707" type="line"/>
      <point x="407" y="661" type="line"/>
      <point x="331" y="620" type="line"/>
      <point x="395" y="535"/>
      <point x="425" y="420"/>
      <point x="425" y="239" type="curve" smooth="yes"/>
      <point x="425" y="184"/>
      <point x="425" y="120"/>
      <point x="390" y="68" type="curve" smooth="yes"/>
      <point x="357" y="19"/>
      <point x="300" y="-6"/>
      <point x="240" y="-6" type="curve" smooth="yes"/>
      <point x="180" y="-6"/>
      <point x="123" y="19"/>
      <point x="90" y="68" type="curve" smooth="yes"/>
      <point x="55" y="120"/>
      <point x="55" y="184"/>
      <point x="55" y="239" type="curve" smooth="yes"/>
      <point x="55" y="310"/>
      <point x="55" y="372"/>
      <point x="102" y="427" type="curve" smooth="yes"/>
      <point x="131" y="461"/>
      <point x="178" y="484"/>
    </contour>
  </outline>
</glyph>
<glyph name="divide" format="1">
  <advance width="520"/>
  <unicode hex="00F7"/>
  <outline>
    <contour>
      <point x="80" y="280" type="line"/>
      <point x="440" y="280" type="line"/>
      <point x="440" y="222" type="line"/>
      <point x="80" y="222" type="line"/>
    </contour>
    <contour>
      <point x="261" y="439" type="curve" smooth="yes"/>
      <point x="288" y="439"/>
      <point x="307" y="420"/>
      <point x="307" y="394" type="curve" smooth="yes"/>
      <point x="307" y="367"/>
      <point x="288" y="348"/>
      <point x="261" y="348" type="curve" smooth="yes"/>
      <point x="234" y="348"/>
      <point x="215" y="367"/>
      <point x="215" y="394" type="curve" smooth="yes"/>
      <point x="215" y="420"/>
      <point x="234" y="439"/>
    </contour>
    <contour>
      <point x="261" y="149" type="curve" smooth="yes"/>
      <point x="288" y="149"/>
      <point x="307" y="130"/>
      <point x="307" y="103" type="curve" smooth="yes"/>
      <point x="307" y="77"/>
      <point x="288" y="58"/>
      <point x="261" y="58" type="curve" smooth="yes"/>
      <point x="234" y="58"/>
      <point x="215" y="77"/>
      <point x="215" y="103" type="curve" smooth="yes"/>
      <point x="215" y="130"/>
      <point x="234" y="149"/>
    </contour>
  </outline>
</glyph>
<glyph name="oslash" format="1">
  <advance width="490"/>
  <unicode hex="00F8"/>
  <outline>
    <contour>
      <point x="0" y="0" type="move" name="DoubleTop"/>
    </contour>
    <contour>
      <point x="0" y="0" type="move" name="Apos"/>
    </contour>
    <contour>
      <point x="5" y="0" type="move" name="Bottom"/>
    </contour>
    <contour>
      <point x="5" y="0" type="move" name="Center"/>
    </contour>
    <contour>
      <point x="250" y="546" type="move" name="Top"/>
    </contour>
    <contour>
      <point x="245" y="418" type="curve" smooth="yes"/>
      <point x="205" y="418"/>
      <point x="170" y="403"/>
      <point x="150" y="375" type="curve" smooth="yes"/>
      <point x="125" y="340"/>
      <point x="125" y="293"/>
      <point x="125" y="239" type="curve" smooth="yes"/>
      <point x="125" y="194"/>
      <point x="125" y="155"/>
      <point x="139" y="122" type="curve"/>
      <point x="319" y="396" type="line"/>
      <point x="300" y="410"/>
      <point x="274" y="418"/>
    </contour>
    <contour>
      <point x="245" y="484" type="curve" smooth="yes"/>
      <point x="285" y="484"/>
      <point x="324" y="474"/>
      <point x="357" y="452" type="curve"/>
      <point x="387" y="498" type="line"/>
      <point x="445" y="498" type="line"/>
      <point x="393" y="419" type="line"/>
      <point x="435" y="367"/>
      <point x="435" y="300"/>
      <point x="435" y="239" type="curve" smooth="yes"/>
      <point x="435" y="181"/>
      <point x="435" y="120"/>
      <point x="400" y="69" type="curve" smooth="yes"/>
      <point x="365" y="18"/>
      <point x="306" y="-6"/>
      <point x="245" y="-6" type="curve" smooth="yes"/>
      <point x="205" y="-6"/>
      <point x="166" y="4"/>
      <point x="133" y="26" type="curve"/>
      <point x="103" y="-20" type="line"/>
      <point x="45" y="-20" type="line"/>
      <point x="97" y="59" type="line"/>
      <point x="55" y="112"/>
      <point x="55" y="177"/>
      <point x="55" y="239" type="curve" smooth="yes"/>
      <point x="55" y="297"/>
      <point x="55" y="358"/>
      <point x="90" y="409" type="curve" smooth="yes"/>
      <point x="125" y="460"/>
      <point x="184" y="484"/>
    </contour>
    <contour>
      <point x="245" y="60" type="curve" smooth="yes"/>
      <point x="285" y="60"/>
      <point x="320" y="75"/>
      <point x="340" y="103" type="curve" smooth="yes"/>
      <point x="365" y="138"/>
      <point x="365" y="185"/>
      <point x="365" y="239" type="curve" smooth="yes"/>
      <point x="365" y="284"/>
      <point x="365" y="323"/>
      <point x="351" y="356" type="curve"/>
      <point x="171" y="82" type="line"/>
      <point x="190" y="68"/>
      <point x="216" y="60"/>
    </contour>
  </outline>
</glyph>
<glyph name="Aogonek" format="1">
  <advance width="594"/>
  <unicode hex="0104"/>
  <outline>
    <contour>
      <point x="297" y="672" type="curve" smooth="yes"/>
      <point x="323" y="672"/>
      <point x="350" y="663"/>
      <point x="370" y="644" type="curve" smooth="yes"/>
      <point x="387" y="628"/>
      <point x="395" y="614"/>
      <point x="416" y="534" type="curve" smooth="yes"/>
      <point x="559" y="0" type="line"/>
      <point x="513" y="-12"/>
      <point x="454" y="-39"/>
      <point x="454" y="-96" type="curve" smooth="yes"/>
      <point x="454" y="-117"/>
      <point x="469" y="-133"/>
      <point x="490" y="-133" type="curve" smooth="yes"/>
      <point x="502" y="-133"/>
      <point x="515" y="-128"/>
      <point x="529" y="-119" type="curve"/>
      <point x="559" y="-167" type="line"/>
      <point x="540" y="-178"/>
      <point x="517" y="-189"/>
      <point x="490" y="-189" type="curve" smooth="yes"/>
      <point x="438" y="-189"/>
      <point x="398" y="-148"/>
      <point x="398" y="-96" type="curve" smooth="yes"/>
      <point x="398" y="-49"/>
      <point x="439" y="-19"/>
      <point x="483" y="0" type="curve"/>
      <point x="431" y="195" type="line"/>
      <point x="163" y="195" type="line"/>
      <point x="111" y="0" type="line"/>
      <point x="35" y="0" type="line"/>
      <point x="178" y="534" type="line" smooth="yes"/>
      <point x="199" y="614"/>
      <point x="207" y="628"/>
      <point x="224" y="644" type="curve" smooth="yes"/>
      <point x="244" y="663"/>
      <point x="271" y="672"/>
    </contour>
    <contour>
      <point x="182" y="265" type="line"/>
      <point x="412" y="265" type="line"/>
      <point x="344" y="518" type="line" smooth="yes"/>
      <point x="330" y="572"/>
      <point x="325" y="587"/>
      <point x="318" y="594" type="curve" smooth="yes"/>
      <point x="313" y="599"/>
      <point x="305" y="602"/>
      <point x="297" y="602" type="curve" smooth="yes"/>
      <point x="289" y="602"/>
      <point x="281" y="599"/>
      <point x="276" y="594" type="curve" smooth="yes"/>
      <point x="269" y="587"/>
      <point x="264" y="572"/>
      <point x="250" y="518" type="curve" smooth="yes"/>
    </contour>
  </outline>
</glyph>
<glyph name="aogonek" format="1">
  <advance width="438"/>
  <unicode hex="0105"/>
  <outline>
    <contour>
      <point x="318" y="200" type="curve" smooth="yes"/>
      <point x="318" y="229" type="line"/>
      <point x="236" y="229" type="line" smooth="yes"/>
      <point x="202" y="229"/>
      <point x="166" y="229"/>
      <point x="138" y="209" type="curve" smooth="yes"/>
      <point x="120" y="196"/>
      <point x="105" y="173"/>
      <point x="105" y="142" type="curve" smooth="yes"/>
      <point x="105" y="114"/>
      <point x="119" y="92"/>
      <point x="137" y="79" type="curve" smooth="yes"/>
      <point x="156" y="66"/>
      <point x="184" y="60"/>
      <point x="216" y="60" type="curve" smooth="yes"/>
      <point x="253" y="60"/>
      <point x="282" y="68"/>
      <point x="299" y="88" type="curve" smooth="yes"/>
      <point x="318" y="110"/>
      <point x="318" y="141"/>
    </contour>
    <contour>
      <point x="388" y="200" type="line" smooth="yes"/>
      <point x="388" y="134"/>
      <point x="388" y="85"/>
      <point x="353" y="46" type="curve" smooth="yes"/>
      <point x="320" y="9"/>
      <point x="250" y="-22"/>
      <point x="250" y="-75" type="curve" smooth="yes"/>
      <point x="250" y="-96"/>
      <point x="265" y="-112"/>
      <point x="286" y="-112" type="curve" smooth="yes"/>
      <point x="298" y="-112"/>
      <point x="311" y="-107"/>
      <point x="325" y="-98" type="curve"/>
      <point x="355" y="-146" type="line"/>
      <point x="336" y="-157"/>
      <point x="313" y="-168"/>
      <point x="286" y="-168" type="curve" smooth="yes"/>
      <point x="234" y="-168"/>
      <point x="194" y="-127"/>
      <point x="194" y="-75" type="curve" smooth="yes"/>
      <point x="194" y="-46"/>
      <point x="218" y="-18"/>
      <point x="239" y="-4" type="curve"/>
      <point x="231" y="-6"/>
      <point x="224" y="-6"/>
      <point x="216" y="-6" type="curve" smooth="yes"/>
      <point x="168" y="-6"/>
      <point x="127" y="4"/>
      <point x="95" y="27" type="curve" smooth="yes"/>
      <point x="62" y="50"/>
      <point x="35" y="90"/>
      <point x="35" y="142" type="curve" smooth="yes"/>
      <point x="35" y="195"/>
      <point x="62" y="234"/>
      <point x="94" y="257" type="curve" smooth="yes"/>
      <point x="141" y="291"/>
      <point x="197" y="291"/>
      <point x="236" y="291" type="curve" smooth="yes"/>
      <point x="318" y="291" type="line"/>
      <point x="318" y="322"/>
      <point x="318" y="362"/>
      <point x="294" y="389" type="curve" smooth="yes"/>
      <point x="277" y="408"/>
      <point x="251" y="418"/>
      <point x="213" y="418" type="curve" smooth="yes"/>
      <point x="169" y="418"/>
      <point x="125" y="408"/>
      <point x="83" y="392" type="curve"/>
      <point x="61" y="455" type="line"/>
      <point x="108" y="472"/>
      <point x="159" y="484"/>
      <point x="213" y="484" type="curve" smooth="yes"/>
      <point x="273" y="484"/>
      <point x="318" y="465"/>
      <point x="348" y="431" type="curve" smooth="yes"/>
      <point x="388" y="386"/>
      <point x="388" y="327"/>
      <point x="388" y="274" type="curve" smooth="yes"/>
    </contour>
  </outline>
</glyph>
<glyph name="Dcroat" format="1">
  <advance width="629"/>
  <unicode hex="0110"/>
  <outline>
    <contour>
      <point x="282" y="596" type="curve" smooth="yes"/>
      <point x="245" y="596"/>
      <point x="228" y="596"/>
      <point x="216" y="587" type="curve" smooth="yes"/>
      <point x="199" y="574"/>
      <point x="199" y="552"/>
      <point x="199" y="511" type="curve" smooth="yes"/>
      <point x="199" y="375" type="line"/>
      <point x="328" y="375" type="line"/>
      <point x="328" y="313" type="line"/>
      <point x="199" y="313" type="line"/>
      <point x="199" y="155" type="line" smooth="yes"/>
      <point x="199" y="114"/>
      <point x="199" y="92"/>
      <point x="216" y="79" type="curve" smooth="yes"/>
      <point x="228" y="70"/>
      <point x="245" y="70"/>
      <point x="282" y="70" type="curve" smooth="yes"/>
      <point x="344" y="70"/>
      <point x="416" y="70"/>
      <point x="457" y="130" type="curve" smooth="yes"/>
      <point x="491" y="179"/>
      <point x="491" y="242"/>
      <point x="491" y="333" type="curve" smooth="yes"/>
      <point x="491" y="424"/>
      <point x="491" y="487"/>
      <point x="457" y="536" type="curve" smooth="yes"/>
      <point x="416" y="596"/>
      <point x="344" y="596"/>
    </contour>
    <contour>
      <point x="282" y="666" type="curve" smooth="yes"/>
      <point x="354" y="666"/>
      <point x="455" y="666"/>
      <point x="519" y="574" type="curve" smooth="yes"/>
      <point x="565" y="508"/>
      <point x="565" y="435"/>
      <point x="565" y="333" type="curve" smooth="yes"/>
      <point x="565" y="231"/>
      <point x="565" y="158"/>
      <point x="519" y="92" type="curve" smooth="yes"/>
      <point x="455" y="0"/>
      <point x="354" y="0"/>
      <point x="282" y="0" type="curve" smooth="yes"/>
      <point x="238" y="0"/>
      <point x="198" y="0"/>
      <point x="165" y="28" type="curve" smooth="yes"/>
      <point x="125" y="63"/>
      <point x="125" y="107"/>
      <point x="125" y="155" type="curve" smooth="yes"/>
      <point x="125" y="313" type="line"/>
      <point x="55" y="313" type="line"/>
      <point x="55" y="375" type="line"/>
      <point x="125" y="375" type="line"/>
      <point x="125" y="511" type="line" smooth="yes"/>
      <point x="125" y="559"/>
      <point x="125" y="603"/>
      <point x="165" y="638" type="curve" smooth="yes"/>
      <point x="198" y="666"/>
      <point x="238" y="666"/>
    </contour>
  </outline>
</glyph>
<glyph name="dcroat" format="1">
  <advance width="517"/>
  <unicode hex="0111"/>
  <outline>
    <contour>
      <point x="235" y="484" type="curve" smooth="yes"/>
      <point x="274" y="484"/>
      <point x="322" y="472"/>
      <point x="355" y="427" type="curve"/>
      <point x="355" y="546" type="line"/>
      <point x="239" y="546" type="line"/>
      <point x="239" y="608" type="line"/>
      <point x="355" y="608" type="line"/>
      <point x="355" y="666" type="line"/>
      <point x="425" y="666" type="line"/>
      <point x="425" y="608" type="line"/>
      <point x="487" y="608" type="line"/>
      <point x="487" y="546" type="line"/>
      <point x="425" y="546" type="line"/>
      <point x="425" y="239" type="line" smooth="yes"/>
      <point x="425" y="130"/>
      <point x="425" y="103"/>
      <point x="402" y="65" type="curve" smooth="yes"/>
      <point x="374" y="19"/>
      <point x="321" y="-6"/>
      <point x="250" y="-6" type="curve" smooth="yes"/>
      <point x="191" y="-6"/>
      <point x="132" y="10"/>
      <point x="93" y="62" type="curve" smooth="yes"/>
      <point x="55" y="113"/>
      <point x="55" y="174"/>
      <point x="55" y="239" type="curve" smooth="yes"/>
      <point x="55" y="294"/>
      <point x="55" y="358"/>
      <point x="89" y="410" type="curve" smooth="yes"/>
      <point x="121" y="459"/>
      <point x="177" y="484"/>
    </contour>
    <contour>
      <point x="240" y="418" type="curve" smooth="yes"/>
      <point x="217" y="418"/>
      <point x="181" y="412"/>
      <point x="157" y="385" type="curve" smooth="yes"/>
      <point x="125" y="349"/>
      <point x="125" y="295"/>
      <point x="125" y="239" type="curve" smooth="yes"/>
      <point x="125" y="182"/>
      <point x="125" y="130"/>
      <point x="153" y="96" type="curve" smooth="yes"/>
      <point x="176" y="68"/>
      <point x="214" y="60"/>
      <point x="250" y="60" type="curve" smooth="yes"/>
      <point x="290" y="60"/>
      <point x="324" y="70"/>
      <point x="342" y="99" type="curve" smooth="yes"/>
      <point x="355" y="120"/>
      <point x="355" y="145"/>
      <point x="355" y="239" type="curve" smooth="yes"/>
      <point x="355" y="295"/>
      <point x="355" y="349"/>
      <point x="323" y="385" type="curve" smooth="yes"/>
      <point x="299" y="412"/>
      <point x="263" y="418"/>
    </contour>
  </outline>
</glyph>
<glyph name="Eogonek" format="1">
  <advance width="500"/>
  <unicode hex="0118"/>
  <outline>
    <contour>
      <point x="149" y="378" type="line"/>
      <point x="385" y="379" type="line"/>
      <point x="385" y="309" type="line"/>
      <point x="149" y="308" type="line"/>
      <point x="149" y="155" type="line" smooth="yes"/>
      <point x="149" y="114"/>
      <point x="149" y="92"/>
      <point x="166" y="79" type="curve" smooth="yes"/>
      <point x="178" y="70"/>
      <point x="195" y="70"/>
      <point x="232" y="70" type="curve" smooth="yes"/>
      <point x="435" y="70" type="line"/>
      <point x="435" y="0" type="line"/>
      <point x="389" y="-13"/>
      <point x="329" y="-41"/>
      <point x="329" y="-100" type="curve" smooth="yes"/>
      <point x="329" y="-121"/>
      <point x="344" y="-137"/>
      <point x="365" y="-137" type="curve" smooth="yes"/>
      <point x="377" y="-137"/>
      <point x="390" y="-132"/>
      <point x="404" y="-123" type="curve"/>
      <point x="434" y="-171" type="line"/>
      <point x="415" y="-182"/>
      <point x="392" y="-193"/>
      <point x="365" y="-193" type="curve" smooth="yes"/>
      <point x="313" y="-193"/>
      <point x="273" y="-152"/>
      <point x="273" y="-100" type="curve" smooth="yes"/>
      <point x="273" y="-50"/>
      <point x="315" y="-19"/>
      <point x="360" y="0" type="curve"/>
      <point x="232" y="0" type="line" smooth="yes"/>
      <point x="188" y="0"/>
      <point x="148" y="-0"/>
      <point x="115" y="28" type="curve" smooth="yes"/>
      <point x="75" y="63"/>
      <point x="75" y="107"/>
      <point x="75" y="155" type="curve" smooth="yes"/>
      <point x="75" y="511" type="line" smooth="yes"/>
      <point x="75" y="559"/>
      <point x="75" y="604"/>
      <point x="115" y="638" type="curve" smooth="yes"/>
      <point x="148" y="666"/>
      <point x="188" y="666"/>
      <point x="232" y="666" type="curve" smooth="yes"/>
      <point x="435" y="666" type="line"/>
      <point x="435" y="596" type="line"/>
      <point x="232" y="596" type="line" smooth="yes"/>
      <point x="195" y="596"/>
      <point x="178" y="596"/>
      <point x="166" y="587" type="curve" smooth="yes"/>
      <point x="149" y="574"/>
      <point x="149" y="552"/>
      <point x="149" y="511" type="curve" smooth="yes"/>
    </contour>
  </outline>
</glyph>
<glyph name="eogonek" format="1">
  <advance width="454"/>
  <unicode hex="0119"/>
  <outline>
    <contour>
      <point x="139" y="102" type="curve" smooth="yes"/>
      <point x="159" y="75"/>
      <point x="191" y="60"/>
      <point x="239" y="60" type="curve" smooth="yes"/>
      <point x="282" y="60"/>
      <point x="325" y="70"/>
      <point x="361" y="89" type="curve"/>
      <point x="390" y="29" type="line"/>
      <point x="343" y="5"/>
      <point x="285" y="-22"/>
      <point x="285" y="-71" type="curve" smooth="yes"/>
      <point x="285" y="-92"/>
      <point x="300" y="-108"/>
      <point x="321" y="-108" type="curve" smooth="yes"/>
      <point x="333" y="-108"/>
      <point x="346" y="-103"/>
      <point x="360" y="-94" type="curve"/>
      <point x="390" y="-142" type="line"/>
      <point x="371" y="-153"/>
      <point x="348" y="-164"/>
      <point x="321" y="-164" type="curve" smooth="yes"/>
      <point x="269" y="-164"/>
      <point x="229" y="-123"/>
      <point x="229" y="-71" type="curve" smooth="yes"/>
      <point x="229" y="-44"/>
      <point x="247" y="-22"/>
      <point x="272" y="-4" type="curve"/>
      <point x="261" y="-6"/>
      <point x="243" y="-6"/>
      <point x="239" y="-6" type="curve" smooth="yes"/>
      <point x="170" y="-6"/>
      <point x="115" y="19"/>
      <point x="83" y="62" type="curve" smooth="yes"/>
      <point x="45" y="114"/>
      <point x="45" y="174"/>
      <point x="45" y="239" type="curve" smooth="yes"/>
      <point x="45" y="317"/>
      <point x="45" y="363"/>
      <point x="81" y="413" type="curve" smooth="yes"/>
      <point x="113" y="458"/>
      <point x="173" y="484"/>
      <point x="244" y="484" type="curve" smooth="yes"/>
      <point x="294" y="484"/>
      <point x="334" y="472"/>
      <point x="364" y="447" type="curve" smooth="yes"/>
      <point x="394" y="422"/>
      <point x="414" y="385"/>
      <point x="414" y="346" type="curve" smooth="yes"/>
      <point x="414" y="302"/>
      <point x="392" y="268"/>
      <point x="364" y="248" type="curve" smooth="yes"/>
      <point x="322" y="218"/>
      <point x="279" y="218"/>
      <point x="208" y="218" type="curve" smooth="yes"/>
      <point x="116" y="218" type="line"/>
      <point x="116" y="192"/>
      <point x="116" y="133"/>
    </contour>
    <contour>
      <point x="344" y="346" type="curve" smooth="yes"/>
      <point x="343" y="365"/>
      <point x="333" y="385"/>
      <point x="318" y="397" type="curve" smooth="yes"/>
      <point x="301" y="411"/>
      <point x="275" y="418"/>
      <point x="244" y="418" type="curve" smooth="yes"/>
      <point x="199" y="418"/>
      <point x="163" y="405"/>
      <point x="141" y="379" type="curve" smooth="yes"/>
      <point x="116" y="350"/>
      <point x="116" y="300"/>
      <point x="116" y="280" type="curve"/>
      <point x="208" y="280" type="line" smooth="yes"/>
      <point x="271" y="280"/>
      <point x="299" y="280"/>
      <point x="320" y="296" type="curve" smooth="yes"/>
      <point x="332" y="306"/>
      <point x="344" y="322"/>
      <point x="344" y="343" type="curve" smooth="yes"/>
      <point x="344" y="344"/>
      <point x="344" y="345"/>
    </contour>
  </outline>
</glyph>
<glyph name="Hbar" format="1">
  <advance width="710"/>
  <unicode hex="0126"/>
  <outline>
    <contour>
      <point x="134" y="666" type="line"/>
      <point x="205" y="666" type="line"/>
      <point x="205" y="606" type="line"/>
      <point x="503" y="606" type="line"/>
      <point x="503" y="666" type="line"/>
      <point x="574" y="666" type="line"/>
      <point x="574" y="606" type="line"/>
      <point x="635" y="606" type="line"/>
      <point x="635" y="544" type="line"/>
      <point x="574" y="544" type="line"/>
      <point x="574" y="0" type="line"/>
      <point x="503" y="0" type="line"/>
      <point x="503" y="310" type="line"/>
      <point x="205" y="310" type="line"/>
      <point x="205" y="0" type="line"/>
      <point x="134" y="0" type="line"/>
      <point x="134" y="544" type="line"/>
      <point x="75" y="544" type="line"/>
      <point x="75" y="606" type="line"/>
      <point x="134" y="606" type="line"/>
    </contour>
    <contour>
      <point x="205" y="544" type="line"/>
      <point x="205" y="376" type="line"/>
      <point x="503" y="376" type="line"/>
      <point x="503" y="544" type="line"/>
    </contour>
  </outline>
</glyph>
<glyph name="iogonek" format="1">
  <advance width="210"/>
  <unicode hex="012F"/>
  <outline>
    <contour>
      <point x="140" y="0" type="line"/>
      <point x="98" y="-12"/>
      <point x="45" y="-39"/>
      <point x="45" y="-96" type="curve" smooth="yes"/>
      <point x="45" y="-117"/>
      <point x="60" y="-133"/>
      <point x="81" y="-133" type="curve" smooth="yes"/>
      <point x="93" y="-133"/>
      <point x="106" y="-128"/>
      <point x="120" y="-119" type="curve"/>
      <point x="150" y="-167" type="line"/>
      <point x="131" y="-178"/>
      <point x="108" y="-189"/>
      <point x="81" y="-189" type="curve" smooth="yes"/>
      <point x="29" y="-189"/>
      <point x="-11" y="-148"/>
      <point x="-11" y="-96" type="curve" smooth="yes"/>
      <point x="-11" y="-48"/>
      <point x="28" y="-18"/>
      <point x="70" y="0" type="curve"/>
      <point x="70" y="478" type="line"/>
      <point x="140" y="478" type="line"/>
    </contour>
    <contour>
      <point x="105" y="644" type="curve" smooth="yes"/>
      <point x="132" y="644"/>
      <point x="152" y="625"/>
      <point x="152" y="597" type="curve" smooth="yes"/>
      <point x="152" y="569"/>
      <point x="132" y="550"/>
      <point x="105" y="550" type="curve" smooth="yes"/>
      <point x="78" y="550"/>
      <point x="58" y="569"/>
      <point x="58" y="597" type="curve" smooth="yes"/>
      <point x="58" y="625"/>
      <point x="78" y="644"/>
    </contour>
  </outline>
</glyph>
<glyph name="dotlessi" format="1">
  <advance width="214"/>
  <unicode hex="0131"/>
  <outline>
    <contour>
      <point x="0" y="0" type="move" name="Center"/>
    </contour>
    <contour>
      <point x="0" y="0" type="move" name="Apos"/>
    </contour>
    <contour>
      <point x="0" y="0" type="move" name="DoubleTop"/>
    </contour>
    <contour>
      <point x="107" y="0" type="move" name="Bottom"/>
    </contour>
    <contour>
      <point x="107" y="477" type="move" name="Top"/>
    </contour>
    <contour>
      <point x="72" y="477" type="line"/>
      <point x="142" y="477" type="line"/>
      <point x="142" y="0" type="line"/>
      <point x="72" y="0" type="line"/>
    </contour>
  </outline>
</glyph>
<glyph name="ij" format="1">
  <advance width="394"/>
  <unicode hex="0133"/>
  <outline>
    <contour>
      <point x="254" y="478" type="line"/>
      <point x="324" y="478" type="line"/>
      <point x="324" y="-21" type="line" smooth="yes"/>
      <point x="324" y="-83"/>
      <point x="324" y="-116"/>
      <point x="291" y="-151" type="curve" smooth="yes"/>
      <point x="270" y="-173"/>
      <point x="237" y="-189"/>
      <point x="193" y="-189" type="curve" smooth="yes"/>
      <point x="167" y="-189"/>
      <point x="141" y="-183"/>
      <point x="114" y="-172" type="curve"/>
      <point x="140" y="-111" type="line"/>
      <point x="158" y="-119"/>
      <point x="177" y="-123"/>
      <point x="193" y="-123" type="curve" smooth="yes"/>
      <point x="213" y="-123"/>
      <point x="232" y="-117"/>
      <point x="243" y="-102" type="curve" smooth="yes"/>
      <point x="254" y="-87"/>
      <point x="254" y="-69"/>
      <point x="254" y="-21" type="curve" smooth="yes"/>
    </contour>
    <contour>
      <point x="289" y="644" type="curve" smooth="yes"/>
      <point x="316" y="644"/>
      <point x="336" y="625"/>
      <point x="336" y="597" type="curve" smooth="yes"/>
      <point x="336" y="569"/>
      <point x="316" y="550"/>
      <point x="289" y="550" type="curve" smooth="yes"/>
      <point x="262" y="550"/>
      <point x="242" y="569"/>
      <point x="242" y="597" type="curve" smooth="yes"/>
      <point x="242" y="625"/>
      <point x="262" y="644"/>
    </contour>
    <contour>
      <point x="105" y="644" type="curve" smooth="yes"/>
      <point x="133" y="644"/>
      <point x="152" y="625"/>
      <point x="152" y="597" type="curve" smooth="yes"/>
      <point x="152" y="569"/>
      <point x="133" y="550"/>
      <point x="105" y="550" type="curve" smooth="yes"/>
      <point x="78" y="550"/>
      <point x="58" y="569"/>
      <point x="58" y="597" type="curve" smooth="yes"/>
      <point x="58" y="625"/>
      <point x="78" y="644"/>
    </contour>
    <contour>
      <point x="70" y="477" type="line"/>
      <point x="140" y="477" type="line"/>
      <point x="140" y="0" type="line"/>
      <point x="70" y="0" type="line"/>
    </contour>
  </outline>
</glyph>
<glyph name="kgreenlandic" format="1">
  <advance width="457"/>
  <unicode hex="0138"/>
  <outline>
    <contour>
      <point x="229" y="0" type="move" name="Bottom"/>
    </contour>
    <contour>
      <point x="-8" y="0" type="move" name="Center"/>
    </contour>
    <contour>
      <point x="-8" y="0" type="move" name="Top"/>
    </contour>
    <contour>
      <point x="0" y="0" type="move" name="Apos"/>
    </contour>
    <contour>
      <point x="0" y="0" type="move" name="DoubleTop"/>
    </contour>
    <contour>
      <point x="65" y="477" type="line"/>
      <point x="135" y="477" type="line"/>
      <point x="135" y="284" type="line"/>
      <point x="149" y="284"/>
      <point x="162" y="284"/>
      <point x="175" y="294" type="curve" smooth="yes"/>
      <point x="185" y="302"/>
      <point x="193" y="312"/>
      <point x="208" y="331" type="curve" smooth="yes"/>
      <point x="322" y="477" type="line"/>
      <point x="408" y="477" type="line"/>
      <point x="266" y="294" type="line" smooth="yes"/>
      <point x="253" y="277"/>
      <point x="248" y="270"/>
      <point x="238" y="260" type="curve"/>
      <point x="423" y="0" type="line"/>
      <point x="338" y="0" type="line"/>
      <point x="180" y="223" type="line"/>
      <point x="166" y="219"/>
      <point x="152" y="218"/>
      <point x="135" y="218" type="curve"/>
      <point x="135" y="0" type="line"/>
      <point x="65" y="0" type="line"/>
    </contour>
  </outline>
</glyph>
<glyph name="Lslash" format="1">
  <advance width="550"/>
  <unicode hex="0141"/>
  <outline>
    <contour>
      <point x="115" y="666" type="line"/>
      <point x="189" y="666" type="line"/>
      <point x="189" y="362" type="line"/>
      <point x="266" y="416" type="line"/>
      <point x="302" y="366" type="line"/>
      <point x="189" y="286" type="line"/>
      <point x="189" y="155" type="line" smooth="yes"/>
      <point x="189" y="114"/>
      <point x="189" y="92"/>
      <point x="206" y="79" type="curve" smooth="yes"/>
      <point x="218" y="70"/>
      <point x="235" y="70"/>
      <point x="272" y="70" type="curve" smooth="yes"/>
      <point x="495" y="70" type="line"/>
      <point x="495" y="0" type="line"/>
      <point x="272" y="0" type="line" smooth="yes"/>
      <point x="228" y="0"/>
      <point x="188" y="-0"/>
      <point x="155" y="28" type="curve" smooth="yes"/>
      <point x="115" y="63"/>
      <point x="115" y="107"/>
      <point x="115" y="155" type="curve" smooth="yes"/>
      <point x="115" y="234" type="line"/>
      <point x="58" y="196" type="line"/>
      <point x="22" y="246" type="line"/>
      <point x="115" y="311" type="line"/>
    </contour>
  </outline>
</glyph>
<glyph name="Eng" format="1">
  <advance width="570"/>
  <unicode hex="014A"/>
  <outline>
    <contour>
      <point x="426" y="-49" type="curve" smooth="yes"/>
      <point x="426" y="397" type="line" smooth="yes"/>
      <point x="426" y="476"/>
      <point x="426" y="527"/>
      <point x="388" y="565" type="curve" smooth="yes"/>
      <point x="365" y="588"/>
      <point x="329" y="602"/>
      <point x="285" y="602" type="curve" smooth="yes"/>
      <point x="241" y="602"/>
      <point x="205" y="588"/>
      <point x="182" y="565" type="curve" smooth="yes"/>
      <point x="144" y="527"/>
      <point x="144" y="476"/>
      <point x="144" y="397" type="curve" smooth="yes"/>
      <point x="144" y="0" type="line"/>
      <point x="70" y="0" type="line"/>
      <point x="70" y="397" type="line" smooth="yes"/>
      <point x="70" y="480"/>
      <point x="70" y="555"/>
      <point x="128" y="613" type="curve" smooth="yes"/>
      <point x="165" y="650"/>
      <point x="219" y="672"/>
      <point x="285" y="672" type="curve" smooth="yes"/>
      <point x="351" y="672"/>
      <point x="405" y="650"/>
      <point x="442" y="613" type="curve" smooth="yes"/>
      <point x="500" y="555"/>
      <point x="500" y="480"/>
      <point x="500" y="397" type="curve" smooth="yes"/>
      <point x="500" y="-49" type="line" smooth="yes"/>
      <point x="500" y="-76"/>
      <point x="498" y="-103"/>
      <point x="482" y="-130" type="curve" smooth="yes"/>
      <point x="459" y="-167"/>
      <point x="417" y="-189"/>
      <point x="367" y="-189" type="curve" smooth="yes"/>
      <point x="337" y="-189"/>
      <point x="309" y="-182"/>
      <point x="283" y="-171" type="curve"/>
      <point x="315" y="-107" type="line"/>
      <point x="332" y="-115"/>
      <point x="350" y="-119"/>
      <point x="367" y="-119" type="curve" smooth="yes"/>
      <point x="395" y="-119"/>
      <point x="410" y="-109"/>
      <point x="418" y="-96" type="curve" smooth="yes"/>
      <point x="424" y="-85"/>
      <point x="426" y="-74"/>
    </contour>
  </outline>
</glyph>
<glyph name="eng" format="1">
  <advance width="480"/>
  <unicode hex="014B"/>
  <outline>
    <contour>
      <point x="350" y="-21" type="curve" smooth="yes"/>
      <point x="350" y="239" type="line" smooth="yes"/>
      <point x="350" y="300"/>
      <point x="350" y="344"/>
      <point x="327" y="377" type="curve" smooth="yes"/>
      <point x="306" y="407"/>
      <point x="271" y="418"/>
      <point x="240" y="418" type="curve" smooth="yes"/>
      <point x="209" y="418"/>
      <point x="174" y="407"/>
      <point x="153" y="377" type="curve" smooth="yes"/>
      <point x="130" y="344"/>
      <point x="130" y="300"/>
      <point x="130" y="239" type="curve" smooth="yes"/>
      <point x="130" y="0" type="line"/>
      <point x="60" y="0" type="line"/>
      <point x="60" y="239" type="line" smooth="yes"/>
      <point x="60" y="310"/>
      <point x="60" y="364"/>
      <point x="95" y="414" type="curve" smooth="yes"/>
      <point x="128" y="461"/>
      <point x="182" y="484"/>
      <point x="240" y="484" type="curve" smooth="yes"/>
      <point x="298" y="484"/>
      <point x="352" y="461"/>
      <point x="385" y="414" type="curve" smooth="yes"/>
      <point x="420" y="364"/>
      <point x="420" y="310"/>
      <point x="420" y="239" type="curve" smooth="yes"/>
      <point x="420" y="-21" type="line" smooth="yes"/>
      <point x="420" y="-83"/>
      <point x="420" y="-116"/>
      <point x="387" y="-151" type="curve" smooth="yes"/>
      <point x="366" y="-173"/>
      <point x="333" y="-189"/>
      <point x="289" y="-189" type="curve" smooth="yes"/>
      <point x="263" y="-189"/>
      <point x="237" y="-183"/>
      <point x="210" y="-172" type="curve"/>
      <point x="236" y="-111" type="line"/>
      <point x="254" y="-119"/>
      <point x="273" y="-123"/>
      <point x="289" y="-123" type="curve" smooth="yes"/>
      <point x="309" y="-123"/>
      <point x="328" y="-117"/>
      <point x="339" y="-102" type="curve" smooth="yes"/>
      <point x="350" y="-87"/>
      <point x="350" y="-69"/>
    </contour>
  </outline>
</glyph>
<glyph name="OE" format="1">
  <advance width="806"/>
  <unicode hex="0152"/>
  <outline>
    <contour>
      <point x="436" y="64" type="curve"/>
      <point x="397" y="12"/>
      <point x="335" y="-6"/>
      <point x="280" y="-6" type="curve" smooth="yes"/>
      <point x="228" y="-6"/>
      <point x="167" y="13"/>
      <point x="128" y="55" type="curve" smooth="yes"/>
      <point x="65" y="122"/>
      <point x="65" y="201"/>
      <point x="65" y="309" type="curve" smooth="yes"/>
      <point x="65" y="357" type="line" smooth="yes"/>
      <point x="65" y="465"/>
      <point x="65" y="544"/>
      <point x="128" y="611" type="curve" smooth="yes"/>
      <point x="167" y="653"/>
      <point x="228" y="672"/>
      <point x="280" y="672" type="curve" smooth="yes"/>
      <point x="335" y="672"/>
      <point x="397" y="654"/>
      <point x="436" y="602" type="curve"/>
      <point x="442" y="615"/>
      <point x="450" y="627"/>
      <point x="461" y="638" type="curve" smooth="yes"/>
      <point x="494" y="666"/>
      <point x="534" y="666"/>
      <point x="578" y="666" type="curve" smooth="yes"/>
      <point x="741" y="666" type="line"/>
      <point x="741" y="596" type="line"/>
      <point x="578" y="596" type="line" smooth="yes"/>
      <point x="541" y="596"/>
      <point x="524" y="596"/>
      <point x="512" y="587" type="curve" smooth="yes"/>
      <point x="495" y="574"/>
      <point x="495" y="552"/>
      <point x="495" y="511" type="curve" smooth="yes"/>
      <point x="495" y="378" type="line"/>
      <point x="701" y="379" type="line"/>
      <point x="701" y="309" type="line"/>
      <point x="495" y="308" type="line"/>
      <point x="495" y="155" type="line" smooth="yes"/>
      <point x="495" y="114"/>
      <point x="495" y="92"/>
      <point x="512" y="79" type="curve" smooth="yes"/>
      <point x="524" y="70"/>
      <point x="541" y="70"/>
      <point x="578" y="70" type="curve" smooth="yes"/>
      <point x="741" y="70" type="line"/>
      <point x="741" y="0" type="line"/>
      <point x="578" y="0" type="line" smooth="yes"/>
      <point x="534" y="0"/>
      <point x="494" y="-0"/>
      <point x="461" y="28" type="curve" smooth="yes"/>
      <point x="450" y="39"/>
      <point x="442" y="51"/>
    </contour>
    <contour>
      <point x="280" y="602" type="curve" smooth="yes"/>
      <point x="237" y="602"/>
      <point x="197" y="584"/>
      <point x="175" y="555" type="curve" smooth="yes"/>
      <point x="139" y="508"/>
      <point x="139" y="455"/>
      <point x="139" y="357" type="curve" smooth="yes"/>
      <point x="139" y="309" type="line" smooth="yes"/>
      <point x="139" y="211"/>
      <point x="139" y="158"/>
      <point x="175" y="111" type="curve" smooth="yes"/>
      <point x="197" y="82"/>
      <point x="237" y="64"/>
      <point x="280" y="64" type="curve" smooth="yes"/>
      <point x="323" y="64"/>
      <point x="363" y="82"/>
      <point x="385" y="111" type="curve" smooth="yes"/>
      <point x="421" y="158"/>
      <point x="421" y="211"/>
      <point x="421" y="309" type="curve" smooth="yes"/>
      <point x="421" y="357" type="line" smooth="yes"/>
      <point x="421" y="455"/>
      <point x="421" y="508"/>
      <point x="385" y="555" type="curve" smooth="yes"/>
      <point x="363" y="584"/>
      <point x="323" y="602"/>
    </contour>
  </outline>
</glyph>
<glyph name="oe" format="1">
  <advance width="700"/>
  <unicode hex="0153"/>
  <outline>
    <contour>
      <point x="357" y="66" type="curve"/>
      <point x="329" y="28"/>
      <point x="285" y="-6"/>
      <point x="225" y="-6" type="curve" smooth="yes"/>
      <point x="165" y="-6"/>
      <point x="118" y="25"/>
      <point x="91" y="63" type="curve" smooth="yes"/>
      <point x="57" y="111"/>
      <point x="55" y="167"/>
      <point x="55" y="239" type="curve" smooth="yes"/>
      <point x="55" y="311"/>
      <point x="58" y="366"/>
      <point x="91" y="415" type="curve" smooth="yes"/>
      <point x="117" y="453"/>
      <point x="165" y="484"/>
      <point x="225" y="484" type="curve" smooth="yes"/>
      <point x="285" y="484"/>
      <point x="332" y="452"/>
      <point x="358" y="412" type="curve"/>
      <point x="389" y="456"/>
      <point x="442" y="484"/>
      <point x="509" y="484" type="curve" smooth="yes"/>
      <point x="538" y="484"/>
      <point x="574" y="478"/>
      <point x="604" y="456" type="curve" smooth="yes"/>
      <point x="632" y="436"/>
      <point x="655" y="399"/>
      <point x="655" y="356" type="curve" smooth="yes"/>
      <point x="655" y="309"/>
      <point x="630" y="272"/>
      <point x="600" y="251" type="curve" smooth="yes"/>
      <point x="561" y="224"/>
      <point x="517" y="224"/>
      <point x="489" y="224" type="curve" smooth="yes"/>
      <point x="395" y="224" type="line"/>
      <point x="395" y="139"/>
      <point x="395" y="111"/>
      <point x="430" y="82" type="curve" smooth="yes"/>
      <point x="451" y="64"/>
      <point x="478" y="60"/>
      <point x="499" y="60" type="curve" smooth="yes"/>
      <point x="533" y="60"/>
      <point x="571" y="72"/>
      <point x="602" y="90" type="curve"/>
      <point x="635" y="32" type="line"/>
      <point x="593" y="9"/>
      <point x="547" y="-6"/>
      <point x="499" y="-6" type="curve" smooth="yes"/>
      <point x="432" y="-6"/>
      <point x="387" y="21"/>
    </contour>
    <contour>
      <point x="509" y="418" type="curve" smooth="yes"/>
      <point x="479" y="418"/>
      <point x="447" y="410"/>
      <point x="426" y="390" type="curve" smooth="yes"/>
      <point x="395" y="359"/>
      <point x="395" y="333"/>
      <point x="395" y="286" type="curve"/>
      <point x="489" y="286" type="line" smooth="yes"/>
      <point x="514" y="286"/>
      <point x="536" y="286"/>
      <point x="557" y="300" type="curve" smooth="yes"/>
      <point x="572" y="310"/>
      <point x="585" y="331"/>
      <point x="585" y="356" type="curve" smooth="yes"/>
      <point x="585" y="368"/>
      <point x="581" y="389"/>
      <point x="562" y="403" type="curve" smooth="yes"/>
      <point x="542" y="418"/>
      <point x="516" y="418"/>
    </contour>
    <contour>
      <point x="225" y="60" type="curve" smooth="yes"/>
      <point x="259" y="60"/>
      <point x="285" y="77"/>
      <point x="301" y="99" type="curve" smooth="yes"/>
      <point x="325" y="132"/>
      <point x="325" y="183"/>
      <point x="325" y="239" type="curve" smooth="yes"/>
      <point x="325" y="295"/>
      <point x="325" y="346"/>
      <point x="301" y="379" type="curve" smooth="yes"/>
      <point x="285" y="401"/>
      <point x="259" y="418"/>
      <point x="225" y="418" type="curve" smooth="yes"/>
      <point x="191" y="418"/>
      <point x="165" y="401"/>
      <point x="149" y="379" type="curve" smooth="yes"/>
      <point x="126" y="346"/>
      <point x="125" y="295"/>
      <point x="125" y="239" type="curve" smooth="yes"/>
      <point x="125" y="183"/>
      <point x="125" y="132"/>
      <point x="149" y="99" type="curve" smooth="yes"/>
      <point x="165" y="77"/>
      <point x="191" y="60"/>
    </contour>
  </outline>
</glyph>
<glyph name="uni0163" format="1">
  <advance width="298"/>
  <unicode hex="0163"/>
  <outline>
    <contour>
      <point x="113" y="-128" type="line"/>
      <point x="127" y="-134"/>
      <point x="142" y="-137"/>
      <point x="154" y="-137" type="curve" smooth="yes"/>
      <point x="163" y="-137"/>
      <point x="176" y="-137"/>
      <point x="190" y="-130" type="curve" smooth="yes"/>
      <point x="202" y="-123"/>
      <point x="210" y="-113"/>
      <point x="210" y="-100" type="curve" smooth="yes"/>
      <point x="210" y="-90"/>
      <point x="205" y="-80"/>
      <point x="194" y="-74" type="curve" smooth="yes"/>
      <point x="186" y="-70"/>
      <point x="178" y="-70"/>
      <point x="169" y="-70" type="curve" smooth="yes"/>
      <point x="132" y="-70" type="line"/>
      <point x="153" y="-2" type="line"/>
      <point x="128" y="4"/>
      <point x="108" y="17"/>
      <point x="93" y="32" type="curve" smooth="yes"/>
      <point x="60" y="67"/>
      <point x="60" y="100"/>
      <point x="60" y="182" type="curve" smooth="yes"/>
      <point x="60" y="591" type="line"/>
      <point x="130" y="591" type="line"/>
      <point x="130" y="478" type="line"/>
      <point x="240" y="478" type="line"/>
      <point x="240" y="416" type="line"/>
      <point x="130" y="416" type="line"/>
      <point x="130" y="182" type="line" smooth="yes"/>
      <point x="130" y="114"/>
      <point x="130" y="96"/>
      <point x="141" y="81" type="curve" smooth="yes"/>
      <point x="152" y="66"/>
      <point x="171" y="60"/>
      <point x="191" y="60" type="curve" smooth="yes"/>
      <point x="207" y="60"/>
      <point x="226" y="64"/>
      <point x="244" y="72" type="curve"/>
      <point x="270" y="11" type="line"/>
      <point x="245" y="1"/>
      <point x="220" y="-5"/>
      <point x="196" y="-6" type="curve"/>
      <point x="187" y="-37" type="line"/>
      <point x="208" y="-37"/>
      <point x="224" y="-37"/>
      <point x="243" y="-50" type="curve" smooth="yes"/>
      <point x="258" y="-61"/>
      <point x="266" y="-79"/>
      <point x="266" y="-99" type="curve" smooth="yes"/>
      <point x="266" y="-127"/>
      <point x="251" y="-149"/>
      <point x="235" y="-163" type="curve" smooth="yes"/>
      <point x="217" y="-178"/>
      <point x="188" y="-189"/>
      <point x="154" y="-189" type="curve" smooth="yes"/>
      <point x="136" y="-189"/>
      <point x="116" y="-186"/>
      <point x="97" y="-178" type="curve"/>
    </contour>
  </outline>
</glyph>
<glyph name="tbar" format="1">
  <advance width="415"/>
  <unicode hex="0167"/>
  <outline>
    <contour>
      <point x="162" y="591" type="line"/>
      <point x="232" y="591" type="line"/>
      <point x="232" y="477" type="line"/>
      <point x="342" y="477" type="line"/>
      <point x="342" y="415" type="line"/>
      <point x="232" y="415" type="line"/>
      <point x="232" y="334" type="line"/>
      <point x="342" y="334" type="line"/>
      <point x="342" y="272" type="line"/>
      <point x="232" y="272" type="line"/>
      <point x="232" y="132" type="line" smooth="yes"/>
      <point x="232" y="114"/>
      <point x="232" y="96"/>
      <point x="243" y="81" type="curve" smooth="yes"/>
      <point x="254" y="66"/>
      <point x="273" y="60"/>
      <point x="293" y="60" type="curve" smooth="yes"/>
      <point x="309" y="60"/>
      <point x="328" y="64"/>
      <point x="346" y="72" type="curve"/>
      <point x="375" y="12" type="line"/>
      <point x="349" y="1"/>
      <point x="322" y="-6"/>
      <point x="293" y="-6" type="curve" smooth="yes"/>
      <point x="249" y="-6"/>
      <point x="216" y="10"/>
      <point x="195" y="32" type="curve" smooth="yes"/>
      <point x="162" y="67"/>
      <point x="162" y="106"/>
      <point x="162" y="132" type="curve" smooth="yes"/>
      <point x="162" y="272" type="line"/>
      <point x="82" y="272" type="line"/>
      <point x="82" y="334" type="line"/>
      <point x="162" y="334" type="line"/>
      <point x="162" y="415" type="line"/>
      <point x="82" y="415" type="line"/>
      <point x="82" y="477" type="line"/>
      <point x="162" y="477" type="line"/>
    </contour>
  </outline>
</glyph>
<glyph name="uogonek" format="1">
  <advance width="480"/>
  <unicode hex="0173"/>
  <outline>
    <contour>
      <point x="60" y="478" type="line"/>
      <point x="130" y="478" type="line"/>
      <point x="130" y="239" type="line" smooth="yes"/>
      <point x="130" y="178"/>
      <point x="130" y="134"/>
      <point x="153" y="101" type="curve" smooth="yes"/>
      <point x="174" y="71"/>
      <point x="209" y="60"/>
      <point x="240" y="60" type="curve" smooth="yes"/>
      <point x="271" y="60"/>
      <point x="306" y="71"/>
      <point x="327" y="101" type="curve" smooth="yes"/>
      <point x="350" y="134"/>
      <point x="350" y="178"/>
      <point x="350" y="239" type="curve" smooth="yes"/>
      <point x="350" y="478" type="line"/>
      <point x="420" y="478" type="line"/>
      <point x="420" y="239" type="line" smooth="yes"/>
      <point x="420" y="168"/>
      <point x="420" y="114"/>
      <point x="385" y="64" type="curve" smooth="yes"/>
      <point x="363" y="33"/>
      <point x="332" y="12"/>
      <point x="296" y="2" type="curve" smooth="yes"/>
      <point x="250" y="-11"/>
      <point x="204" y="-42"/>
      <point x="204" y="-96" type="curve" smooth="yes"/>
      <point x="204" y="-117"/>
      <point x="219" y="-133"/>
      <point x="240" y="-133" type="curve" smooth="yes"/>
      <point x="252" y="-133"/>
      <point x="265" y="-128"/>
      <point x="279" y="-119" type="curve"/>
      <point x="309" y="-167" type="line"/>
      <point x="290" y="-178"/>
      <point x="267" y="-189"/>
      <point x="240" y="-189" type="curve" smooth="yes"/>
      <point x="188" y="-189"/>
      <point x="148" y="-148"/>
      <point x="148" y="-96" type="curve" smooth="yes"/>
      <point x="148" y="-53"/>
      <point x="174" y="-23"/>
      <point x="213" y="-4" type="curve"/>
      <point x="160" y="4"/>
      <point x="123" y="26"/>
      <point x="95" y="64" type="curve" smooth="yes"/>
      <point x="60" y="114"/>
      <point x="60" y="168"/>
      <point x="60" y="239" type="curve" smooth="yes"/>
    </contour>
  </outline>
</glyph>
<glyph name="longs" format="1">
  <advance width="354"/>
  <unicode hex="017F"/>
  <outline>
    <contour>
      <point x="256" y="672" type="curve" smooth="yes"/>
      <point x="281" y="672"/>
      <point x="302" y="667"/>
      <point x="321" y="662" type="curve"/>
      <point x="303" y="598" type="line"/>
      <point x="284" y="603"/>
      <point x="268" y="606"/>
      <point x="256" y="606" type="curve" smooth="yes"/>
      <point x="235" y="606"/>
      <point x="215" y="599"/>
      <point x="202" y="583" type="curve" smooth="yes"/>
      <point x="185" y="562"/>
      <point x="185" y="536"/>
      <point x="185" y="482" type="curve" smooth="yes"/>
      <point x="185" y="0" type="line"/>
      <point x="115" y="0" type="line"/>
      <point x="115" y="416" type="line"/>
      <point x="35" y="416" type="line"/>
      <point x="35" y="478" type="line"/>
      <point x="115" y="478" type="line"/>
      <point x="115" y="482" type="line" smooth="yes"/>
      <point x="115" y="543"/>
      <point x="115" y="582"/>
      <point x="144" y="620" type="curve" smooth="yes"/>
      <point x="170" y="654"/>
      <point x="211" y="672"/>
    </contour>
  </outline>
</glyph>
<glyph name="uni018F" format="1">
  <advance width="580"/>
  <unicode hex="018F"/>
  <outline>
    <contour>
      <point x="0" y="0" type="move" name="DoubleTop"/>
    </contour>
    <contour>
      <point x="0" y="0" type="move" name="Apos"/>
    </contour>
    <contour>
      <point x="0" y="0" type="move" name="Center"/>
    </contour>
    <contour>
      <point x="290" y="0" type="move" name="Bottom"/>
    </contour>
    <contour>
      <point x="290" y="667" type="move" name="Top"/>
    </contour>
    <contour>
      <point x="441" y="267" type="curve"/>
      <point x="139" y="267" type="line"/>
      <point x="139" y="190"/>
      <point x="141" y="137"/>
      <point x="187" y="97" type="curve" smooth="yes"/>
      <point x="211" y="76"/>
      <point x="246" y="64"/>
      <point x="290" y="64" type="curve" smooth="yes"/>
      <point x="334" y="64"/>
      <point x="369" y="76"/>
      <point x="393" y="97" type="curve" smooth="yes"/>
      <point x="439" y="137"/>
      <point x="441" y="190"/>
    </contour>
    <contour>
      <point x="290" y="672" type="curve" smooth="yes"/>
      <point x="350" y="672"/>
      <point x="405" y="654"/>
      <point x="444" y="620" type="curve" smooth="yes"/>
      <point x="515" y="558"/>
      <point x="515" y="474"/>
      <point x="515" y="387" type="curve" smooth="yes"/>
      <point x="515" y="279" type="line" smooth="yes"/>
      <point x="515" y="191"/>
      <point x="515" y="107"/>
      <point x="443" y="45" type="curve" smooth="yes"/>
      <point x="401" y="9"/>
      <point x="345" y="-6"/>
      <point x="290" y="-6" type="curve" smooth="yes"/>
      <point x="235" y="-6"/>
      <point x="179" y="9"/>
      <point x="137" y="45" type="curve" smooth="yes"/>
      <point x="65" y="107"/>
      <point x="65" y="191"/>
      <point x="65" y="279" type="curve" smooth="yes"/>
      <point x="65" y="333" type="line"/>
      <point x="441" y="333" type="line"/>
      <point x="441" y="387" type="line" smooth="yes"/>
      <point x="441" y="468"/>
      <point x="441" y="528"/>
      <point x="392" y="570" type="curve" smooth="yes"/>
      <point x="364" y="594"/>
      <point x="324" y="602"/>
      <point x="290" y="602" type="curve" smooth="yes"/>
      <point x="241" y="602"/>
      <point x="193" y="587"/>
      <point x="157" y="558" type="curve"/>
      <point x="113" y="614" type="line"/>
      <point x="163" y="654"/>
      <point x="229" y="672"/>
    </contour>
  </outline>
</glyph>
<glyph name="uni01EA" format="1">
  <advance width="600"/>
  <unicode hex="01EA"/>
  <outline>
    <contour>
      <point x="371" y="3" type="curve" smooth="yes"/>
      <point x="324" y="-9"/>
      <point x="264" y="-37"/>
      <point x="264" y="-96" type="curve" smooth="yes"/>
      <point x="264" y="-117"/>
      <point x="279" y="-133"/>
      <point x="300" y="-133" type="curve" smooth="yes"/>
      <point x="312" y="-133"/>
      <point x="325" y="-128"/>
      <point x="339" y="-119" type="curve"/>
      <point x="369" y="-167" type="line"/>
      <point x="350" y="-178"/>
      <point x="327" y="-189"/>
      <point x="300" y="-189" type="curve" smooth="yes"/>
      <point x="248" y="-189"/>
      <point x="208" y="-148"/>
      <point x="208" y="-96" type="curve" smooth="yes"/>
      <point x="208" y="-54"/>
      <point x="239" y="-19"/>
      <point x="277" y="-5" type="curve"/>
      <point x="216" y="0"/>
      <point x="169" y="22"/>
      <point x="134" y="54" type="curve" smooth="yes"/>
      <point x="65" y="119"/>
      <point x="65" y="200"/>
      <point x="65" y="289" type="curve" smooth="yes"/>
      <point x="65" y="377" type="line" smooth="yes"/>
      <point x="65" y="466"/>
      <point x="65" y="547"/>
      <point x="134" y="612" type="curve" smooth="yes"/>
      <point x="173" y="649"/>
      <point x="233" y="672"/>
      <point x="300" y="672" type="curve" smooth="yes"/>
      <point x="367" y="672"/>
      <point x="427" y="649"/>
      <point x="466" y="612" type="curve" smooth="yes"/>
      <point x="535" y="547"/>
      <point x="535" y="466"/>
      <point x="535" y="377" type="curve" smooth="yes"/>
      <point x="535" y="289" type="line" smooth="yes"/>
      <point x="535" y="202"/>
      <point x="535" y="119"/>
      <point x="466" y="54" type="curve" smooth="yes"/>
      <point x="434" y="24"/>
      <point x="398" y="10"/>
    </contour>
    <contour>
      <point x="300" y="602" type="curve" smooth="yes"/>
      <point x="257" y="602"/>
      <point x="216" y="590"/>
      <point x="186" y="562" type="curve" smooth="yes"/>
      <point x="139" y="518"/>
      <point x="139" y="458"/>
      <point x="139" y="377" type="curve" smooth="yes"/>
      <point x="139" y="289" type="line" smooth="yes"/>
      <point x="139" y="208"/>
      <point x="139" y="148"/>
      <point x="186" y="104" type="curve" smooth="yes"/>
      <point x="216" y="76"/>
      <point x="257" y="64"/>
      <point x="300" y="64" type="curve" smooth="yes"/>
      <point x="343" y="64"/>
      <point x="384" y="76"/>
      <point x="414" y="104" type="curve" smooth="yes"/>
      <point x="461" y="148"/>
      <point x="461" y="208"/>
      <point x="461" y="289" type="curve" smooth="yes"/>
      <point x="461" y="377" type="line" smooth="yes"/>
      <point x="461" y="458"/>
      <point x="461" y="518"/>
      <point x="414" y="562" type="curve" smooth="yes"/>
      <point x="384" y="590"/>
      <point x="343" y="602"/>
    </contour>
  </outline>
</glyph>
<glyph name="uni0228" format="1">
  <advance width="500"/>
  <unicode hex="0228"/>
  <outline>
    <contour>
      <point x="192" y="-128" type="line"/>
      <point x="206" y="-134"/>
      <point x="221" y="-137"/>
      <point x="233" y="-137" type="curve" smooth="yes"/>
      <point x="242" y="-137"/>
      <point x="255" y="-137"/>
      <point x="269" y="-130" type="curve" smooth="yes"/>
      <point x="281" y="-123"/>
      <point x="289" y="-113"/>
      <point x="289" y="-100" type="curve" smooth="yes"/>
      <point x="289" y="-90"/>
      <point x="284" y="-80"/>
      <point x="273" y="-74" type="curve" smooth="yes"/>
      <point x="265" y="-70"/>
      <point x="257" y="-70"/>
      <point x="248" y="-70" type="curve" smooth="yes"/>
      <point x="211" y="-70" type="line"/>
      <point x="233" y="0" type="line"/>
      <point x="232" y="0" type="line" smooth="yes"/>
      <point x="188" y="0"/>
      <point x="148" y="0"/>
      <point x="115" y="28" type="curve" smooth="yes"/>
      <point x="75" y="63"/>
      <point x="75" y="107"/>
      <point x="75" y="155" type="curve" smooth="yes"/>
      <point x="75" y="511" type="line" smooth="yes"/>
      <point x="75" y="559"/>
      <point x="75" y="603"/>
      <point x="115" y="638" type="curve" smooth="yes"/>
      <point x="148" y="666"/>
      <point x="188" y="666"/>
      <point x="232" y="666" type="curve" smooth="yes"/>
      <point x="435" y="666" type="line"/>
      <point x="435" y="596" type="line"/>
      <point x="232" y="596" type="line" smooth="yes"/>
      <point x="195" y="596"/>
      <point x="178" y="596"/>
      <point x="166" y="587" type="curve" smooth="yes"/>
      <point x="149" y="574"/>
      <point x="149" y="552"/>
      <point x="149" y="511" type="curve" smooth="yes"/>
      <point x="149" y="378" type="line"/>
      <point x="385" y="379" type="line"/>
      <point x="385" y="309" type="line"/>
      <point x="149" y="308" type="line"/>
      <point x="149" y="155" type="line" smooth="yes"/>
      <point x="149" y="114"/>
      <point x="149" y="92"/>
      <point x="166" y="79" type="curve" smooth="yes"/>
      <point x="178" y="70"/>
      <point x="195" y="70"/>
      <point x="232" y="70" type="curve" smooth="yes"/>
      <point x="435" y="70" type="line"/>
      <point x="435" y="0" type="line"/>
      <point x="277" y="0" type="line"/>
      <point x="266" y="-37" type="line"/>
      <point x="287" y="-37"/>
      <point x="303" y="-37"/>
      <point x="322" y="-50" type="curve" smooth="yes"/>
      <point x="337" y="-61"/>
      <point x="345" y="-79"/>
      <point x="345" y="-99" type="curve" smooth="yes"/>
      <point x="345" y="-127"/>
      <point x="330" y="-149"/>
      <point x="314" y="-163" type="curve" smooth="yes"/>
      <point x="296" y="-178"/>
      <point x="267" y="-189"/>
      <point x="233" y="-189" type="curve" smooth="yes"/>
      <point x="215" y="-189"/>
      <point x="195" y="-186"/>
      <point x="176" y="-178" type="curve"/>
    </contour>
  </outline>
</glyph>
